<svg width="359" height="505" viewBox="0 0 359 505" fill="none" xmlns="http://www.w3.org/2000/svg"><path d="M185.418 459.247V448.747H186.618L190.983 455.932H190.203L194.568 448.747H195.768V459.247H194.043V451.777L194.433 451.882L191.193 457.207H189.993L186.753 451.882L187.143 451.777V459.247H185.418ZM201.165 459.397C200.445 459.397 199.795 459.237 199.215 458.917C198.645 458.587 198.19 458.137 197.85 457.567C197.52 456.997 197.355 456.357 197.355 455.647C197.355 454.937 197.52 454.302 197.85 453.742C198.18 453.172 198.625 452.722 199.185 452.392C199.755 452.062 200.385 451.897 201.075 451.897C201.745 451.897 202.335 452.052 202.845 452.362C203.365 452.672 203.77 453.097 204.06 453.637C204.36 454.177 204.51 454.792 204.51 455.482C204.51 455.602 204.5 455.727 204.48 455.857C204.47 455.977 204.45 456.112 204.42 456.262H198.51V454.912H203.565L202.95 455.452C202.93 455.012 202.845 454.642 202.695 454.342C202.545 454.042 202.33 453.812 202.05 453.652C201.78 453.492 201.445 453.412 201.045 453.412C200.625 453.412 200.26 453.502 199.95 453.682C199.64 453.862 199.4 454.117 199.23 454.447C199.06 454.767 198.975 455.152 198.975 455.602C198.975 456.052 199.065 456.447 199.245 456.787C199.425 457.127 199.68 457.392 200.01 457.582C200.34 457.762 200.72 457.852 201.15 457.852C201.52 457.852 201.86 457.787 202.17 457.657C202.49 457.527 202.76 457.337 202.98 457.087L204.03 458.152C203.68 458.562 203.255 458.872 202.755 459.082C202.255 459.292 201.725 459.397 201.165 459.397ZM206.738 459.247V449.047H208.388V459.247H206.738ZM205.013 453.547V452.047H210.113V453.547H205.013ZM214.121 459.397C213.471 459.397 212.881 459.232 212.351 458.902C211.831 458.572 211.416 458.127 211.106 457.567C210.806 456.997 210.656 456.362 210.656 455.662C210.656 454.952 210.806 454.317 211.106 453.757C211.416 453.187 211.831 452.737 212.351 452.407C212.881 452.067 213.471 451.897 214.121 451.897C214.671 451.897 215.156 452.017 215.576 452.257C216.006 452.487 216.346 452.807 216.596 453.217C216.846 453.627 216.971 454.092 216.971 454.612V456.682C216.971 457.202 216.846 457.667 216.596 458.077C216.356 458.487 216.021 458.812 215.591 459.052C215.161 459.282 214.671 459.397 214.121 459.397ZM214.391 457.837C215.001 457.837 215.491 457.632 215.861 457.222C216.241 456.812 216.431 456.287 216.431 455.647C216.431 455.217 216.346 454.837 216.176 454.507C216.006 454.177 215.766 453.922 215.456 453.742C215.156 453.552 214.801 453.457 214.391 453.457C213.991 453.457 213.636 453.552 213.326 453.742C213.026 453.922 212.786 454.177 212.606 454.507C212.436 454.837 212.351 455.217 212.351 455.647C212.351 456.077 212.436 456.457 212.606 456.787C212.786 457.117 213.026 457.377 213.326 457.567C213.636 457.747 213.991 457.837 214.391 457.837ZM216.326 459.247V457.312L216.611 455.557L216.326 453.817V452.047H217.976V459.247H216.326ZM225.961 459.397C225.131 459.397 224.426 459.247 223.846 458.947C223.266 458.647 222.746 458.207 222.286 457.627L223.456 456.457C223.746 456.877 224.091 457.207 224.491 457.447C224.891 457.677 225.401 457.792 226.021 457.792C226.601 457.792 227.061 457.672 227.401 457.432C227.751 457.192 227.926 456.862 227.926 456.442C227.926 456.092 227.836 455.807 227.656 455.587C227.476 455.367 227.236 455.187 226.936 455.047C226.646 454.897 226.321 454.767 225.961 454.657C225.611 454.537 225.256 454.407 224.896 454.267C224.546 454.117 224.221 453.932 223.921 453.712C223.631 453.492 223.396 453.207 223.216 452.857C223.036 452.507 222.946 452.062 222.946 451.522C222.946 450.902 223.096 450.377 223.396 449.947C223.706 449.507 224.121 449.172 224.641 448.942C225.161 448.712 225.741 448.597 226.381 448.597C227.071 448.597 227.686 448.732 228.226 449.002C228.776 449.272 229.221 449.617 229.561 450.037L228.391 451.207C228.091 450.867 227.776 450.617 227.446 450.457C227.126 450.287 226.756 450.202 226.336 450.202C225.816 450.202 225.406 450.307 225.106 450.517C224.816 450.727 224.671 451.022 224.671 451.402C224.671 451.722 224.761 451.982 224.941 452.182C225.121 452.372 225.356 452.537 225.646 452.677C225.946 452.807 226.271 452.932 226.621 453.052C226.981 453.172 227.336 453.307 227.686 453.457C228.046 453.607 228.371 453.802 228.661 454.042C228.961 454.272 229.201 454.572 229.381 454.942C229.561 455.312 229.651 455.777 229.651 456.337C229.651 457.277 229.316 458.022 228.646 458.572C227.986 459.122 227.091 459.397 225.961 459.397ZM234.403 459.397C233.683 459.397 233.033 459.237 232.453 458.917C231.883 458.587 231.428 458.137 231.088 457.567C230.758 456.997 230.593 456.357 230.593 455.647C230.593 454.937 230.758 454.302 231.088 453.742C231.418 453.172 231.863 452.722 232.423 452.392C232.993 452.062 233.623 451.897 234.313 451.897C234.983 451.897 235.573 452.052 236.083 452.362C236.603 452.672 237.008 453.097 237.298 453.637C237.598 454.177 237.748 454.792 237.748 455.482C237.748 455.602 237.738 455.727 237.718 455.857C237.708 455.977 237.688 456.112 237.658 456.262H231.748V454.912H236.803L236.188 455.452C236.168 455.012 236.083 454.642 235.933 454.342C235.783 454.042 235.568 453.812 235.288 453.652C235.018 453.492 234.683 453.412 234.283 453.412C233.863 453.412 233.498 453.502 233.188 453.682C232.878 453.862 232.638 454.117 232.468 454.447C232.298 454.767 232.213 455.152 232.213 455.602C232.213 456.052 232.303 456.447 232.483 456.787C232.663 457.127 232.918 457.392 233.248 457.582C233.578 457.762 233.958 457.852 234.388 457.852C234.758 457.852 235.098 457.787 235.408 457.657C235.728 457.527 235.998 457.337 236.218 457.087L237.268 458.152C236.918 458.562 236.493 458.872 235.993 459.082C235.493 459.292 234.963 459.397 234.403 459.397ZM242.085 459.397C241.435 459.397 240.845 459.232 240.315 458.902C239.795 458.572 239.38 458.127 239.07 457.567C238.77 456.997 238.62 456.362 238.62 455.662C238.62 454.952 238.77 454.317 239.07 453.757C239.38 453.187 239.795 452.737 240.315 452.407C240.845 452.067 241.435 451.897 242.085 451.897C242.635 451.897 243.12 452.017 243.54 452.257C243.97 452.487 244.31 452.807 244.56 453.217C244.81 453.627 244.935 454.092 244.935 454.612V456.682C244.935 457.202 244.81 457.667 244.56 458.077C244.32 458.487 243.985 458.812 243.555 459.052C243.125 459.282 242.635 459.397 242.085 459.397ZM242.355 457.837C242.965 457.837 243.455 457.632 243.825 457.222C244.205 456.812 244.395 456.287 244.395 455.647C244.395 455.217 244.31 454.837 244.14 454.507C243.97 454.177 243.73 453.922 243.42 453.742C243.12 453.552 242.765 453.457 242.355 453.457C241.955 453.457 241.6 453.552 241.29 453.742C240.99 453.922 240.75 454.177 240.57 454.507C240.4 454.837 240.315 455.217 240.315 455.647C240.315 456.077 240.4 456.457 240.57 456.787C240.75 457.117 240.99 457.377 241.29 457.567C241.6 457.747 241.955 457.837 242.355 457.837ZM244.29 459.247V457.312L244.575 455.557L244.29 453.817V452.047H245.94V459.247H244.29ZM247.771 459.247V452.047H249.421V459.247H247.771ZM249.421 455.242L248.851 454.957C248.851 454.047 249.051 453.312 249.451 452.752C249.861 452.182 250.476 451.897 251.296 451.897C251.656 451.897 251.981 451.962 252.271 452.092C252.561 452.222 252.831 452.432 253.081 452.722L252.001 453.832C251.871 453.692 251.726 453.592 251.566 453.532C251.406 453.472 251.221 453.442 251.011 453.442C250.551 453.442 250.171 453.587 249.871 453.877C249.571 454.167 249.421 454.622 249.421 455.242ZM256.975 459.397C256.265 459.397 255.62 459.232 255.04 458.902C254.47 458.572 254.02 458.122 253.69 457.552C253.36 456.982 253.195 456.347 253.195 455.647C253.195 454.937 253.36 454.302 253.69 453.742C254.02 453.172 254.47 452.722 255.04 452.392C255.62 452.062 256.265 451.897 256.975 451.897C257.535 451.897 258.055 452.007 258.535 452.227C259.025 452.437 259.44 452.742 259.78 453.142L258.7 454.237C258.49 453.987 258.235 453.802 257.935 453.682C257.645 453.552 257.325 453.487 256.975 453.487C256.565 453.487 256.2 453.582 255.88 453.772C255.57 453.952 255.325 454.202 255.145 454.522C254.975 454.842 254.89 455.217 254.89 455.647C254.89 456.067 254.975 456.442 255.145 456.772C255.325 457.092 255.57 457.347 255.88 457.537C256.2 457.717 256.565 457.807 256.975 457.807C257.325 457.807 257.645 457.747 257.935 457.627C258.235 457.497 258.49 457.307 258.7 457.057L259.78 458.152C259.44 458.552 259.025 458.862 258.535 459.082C258.055 459.292 257.535 459.397 256.975 459.397ZM265.905 459.247V455.092C265.905 454.612 265.75 454.217 265.44 453.907C265.14 453.597 264.75 453.442 264.27 453.442C263.95 453.442 263.665 453.512 263.415 453.652C263.165 453.792 262.97 453.987 262.83 454.237C262.69 454.487 262.62 454.772 262.62 455.092L261.975 454.732C261.975 454.182 262.095 453.697 262.335 453.277C262.575 452.847 262.905 452.512 263.325 452.272C263.755 452.022 264.235 451.897 264.765 451.897C265.305 451.897 265.785 452.017 266.205 452.257C266.625 452.497 266.955 452.832 267.195 453.262C267.435 453.682 267.555 454.172 267.555 454.732V459.247H265.905ZM260.97 459.247V448.447H262.62V459.247H260.97ZM272.459 459.247V448.747H274.184V459.247H272.459ZM273.644 459.247V457.672H279.524V459.247H273.644ZM273.644 454.642V453.127H279.014V454.642H273.644ZM273.644 450.322V448.747H279.449V450.322H273.644ZM286.017 459.247V455.092C286.017 454.612 285.862 454.217 285.552 453.907C285.252 453.597 284.862 453.442 284.382 453.442C284.062 453.442 283.777 453.512 283.527 453.652C283.277 453.792 283.082 453.987 282.942 454.237C282.802 454.487 282.732 454.772 282.732 455.092L282.087 454.732C282.087 454.182 282.207 453.697 282.447 453.277C282.687 452.847 283.017 452.512 283.437 452.272C283.867 452.022 284.347 451.897 284.877 451.897C285.417 451.897 285.897 452.037 286.317 452.317C286.737 452.587 287.067 452.942 287.307 453.382C287.547 453.812 287.667 454.262 287.667 454.732V459.247H286.017ZM281.082 459.247V452.047H282.732V459.247H281.082ZM292.344 462.397C291.584 462.397 290.919 462.257 290.349 461.977C289.779 461.707 289.319 461.322 288.969 460.822L290.049 459.742C290.339 460.102 290.669 460.372 291.039 460.552C291.409 460.732 291.854 460.822 292.374 460.822C293.024 460.822 293.539 460.652 293.919 460.312C294.299 459.982 294.489 459.527 294.489 458.947V457.177L294.774 455.587L294.489 453.982V452.047H296.139V458.947C296.139 459.637 295.979 460.237 295.659 460.747C295.339 461.267 294.894 461.672 294.324 461.962C293.754 462.252 293.094 462.397 292.344 462.397ZM292.269 459.097C291.629 459.097 291.049 458.942 290.529 458.632C290.019 458.312 289.614 457.877 289.314 457.327C289.024 456.777 288.879 456.162 288.879 455.482C288.879 454.802 289.024 454.192 289.314 453.652C289.614 453.112 290.019 452.687 290.529 452.377C291.049 452.057 291.629 451.897 292.269 451.897C292.839 451.897 293.339 452.012 293.769 452.242C294.199 452.472 294.534 452.792 294.774 453.202C295.014 453.602 295.134 454.072 295.134 454.612V456.382C295.134 456.912 295.009 457.382 294.759 457.792C294.519 458.202 294.184 458.522 293.754 458.752C293.324 458.982 292.829 459.097 292.269 459.097ZM292.599 457.537C292.999 457.537 293.349 457.452 293.649 457.282C293.949 457.112 294.179 456.877 294.339 456.577C294.509 456.267 294.594 455.907 294.594 455.497C294.594 455.087 294.509 454.732 294.339 454.432C294.179 454.122 293.949 453.882 293.649 453.712C293.349 453.542 292.999 453.457 292.599 453.457C292.199 453.457 291.844 453.542 291.534 453.712C291.234 453.882 290.999 454.122 290.829 454.432C290.659 454.732 290.574 455.087 290.574 455.497C290.574 455.897 290.659 456.252 290.829 456.562C290.999 456.872 291.234 457.112 291.534 457.282C291.844 457.452 292.199 457.537 292.599 457.537ZM297.987 459.247V452.047H299.637V459.247H297.987ZM298.812 450.727C298.532 450.727 298.297 450.632 298.107 450.442C297.927 450.252 297.837 450.017 297.837 449.737C297.837 449.457 297.927 449.222 298.107 449.032C298.297 448.842 298.532 448.747 298.812 448.747C299.102 448.747 299.337 448.842 299.517 449.032C299.697 449.222 299.787 449.457 299.787 449.737C299.787 450.017 299.697 450.252 299.517 450.442C299.337 450.632 299.102 450.727 298.812 450.727ZM306.422 459.247V455.092C306.422 454.612 306.267 454.217 305.957 453.907C305.657 453.597 305.267 453.442 304.787 453.442C304.467 453.442 304.182 453.512 303.932 453.652C303.682 453.792 303.487 453.987 303.347 454.237C303.207 454.487 303.137 454.772 303.137 455.092L302.492 454.732C302.492 454.182 302.612 453.697 302.852 453.277C303.092 452.847 303.422 452.512 303.842 452.272C304.272 452.022 304.752 451.897 305.282 451.897C305.822 451.897 306.302 452.037 306.722 452.317C307.142 452.587 307.472 452.942 307.712 453.382C307.952 453.812 308.072 454.262 308.072 454.732V459.247H306.422ZM301.487 459.247V452.047H303.137V459.247H301.487ZM313.094 459.397C312.374 459.397 311.724 459.237 311.144 458.917C310.574 458.587 310.119 458.137 309.779 457.567C309.449 456.997 309.284 456.357 309.284 455.647C309.284 454.937 309.449 454.302 309.779 453.742C310.109 453.172 310.554 452.722 311.114 452.392C311.684 452.062 312.314 451.897 313.004 451.897C313.674 451.897 314.264 452.052 314.774 452.362C315.294 452.672 315.699 453.097 315.989 453.637C316.289 454.177 316.439 454.792 316.439 455.482C316.439 455.602 316.429 455.727 316.409 455.857C316.399 455.977 316.379 456.112 316.349 456.262H310.439V454.912H315.494L314.879 455.452C314.859 455.012 314.774 454.642 314.624 454.342C314.474 454.042 314.259 453.812 313.979 453.652C313.709 453.492 313.374 453.412 312.974 453.412C312.554 453.412 312.189 453.502 311.879 453.682C311.569 453.862 311.329 454.117 311.159 454.447C310.989 454.767 310.904 455.152 310.904 455.602C310.904 456.052 310.994 456.447 311.174 456.787C311.354 457.127 311.609 457.392 311.939 457.582C312.269 457.762 312.649 457.852 313.079 457.852C313.449 457.852 313.789 457.787 314.099 457.657C314.419 457.527 314.689 457.337 314.909 457.087L315.959 458.152C315.609 458.562 315.184 458.872 314.684 459.082C314.184 459.292 313.654 459.397 313.094 459.397Z" fill="black"/><path d="M212.658 477.144L209.208 466.644H210.903L213.498 474.729H213.048L215.583 466.644H216.783L219.318 474.729H218.868L221.463 466.644H223.158L219.708 477.144H218.508L215.958 469.074H216.408L213.858 477.144H212.658ZM226.76 477.294C226.04 477.294 225.39 477.134 224.81 476.814C224.24 476.484 223.785 476.034 223.445 475.464C223.115 474.894 222.95 474.254 222.95 473.544C222.95 472.834 223.115 472.199 223.445 471.639C223.775 471.069 224.22 470.619 224.78 470.289C225.35 469.959 225.98 469.794 226.67 469.794C227.34 469.794 227.93 469.949 228.44 470.259C228.96 470.569 229.365 470.994 229.655 471.534C229.955 472.074 230.105 472.689 230.105 473.379C230.105 473.499 230.095 473.624 230.075 473.754C230.065 473.874 230.045 474.009 230.015 474.159H224.105V472.809H229.16L228.545 473.349C228.525 472.909 228.44 472.539 228.29 472.239C228.14 471.939 227.925 471.709 227.645 471.549C227.375 471.389 227.04 471.309 226.64 471.309C226.22 471.309 225.855 471.399 225.545 471.579C225.235 471.759 224.995 472.014 224.825 472.344C224.655 472.664 224.57 473.049 224.57 473.499C224.57 473.949 224.66 474.344 224.84 474.684C225.02 475.024 225.275 475.289 225.605 475.479C225.935 475.659 226.315 475.749 226.745 475.749C227.115 475.749 227.455 475.684 227.765 475.554C228.085 475.424 228.355 475.234 228.575 474.984L229.625 476.049C229.275 476.459 228.85 476.769 228.35 476.979C227.85 477.189 227.32 477.294 226.76 477.294ZM235.283 477.294C234.733 477.294 234.243 477.179 233.813 476.949C233.383 476.709 233.043 476.384 232.793 475.974C232.553 475.564 232.433 475.099 232.433 474.579V472.509C232.433 471.989 232.558 471.524 232.808 471.114C233.058 470.704 233.398 470.384 233.828 470.154C234.258 469.914 234.743 469.794 235.283 469.794C235.933 469.794 236.518 469.964 237.038 470.304C237.568 470.634 237.983 471.084 238.283 471.654C238.593 472.214 238.748 472.849 238.748 473.559C238.748 474.259 238.593 474.894 238.283 475.464C237.983 476.024 237.568 476.469 237.038 476.799C236.518 477.129 235.933 477.294 235.283 477.294ZM231.428 477.144V466.344H233.078V471.714L232.793 473.454L233.078 475.209V477.144H231.428ZM235.013 475.734C235.413 475.734 235.763 475.644 236.063 475.464C236.373 475.274 236.613 475.014 236.783 474.684C236.963 474.354 237.053 473.974 237.053 473.544C237.053 473.114 236.963 472.734 236.783 472.404C236.613 472.074 236.373 471.819 236.063 471.639C235.763 471.449 235.413 471.354 235.013 471.354C234.613 471.354 234.258 471.449 233.948 471.639C233.638 471.819 233.398 472.074 233.228 472.404C233.058 472.734 232.973 473.114 232.973 473.544C232.973 473.974 233.058 474.354 233.228 474.684C233.398 475.014 233.638 475.274 233.948 475.464C234.258 475.644 234.613 475.734 235.013 475.734ZM242.484 477.294C242.084 477.294 241.699 477.244 241.329 477.144C240.959 477.034 240.619 476.884 240.309 476.694C239.999 476.494 239.729 476.254 239.499 475.974L240.549 474.924C240.799 475.214 241.084 475.434 241.404 475.584C241.734 475.724 242.104 475.794 242.514 475.794C242.884 475.794 243.164 475.739 243.354 475.629C243.544 475.519 243.639 475.359 243.639 475.149C243.639 474.929 243.549 474.759 243.369 474.639C243.189 474.519 242.954 474.419 242.664 474.339C242.384 474.249 242.084 474.159 241.764 474.069C241.454 473.979 241.154 473.859 240.864 473.709C240.584 473.549 240.354 473.334 240.174 473.064C239.994 472.794 239.904 472.444 239.904 472.014C239.904 471.554 240.009 471.159 240.219 470.829C240.439 470.499 240.744 470.244 241.134 470.064C241.534 469.884 242.009 469.794 242.559 469.794C243.139 469.794 243.649 469.899 244.089 470.109C244.539 470.309 244.914 470.614 245.214 471.024L244.164 472.074C243.954 471.814 243.714 471.619 243.444 471.489C243.174 471.359 242.864 471.294 242.514 471.294C242.184 471.294 241.929 471.344 241.749 471.444C241.569 471.544 241.479 471.689 241.479 471.879C241.479 472.079 241.569 472.234 241.749 472.344C241.929 472.454 242.159 472.549 242.439 472.629C242.729 472.709 243.029 472.799 243.339 472.899C243.659 472.989 243.959 473.119 244.239 473.289C244.529 473.449 244.764 473.669 244.944 473.949C245.124 474.219 245.214 474.574 245.214 475.014C245.214 475.714 244.969 476.269 244.479 476.679C243.989 477.089 243.324 477.294 242.484 477.294ZM246.589 477.144V469.944H248.239V477.144H246.589ZM247.414 468.624C247.134 468.624 246.899 468.529 246.709 468.339C246.529 468.149 246.439 467.914 246.439 467.634C246.439 467.354 246.529 467.119 246.709 466.929C246.899 466.739 247.134 466.644 247.414 466.644C247.704 466.644 247.939 466.739 248.119 466.929C248.299 467.119 248.389 467.354 248.389 467.634C248.389 467.914 248.299 468.149 248.119 468.339C247.939 468.529 247.704 468.624 247.414 468.624ZM251.185 477.144V466.944H252.835V477.144H251.185ZM249.46 471.444V469.944H254.56V471.444H249.46ZM258.899 477.294C258.179 477.294 257.529 477.134 256.949 476.814C256.379 476.484 255.924 476.034 255.584 475.464C255.254 474.894 255.089 474.254 255.089 473.544C255.089 472.834 255.254 472.199 255.584 471.639C255.914 471.069 256.359 470.619 256.919 470.289C257.489 469.959 258.119 469.794 258.809 469.794C259.479 469.794 260.069 469.949 260.579 470.259C261.099 470.569 261.504 470.994 261.794 471.534C262.094 472.074 262.244 472.689 262.244 473.379C262.244 473.499 262.234 473.624 262.214 473.754C262.204 473.874 262.184 474.009 262.154 474.159H256.244V472.809H261.299L260.684 473.349C260.664 472.909 260.579 472.539 260.429 472.239C260.279 471.939 260.064 471.709 259.784 471.549C259.514 471.389 259.179 471.309 258.779 471.309C258.359 471.309 257.994 471.399 257.684 471.579C257.374 471.759 257.134 472.014 256.964 472.344C256.794 472.664 256.709 473.049 256.709 473.499C256.709 473.949 256.799 474.344 256.979 474.684C257.159 475.024 257.414 475.289 257.744 475.479C258.074 475.659 258.454 475.749 258.884 475.749C259.254 475.749 259.594 475.684 259.904 475.554C260.224 475.424 260.494 475.234 260.714 474.984L261.764 476.049C261.414 476.459 260.989 476.769 260.489 476.979C259.989 477.189 259.459 477.294 258.899 477.294ZM262.786 477.744L266.986 466.044H268.531L264.331 477.744H262.786ZM268.167 477.144L272.487 466.644H273.687L277.977 477.144H276.117L272.757 468.639H273.387L269.997 477.144H268.167ZM270.297 475.119V473.619H275.862V475.119H270.297ZM283.11 477.294C282.56 477.294 282.07 477.179 281.64 476.949C281.21 476.709 280.87 476.384 280.62 475.974C280.38 475.564 280.26 475.099 280.26 474.579V472.509C280.26 471.989 280.385 471.524 280.635 471.114C280.885 470.704 281.225 470.384 281.655 470.154C282.085 469.914 282.57 469.794 283.11 469.794C283.76 469.794 284.345 469.964 284.865 470.304C285.395 470.634 285.81 471.084 286.11 471.654C286.42 472.214 286.575 472.849 286.575 473.559C286.575 474.259 286.42 474.894 286.11 475.464C285.81 476.024 285.395 476.469 284.865 476.799C284.345 477.129 283.76 477.294 283.11 477.294ZM279.255 480.144V469.944H280.905V471.879L280.62 473.634L280.905 475.374V480.144H279.255ZM282.84 475.734C283.24 475.734 283.59 475.644 283.89 475.464C284.2 475.274 284.44 475.014 284.61 474.684C284.79 474.354 284.88 473.974 284.88 473.544C284.88 473.114 284.79 472.734 284.61 472.404C284.44 472.074 284.2 471.819 283.89 471.639C283.59 471.449 283.24 471.354 282.84 471.354C282.44 471.354 282.085 471.449 281.775 471.639C281.465 471.819 281.225 472.074 281.055 472.404C280.885 472.734 280.8 473.114 280.8 473.544C280.8 473.974 280.885 474.354 281.055 474.684C281.225 475.014 281.465 475.274 281.775 475.464C282.085 475.644 282.44 475.734 282.84 475.734ZM291.811 477.294C291.261 477.294 290.771 477.179 290.341 476.949C289.911 476.709 289.571 476.384 289.321 475.974C289.081 475.564 288.961 475.099 288.961 474.579V472.509C288.961 471.989 289.086 471.524 289.336 471.114C289.586 470.704 289.926 470.384 290.356 470.154C290.786 469.914 291.271 469.794 291.811 469.794C292.461 469.794 293.046 469.964 293.566 470.304C294.096 470.634 294.511 471.084 294.811 471.654C295.121 472.214 295.276 472.849 295.276 473.559C295.276 474.259 295.121 474.894 294.811 475.464C294.511 476.024 294.096 476.469 293.566 476.799C293.046 477.129 292.461 477.294 291.811 477.294ZM287.956 480.144V469.944H289.606V471.879L289.321 473.634L289.606 475.374V480.144H287.956ZM291.541 475.734C291.941 475.734 292.291 475.644 292.591 475.464C292.901 475.274 293.141 475.014 293.311 474.684C293.491 474.354 293.581 473.974 293.581 473.544C293.581 473.114 293.491 472.734 293.311 472.404C293.141 472.074 292.901 471.819 292.591 471.639C292.291 471.449 291.941 471.354 291.541 471.354C291.141 471.354 290.786 471.449 290.476 471.639C290.166 471.819 289.926 472.074 289.756 472.404C289.586 472.734 289.501 473.114 289.501 473.544C289.501 473.974 289.586 474.354 289.756 474.684C289.926 475.014 290.166 475.274 290.476 475.464C290.786 475.644 291.141 475.734 291.541 475.734Z" fill="black"/><path d="M263.347 427.508C261.521 434.18 254.147 436.877 248.716 435.301C249.508 434.519 250.266 433.744 251.062 433.015C251.265 432.905 251.497 432.862 251.726 432.892C254.047 432.96 256.312 432.177 258.09 430.692C258.99 429.934 259.72 428.998 260.235 427.944C260.374 427.701 260.446 427.426 260.444 427.147C260.442 426.868 260.366 426.594 260.224 426.353C259.924 425.84 259.624 425.332 259.324 424.824L261.299 422.88C262.283 424.008 262.984 425.353 263.344 426.802L263.347 427.508Z" fill="black"/><path d="M251.848 431.494C251.347 431.415 250.852 431.303 250.365 431.161C250.239 431.102 250.096 431.088 249.96 431.122C249.824 431.155 249.705 431.235 249.621 431.346C247.835 433.141 246.04 434.927 244.237 436.706C244.061 436.905 243.831 437.047 243.574 437.116C243.317 437.185 243.046 437.178 242.793 437.095C242.536 437.026 242.305 436.885 242.126 436.688C241.948 436.492 241.831 436.248 241.788 435.987C241.743 435.735 241.766 435.477 241.853 435.237C241.941 434.997 242.091 434.785 242.288 434.621C244.064 432.864 245.828 431.096 247.61 429.344C247.721 429.26 247.799 429.141 247.832 429.006C247.865 428.872 247.851 428.73 247.791 428.605C247.515 427.843 247.462 427.019 247.639 426.228C247.816 425.438 248.214 424.713 248.789 424.139C249.363 423.566 250.09 423.166 250.884 422.986C251.679 422.807 252.508 422.856 253.275 423.126C253.409 423.187 253.56 423.201 253.703 423.165C253.846 423.128 253.972 423.045 254.06 422.928C255.834 421.145 257.623 419.377 259.408 417.604C259.59 417.407 259.824 417.264 260.083 417.193C260.342 417.121 260.617 417.123 260.875 417.2C261.133 417.276 261.364 417.422 261.542 417.623C261.72 417.824 261.837 418.07 261.881 418.334C261.922 418.577 261.898 418.827 261.812 419.059C261.726 419.29 261.581 419.495 261.39 419.653C259.615 421.412 257.85 423.18 256.068 424.931C255.951 425.02 255.868 425.146 255.834 425.289C255.799 425.431 255.815 425.581 255.879 425.714C256.109 426.361 256.181 427.054 256.09 427.735C255.998 428.415 255.745 429.065 255.351 429.629C254.957 430.194 254.435 430.657 253.826 430.981C253.217 431.306 252.539 431.481 251.848 431.494ZM251.84 428.596C252.13 428.595 252.412 428.508 252.652 428.347C252.891 428.186 253.077 427.957 253.186 427.69C253.294 427.424 253.32 427.131 253.261 426.849C253.201 426.568 253.059 426.31 252.851 426.11C252.644 425.909 252.382 425.774 252.097 425.722C251.812 425.671 251.519 425.704 251.253 425.819C250.988 425.934 250.763 426.125 250.607 426.367C250.452 426.61 250.372 426.893 250.378 427.18C250.399 427.556 250.561 427.91 250.831 428.173C251.102 428.435 251.462 428.588 251.84 428.599V428.596Z" fill="black"/><path d="M244.33 429.471L242.348 431.429C241.307 430.289 240.617 428.876 240.36 427.358C240.328 426.784 240.437 426.211 240.677 425.688C241.355 424.024 242.424 422.546 243.795 421.377C245.165 420.209 246.797 419.384 248.554 418.971C250.507 418.459 252.555 418.417 254.528 418.849C254.654 418.875 254.774 418.922 254.978 418.983C254.162 419.787 253.412 420.548 252.63 421.27C252.449 421.382 252.235 421.43 252.022 421.407C250.681 421.346 249.343 421.578 248.101 422.085C246.86 422.592 245.744 423.362 244.833 424.342C244.313 424.966 243.851 425.636 243.452 426.343C243.292 426.586 243.207 426.87 243.207 427.16C243.207 427.451 243.292 427.735 243.452 427.978C243.748 428.476 244.04 428.974 244.33 429.471Z" fill="black"/><path d="M215.829 379.817L212.379 369.317H214.074L216.669 377.402H216.219L218.754 369.317H219.954L222.489 377.402H222.039L224.634 369.317H226.329L222.879 379.817H221.679L219.129 371.747H219.579L217.029 379.817H215.829ZM232.576 379.817V375.662C232.576 375.182 232.421 374.787 232.111 374.477C231.811 374.167 231.421 374.012 230.941 374.012C230.621 374.012 230.336 374.082 230.086 374.222C229.836 374.362 229.641 374.557 229.501 374.807C229.361 375.057 229.291 375.342 229.291 375.662L228.646 375.302C228.646 374.752 228.766 374.267 229.006 373.847C229.246 373.417 229.576 373.082 229.996 372.842C230.426 372.592 230.906 372.467 231.436 372.467C231.976 372.467 232.456 372.587 232.876 372.827C233.296 373.067 233.626 373.402 233.866 373.832C234.106 374.252 234.226 374.742 234.226 375.302V379.817H232.576ZM227.641 379.817V369.017H229.291V379.817H227.641ZM235.917 379.817V372.617H237.567V379.817H235.917ZM236.742 371.297C236.462 371.297 236.227 371.202 236.037 371.012C235.857 370.822 235.767 370.587 235.767 370.307C235.767 370.027 235.857 369.792 236.037 369.602C236.227 369.412 236.462 369.317 236.742 369.317C237.032 369.317 237.267 369.412 237.447 369.602C237.627 369.792 237.717 370.027 237.717 370.307C237.717 370.587 237.627 370.822 237.447 371.012C237.267 371.202 237.032 371.297 236.742 371.297ZM240.513 379.817V369.617H242.163V379.817H240.513ZM238.788 374.117V372.617H243.888V374.117H238.788ZM248.227 379.967C247.507 379.967 246.857 379.807 246.277 379.487C245.707 379.157 245.252 378.707 244.912 378.137C244.582 377.567 244.417 376.927 244.417 376.217C244.417 375.507 244.582 374.872 244.912 374.312C245.242 373.742 245.687 373.292 246.247 372.962C246.817 372.632 247.447 372.467 248.137 372.467C248.807 372.467 249.397 372.622 249.907 372.932C250.427 373.242 250.832 373.667 251.122 374.207C251.422 374.747 251.572 375.362 251.572 376.052C251.572 376.172 251.562 376.297 251.542 376.427C251.532 376.547 251.512 376.682 251.482 376.832H245.572V375.482H250.627L250.012 376.022C249.992 375.582 249.907 375.212 249.757 374.912C249.607 374.612 249.392 374.382 249.112 374.222C248.842 374.062 248.507 373.982 248.107 373.982C247.687 373.982 247.322 374.072 247.012 374.252C246.702 374.432 246.462 374.687 246.292 375.017C246.122 375.337 246.037 375.722 246.037 376.172C246.037 376.622 246.127 377.017 246.307 377.357C246.487 377.697 246.742 377.962 247.072 378.152C247.402 378.332 247.782 378.422 248.212 378.422C248.582 378.422 248.922 378.357 249.232 378.227C249.552 378.097 249.822 377.907 250.042 377.657L251.092 378.722C250.742 379.132 250.317 379.442 249.817 379.652C249.317 379.862 248.787 379.967 248.227 379.967ZM256.122 379.817V369.317H257.847V379.817H256.122ZM257.307 379.817V378.242H262.797V379.817H257.307ZM266.91 379.967C266.26 379.967 265.67 379.802 265.14 379.472C264.62 379.142 264.205 378.697 263.895 378.137C263.595 377.567 263.445 376.932 263.445 376.232C263.445 375.522 263.595 374.887 263.895 374.327C264.205 373.757 264.62 373.307 265.14 372.977C265.67 372.637 266.26 372.467 266.91 372.467C267.46 372.467 267.945 372.587 268.365 372.827C268.795 373.057 269.135 373.377 269.385 373.787C269.635 374.197 269.76 374.662 269.76 375.182V377.252C269.76 377.772 269.635 378.237 269.385 378.647C269.145 379.057 268.81 379.382 268.38 379.622C267.95 379.852 267.46 379.967 266.91 379.967ZM267.18 378.407C267.79 378.407 268.28 378.202 268.65 377.792C269.03 377.382 269.22 376.857 269.22 376.217C269.22 375.787 269.135 375.407 268.965 375.077C268.795 374.747 268.555 374.492 268.245 374.312C267.945 374.122 267.59 374.027 267.18 374.027C266.78 374.027 266.425 374.122 266.115 374.312C265.815 374.492 265.575 374.747 265.395 375.077C265.225 375.407 265.14 375.787 265.14 376.217C265.14 376.647 265.225 377.027 265.395 377.357C265.575 377.687 265.815 377.947 266.115 378.137C266.425 378.317 266.78 378.407 267.18 378.407ZM269.115 379.817V377.882L269.4 376.127L269.115 374.387V372.617H270.765V379.817H269.115ZM276.452 379.967C275.902 379.967 275.412 379.852 274.982 379.622C274.552 379.382 274.212 379.057 273.962 378.647C273.722 378.237 273.602 377.772 273.602 377.252V375.182C273.602 374.662 273.727 374.197 273.977 373.787C274.227 373.377 274.567 373.057 274.997 372.827C275.427 372.587 275.912 372.467 276.452 372.467C277.102 372.467 277.687 372.637 278.207 372.977C278.737 373.307 279.152 373.757 279.452 374.327C279.762 374.887 279.917 375.522 279.917 376.232C279.917 376.932 279.762 377.567 279.452 378.137C279.152 378.697 278.737 379.142 278.207 379.472C277.687 379.802 277.102 379.967 276.452 379.967ZM272.597 379.817V369.017H274.247V374.387L273.962 376.127L274.247 377.882V379.817H272.597ZM276.182 378.407C276.582 378.407 276.932 378.317 277.232 378.137C277.542 377.947 277.782 377.687 277.952 377.357C278.132 377.027 278.222 376.647 278.222 376.217C278.222 375.787 278.132 375.407 277.952 375.077C277.782 374.747 277.542 374.492 277.232 374.312C276.932 374.122 276.582 374.027 276.182 374.027C275.782 374.027 275.427 374.122 275.117 374.312C274.807 374.492 274.567 374.747 274.397 375.077C274.227 375.407 274.142 375.787 274.142 376.217C274.142 376.647 274.227 377.027 274.397 377.357C274.567 377.687 274.807 377.947 275.117 378.137C275.427 378.317 275.782 378.407 276.182 378.407ZM284.643 379.967C283.923 379.967 283.273 379.807 282.693 379.487C282.123 379.157 281.668 378.707 281.328 378.137C280.998 377.567 280.833 376.927 280.833 376.217C280.833 375.507 280.998 374.872 281.328 374.312C281.658 373.742 282.103 373.292 282.663 372.962C283.233 372.632 283.863 372.467 284.553 372.467C285.223 372.467 285.813 372.622 286.323 372.932C286.843 373.242 287.248 373.667 287.538 374.207C287.838 374.747 287.988 375.362 287.988 376.052C287.988 376.172 287.978 376.297 287.958 376.427C287.948 376.547 287.928 376.682 287.898 376.832H281.988V375.482H287.043L286.428 376.022C286.408 375.582 286.323 375.212 286.173 374.912C286.023 374.612 285.808 374.382 285.528 374.222C285.258 374.062 284.923 373.982 284.523 373.982C284.103 373.982 283.738 374.072 283.428 374.252C283.118 374.432 282.878 374.687 282.708 375.017C282.538 375.337 282.453 375.722 282.453 376.172C282.453 376.622 282.543 377.017 282.723 377.357C282.903 377.697 283.158 377.962 283.488 378.152C283.818 378.332 284.198 378.422 284.628 378.422C284.998 378.422 285.338 378.357 285.648 378.227C285.968 378.097 286.238 377.907 286.458 377.657L287.508 378.722C287.158 379.132 286.733 379.442 286.233 379.652C285.733 379.862 285.203 379.967 284.643 379.967ZM289.311 379.817V369.017H290.961V379.817H289.311Z" fill="black"/><path d="M264.06 342.543C263.813 342.89 263.546 343.222 263.26 343.537C259.408 347.389 255.538 351.223 251.699 355.088C251.445 355.334 251.104 355.472 250.749 355.472C250.394 355.472 250.054 355.334 249.799 355.088C247.025 352.279 244.229 349.492 241.412 346.726C241.186 346.483 241.06 346.164 241.059 345.832C241.058 345.501 241.182 345.181 241.407 344.936C245.407 340.974 249.4 337.003 253.385 333.021C253.557 332.873 253.74 332.738 253.933 332.618H263.338C263.501 332.666 263.651 332.75 263.776 332.865C263.901 332.98 263.997 333.122 264.057 333.28L264.06 342.543ZM243.284 345.765L250.779 353.234C250.828 353.187 250.895 353.126 250.96 353.062C254.678 349.362 258.394 345.66 262.109 341.958C262.216 341.841 262.277 341.69 262.283 341.533C262.293 339.246 262.29 336.959 262.29 334.672C262.29 334.584 262.282 334.495 262.276 334.387H261.959C259.673 334.387 257.386 334.387 255.1 334.382C254.997 334.376 254.894 334.394 254.798 334.433C254.702 334.471 254.616 334.531 254.546 334.607C250.873 338.274 247.196 341.936 243.515 345.595C243.443 345.657 243.366 345.714 243.284 345.765Z" fill="black"/><path d="M264.06 333.282C264 333.124 263.904 332.982 263.779 332.867C263.654 332.752 263.504 332.668 263.341 332.62H264.06V333.282Z" fill="black"/><path d="M256.982 341.44C256.631 341.441 256.289 341.338 255.997 341.144C255.705 340.95 255.478 340.674 255.345 340.352C255.211 340.03 255.177 339.675 255.246 339.333C255.316 338.992 255.486 338.678 255.735 338.433C255.984 338.187 256.3 338.021 256.645 337.955C256.989 337.888 257.345 337.926 257.668 338.061C257.991 338.197 258.267 338.425 258.459 338.716C258.652 339.008 258.752 339.35 258.749 339.698C258.742 340.161 258.553 340.602 258.222 340.927C257.892 341.253 257.447 341.437 256.982 341.44Z" fill="black"/><path d="M201.829 294.922L198.379 284.422H200.074L202.669 292.507H202.219L204.754 284.422H205.954L208.489 292.507H208.039L210.634 284.422H212.329L208.879 294.922H207.679L205.129 286.852H205.579L203.029 294.922H201.829ZM215.931 295.072C215.211 295.072 214.561 294.912 213.981 294.592C213.411 294.262 212.956 293.812 212.616 293.242C212.286 292.672 212.121 292.032 212.121 291.322C212.121 290.612 212.286 289.977 212.616 289.417C212.946 288.847 213.391 288.397 213.951 288.067C214.521 287.737 215.151 287.572 215.841 287.572C216.511 287.572 217.101 287.727 217.611 288.037C218.131 288.347 218.536 288.772 218.826 289.312C219.126 289.852 219.276 290.467 219.276 291.157C219.276 291.277 219.266 291.402 219.246 291.532C219.236 291.652 219.216 291.787 219.186 291.937H213.276V290.587H218.331L217.716 291.127C217.696 290.687 217.611 290.317 217.461 290.017C217.311 289.717 217.096 289.487 216.816 289.327C216.546 289.167 216.211 289.087 215.811 289.087C215.391 289.087 215.026 289.177 214.716 289.357C214.406 289.537 214.166 289.792 213.996 290.122C213.826 290.442 213.741 290.827 213.741 291.277C213.741 291.727 213.831 292.122 214.011 292.462C214.191 292.802 214.446 293.067 214.776 293.257C215.106 293.437 215.486 293.527 215.916 293.527C216.286 293.527 216.626 293.462 216.936 293.332C217.256 293.202 217.526 293.012 217.746 292.762L218.796 293.827C218.446 294.237 218.021 294.547 217.521 294.757C217.021 294.967 216.491 295.072 215.931 295.072ZM224.454 295.072C223.904 295.072 223.414 294.957 222.984 294.727C222.554 294.487 222.214 294.162 221.964 293.752C221.724 293.342 221.604 292.877 221.604 292.357V290.287C221.604 289.767 221.729 289.302 221.979 288.892C222.229 288.482 222.569 288.162 222.999 287.932C223.429 287.692 223.914 287.572 224.454 287.572C225.104 287.572 225.689 287.742 226.209 288.082C226.739 288.412 227.154 288.862 227.454 289.432C227.764 289.992 227.919 290.627 227.919 291.337C227.919 292.037 227.764 292.672 227.454 293.242C227.154 293.802 226.739 294.247 226.209 294.577C225.689 294.907 225.104 295.072 224.454 295.072ZM220.599 294.922V284.122H222.249V289.492L221.964 291.232L222.249 292.987V294.922H220.599ZM224.184 293.512C224.584 293.512 224.934 293.422 225.234 293.242C225.544 293.052 225.784 292.792 225.954 292.462C226.134 292.132 226.224 291.752 226.224 291.322C226.224 290.892 226.134 290.512 225.954 290.182C225.784 289.852 225.544 289.597 225.234 289.417C224.934 289.227 224.584 289.132 224.184 289.132C223.784 289.132 223.429 289.227 223.119 289.417C222.809 289.597 222.569 289.852 222.399 290.182C222.229 290.512 222.144 290.892 222.144 291.322C222.144 291.752 222.229 292.132 222.399 292.462C222.569 292.792 222.809 293.052 223.119 293.242C223.429 293.422 223.784 293.512 224.184 293.512ZM235.453 295.072C234.623 295.072 233.918 294.922 233.338 294.622C232.758 294.322 232.238 293.882 231.778 293.302L232.948 292.132C233.238 292.552 233.583 292.882 233.983 293.122C234.383 293.352 234.893 293.467 235.513 293.467C236.093 293.467 236.553 293.347 236.893 293.107C237.243 292.867 237.418 292.537 237.418 292.117C237.418 291.767 237.328 291.482 237.148 291.262C236.968 291.042 236.728 290.862 236.428 290.722C236.138 290.572 235.813 290.442 235.453 290.332C235.103 290.212 234.748 290.082 234.388 289.942C234.038 289.792 233.713 289.607 233.413 289.387C233.123 289.167 232.888 288.882 232.708 288.532C232.528 288.182 232.438 287.737 232.438 287.197C232.438 286.577 232.588 286.052 232.888 285.622C233.198 285.182 233.613 284.847 234.133 284.617C234.653 284.387 235.233 284.272 235.873 284.272C236.563 284.272 237.178 284.407 237.718 284.677C238.268 284.947 238.713 285.292 239.053 285.712L237.883 286.882C237.583 286.542 237.268 286.292 236.938 286.132C236.618 285.962 236.248 285.877 235.828 285.877C235.308 285.877 234.898 285.982 234.598 286.192C234.308 286.402 234.163 286.697 234.163 287.077C234.163 287.397 234.253 287.657 234.433 287.857C234.613 288.047 234.848 288.212 235.138 288.352C235.438 288.482 235.763 288.607 236.113 288.727C236.473 288.847 236.828 288.982 237.178 289.132C237.538 289.282 237.863 289.477 238.153 289.717C238.453 289.947 238.693 290.247 238.873 290.617C239.053 290.987 239.143 291.452 239.143 292.012C239.143 292.952 238.808 293.697 238.138 294.247C237.478 294.797 236.583 295.072 235.453 295.072ZM243.895 295.072C243.175 295.072 242.525 294.912 241.945 294.592C241.375 294.262 240.92 293.812 240.58 293.242C240.25 292.672 240.085 292.032 240.085 291.322C240.085 290.612 240.25 289.977 240.58 289.417C240.91 288.847 241.355 288.397 241.915 288.067C242.485 287.737 243.115 287.572 243.805 287.572C244.475 287.572 245.065 287.727 245.575 288.037C246.095 288.347 246.5 288.772 246.79 289.312C247.09 289.852 247.24 290.467 247.24 291.157C247.24 291.277 247.23 291.402 247.21 291.532C247.2 291.652 247.18 291.787 247.15 291.937H241.24V290.587H246.295L245.68 291.127C245.66 290.687 245.575 290.317 245.425 290.017C245.275 289.717 245.06 289.487 244.78 289.327C244.51 289.167 244.175 289.087 243.775 289.087C243.355 289.087 242.99 289.177 242.68 289.357C242.37 289.537 242.13 289.792 241.96 290.122C241.79 290.442 241.705 290.827 241.705 291.277C241.705 291.727 241.795 292.122 241.975 292.462C242.155 292.802 242.41 293.067 242.74 293.257C243.07 293.437 243.45 293.527 243.88 293.527C244.25 293.527 244.59 293.462 244.9 293.332C245.22 293.202 245.49 293.012 245.71 292.762L246.76 293.827C246.41 294.237 245.985 294.547 245.485 294.757C244.985 294.967 244.455 295.072 243.895 295.072ZM248.562 294.922V287.722H250.212V294.922H248.562ZM250.212 290.917L249.642 290.632C249.642 289.722 249.842 288.987 250.242 288.427C250.652 287.857 251.267 287.572 252.087 287.572C252.447 287.572 252.772 287.637 253.062 287.767C253.352 287.897 253.622 288.107 253.872 288.397L252.792 289.507C252.662 289.367 252.517 289.267 252.357 289.207C252.197 289.147 252.012 289.117 251.802 289.117C251.342 289.117 250.962 289.262 250.662 289.552C250.362 289.842 250.212 290.297 250.212 290.917ZM256.998 294.922L253.713 287.722H255.543L258.048 293.587H256.968L259.488 287.722H261.243L257.958 294.922H256.998ZM262.23 294.922V287.722H263.88V294.922H262.23ZM263.055 286.402C262.775 286.402 262.54 286.307 262.35 286.117C262.17 285.927 262.08 285.692 262.08 285.412C262.08 285.132 262.17 284.897 262.35 284.707C262.54 284.517 262.775 284.422 263.055 284.422C263.345 284.422 263.58 284.517 263.76 284.707C263.94 284.897 264.03 285.132 264.03 285.412C264.03 285.692 263.94 285.927 263.76 286.117C263.58 286.307 263.345 286.402 263.055 286.402ZM269.045 295.072C268.335 295.072 267.69 294.907 267.11 294.577C266.54 294.247 266.09 293.797 265.76 293.227C265.43 292.657 265.265 292.022 265.265 291.322C265.265 290.612 265.43 289.977 265.76 289.417C266.09 288.847 266.54 288.397 267.11 288.067C267.69 287.737 268.335 287.572 269.045 287.572C269.605 287.572 270.125 287.682 270.605 287.902C271.095 288.112 271.51 288.417 271.85 288.817L270.77 289.912C270.56 289.662 270.305 289.477 270.005 289.357C269.715 289.227 269.395 289.162 269.045 289.162C268.635 289.162 268.27 289.257 267.95 289.447C267.64 289.627 267.395 289.877 267.215 290.197C267.045 290.517 266.96 290.892 266.96 291.322C266.96 291.742 267.045 292.117 267.215 292.447C267.395 292.767 267.64 293.022 267.95 293.212C268.27 293.392 268.635 293.482 269.045 293.482C269.395 293.482 269.715 293.422 270.005 293.302C270.305 293.172 270.56 292.982 270.77 292.732L271.85 293.827C271.51 294.227 271.095 294.537 270.605 294.757C270.125 294.967 269.605 295.072 269.045 295.072ZM276.239 295.072C275.519 295.072 274.869 294.912 274.289 294.592C273.719 294.262 273.264 293.812 272.924 293.242C272.594 292.672 272.429 292.032 272.429 291.322C272.429 290.612 272.594 289.977 272.924 289.417C273.254 288.847 273.699 288.397 274.259 288.067C274.829 287.737 275.459 287.572 276.149 287.572C276.819 287.572 277.409 287.727 277.919 288.037C278.439 288.347 278.844 288.772 279.134 289.312C279.434 289.852 279.584 290.467 279.584 291.157C279.584 291.277 279.574 291.402 279.554 291.532C279.544 291.652 279.524 291.787 279.494 291.937H273.584V290.587H278.639L278.024 291.127C278.004 290.687 277.919 290.317 277.769 290.017C277.619 289.717 277.404 289.487 277.124 289.327C276.854 289.167 276.519 289.087 276.119 289.087C275.699 289.087 275.334 289.177 275.024 289.357C274.714 289.537 274.474 289.792 274.304 290.122C274.134 290.442 274.049 290.827 274.049 291.277C274.049 291.727 274.139 292.122 274.319 292.462C274.499 292.802 274.754 293.067 275.084 293.257C275.414 293.437 275.794 293.527 276.224 293.527C276.594 293.527 276.934 293.462 277.244 293.332C277.564 293.202 277.834 293.012 278.054 292.762L279.104 293.827C278.754 294.237 278.329 294.547 277.829 294.757C277.329 294.967 276.799 295.072 276.239 295.072ZM282.929 294.922L287.249 284.422H288.449L292.739 294.922H290.879L287.519 286.417H288.149L284.759 294.922H282.929ZM285.059 292.897V291.397H290.624V292.897H285.059ZM295.309 290.962V289.462H297.934C298.294 289.462 298.609 289.392 298.879 289.252C299.159 289.102 299.379 288.897 299.539 288.637C299.699 288.367 299.779 288.052 299.779 287.692C299.779 287.332 299.699 287.022 299.539 286.762C299.379 286.492 299.159 286.287 298.879 286.147C298.609 285.997 298.294 285.922 297.934 285.922H295.309V284.422H298.024C298.684 284.422 299.274 284.557 299.794 284.827C300.324 285.097 300.739 285.477 301.039 285.967C301.349 286.457 301.504 287.032 301.504 287.692C301.504 288.352 301.349 288.927 301.039 289.417C300.739 289.907 300.324 290.287 299.794 290.557C299.274 290.827 298.684 290.962 298.024 290.962H295.309ZM294.124 294.922V284.422H295.849V294.922H294.124ZM303.06 294.922V284.422H304.785V294.922H303.06Z" fill="black"/><path d="M248.054 251.9C248.054 251.278 248.054 250.684 248.054 250.09C248.048 249.96 248.053 249.83 248.069 249.701C248.073 249.619 248.093 249.539 248.128 249.465C248.163 249.391 248.213 249.325 248.274 249.27C248.335 249.216 248.407 249.174 248.484 249.147C248.562 249.12 248.644 249.108 248.726 249.113C248.891 249.128 249.044 249.207 249.151 249.332C249.258 249.457 249.312 249.62 249.3 249.784C249.31 250.36 249.3 250.934 249.3 251.509V251.907C249.8 251.907 250.278 251.918 250.752 251.893C250.811 251.893 250.906 251.705 250.908 251.603C250.924 251.006 250.913 250.409 250.919 249.813C250.919 249.365 251.14 249.112 251.508 249.11C251.876 249.108 252.114 249.38 252.116 249.836C252.116 250.4 252.135 250.965 252.109 251.526C252.094 251.85 252.209 251.944 252.518 251.916C252.778 251.892 253.041 251.911 253.303 251.911C253.74 251.911 253.741 251.911 253.741 251.458C253.741 250.905 253.741 250.352 253.741 249.798C253.741 249.368 253.978 249.102 254.341 249.108C254.704 249.114 254.926 249.367 254.927 249.811C254.927 250.407 254.937 251.004 254.927 251.601C254.922 251.844 255.011 251.926 255.252 251.914C255.59 251.897 255.928 251.897 256.266 251.914C256.502 251.925 256.566 251.829 256.56 251.616C256.549 250.997 256.554 250.379 256.56 249.76C256.551 249.623 256.588 249.486 256.666 249.373C256.745 249.259 256.859 249.175 256.991 249.134C257.11 249.087 257.242 249.084 257.363 249.127C257.483 249.169 257.584 249.254 257.646 249.365C257.717 249.498 257.753 249.645 257.752 249.795C257.764 250.392 257.764 250.988 257.752 251.585C257.752 251.834 257.835 251.915 258.094 251.924C258.55 251.92 259.004 251.969 259.448 252.072C259.879 252.203 260.257 252.466 260.528 252.825C260.799 253.183 260.948 253.617 260.954 254.065C260.968 254.607 260.971 255.15 260.959 255.692C260.953 255.977 261.068 256.075 261.346 256.07C261.968 256.059 262.59 256.063 263.212 256.07C263.651 256.075 263.907 256.311 263.898 256.679C263.895 256.764 263.873 256.846 263.836 256.922C263.798 256.998 263.746 257.065 263.681 257.119C263.616 257.173 263.54 257.214 263.459 257.238C263.378 257.261 263.292 257.268 263.208 257.257C262.564 257.257 261.92 257.265 261.277 257.257C261.052 257.257 260.957 257.333 260.962 257.555C260.97 257.892 260.971 258.229 260.962 258.565C260.956 258.808 261.069 258.882 261.301 258.879C261.956 258.87 262.61 258.879 263.265 258.879C263.404 258.87 263.541 258.91 263.653 258.99C263.766 259.071 263.847 259.188 263.882 259.321C263.924 259.442 263.921 259.573 263.873 259.692C263.826 259.81 263.738 259.908 263.625 259.968C263.501 260.03 263.364 260.062 263.225 260.059C262.581 260.068 261.937 260.07 261.294 260.059C261.051 260.059 260.959 260.151 260.965 260.384C260.974 260.709 260.975 261.035 260.965 261.361C260.959 261.594 261.045 261.688 261.291 261.683C261.945 261.671 262.6 261.675 263.255 261.683C263.387 261.678 263.518 261.714 263.628 261.788C263.738 261.862 263.821 261.968 263.866 262.092C263.915 262.197 263.927 262.316 263.899 262.428C263.872 262.541 263.806 262.641 263.713 262.711C263.584 262.805 263.429 262.859 263.269 262.865C262.637 262.882 262.004 262.882 261.369 262.865C261.079 262.858 260.944 262.95 260.961 263.255C260.978 263.559 260.971 263.884 260.961 264.198C260.961 264.406 261.043 264.484 261.255 264.48C261.822 264.469 262.39 264.474 262.955 264.48C263.085 264.481 263.215 264.494 263.343 264.52C263.422 264.527 263.499 264.548 263.569 264.584C263.639 264.62 263.702 264.669 263.753 264.729C263.804 264.789 263.843 264.859 263.867 264.934C263.891 265.009 263.9 265.087 263.893 265.166C263.874 265.324 263.795 265.469 263.673 265.571C263.55 265.674 263.393 265.726 263.233 265.719C262.589 265.726 261.945 265.731 261.302 265.719C261.043 265.712 260.952 265.799 260.956 266.051C260.964 266.604 260.965 267.157 260.95 267.711C260.934 268.275 260.699 268.81 260.294 269.205C259.889 269.6 259.345 269.823 258.778 269.828C257.96 269.833 257.141 269.837 256.323 269.828C256.056 269.828 255.958 269.908 255.965 270.181C255.981 270.831 255.972 271.482 255.965 272.134C255.965 272.567 255.734 272.83 255.365 272.83C254.996 272.83 254.773 272.584 254.765 272.134C254.759 271.483 254.755 270.832 254.765 270.181C254.765 269.916 254.676 269.807 254.402 269.822C254.086 269.839 253.769 269.839 253.453 269.822C253.204 269.81 253.136 269.91 253.14 270.147C253.153 270.797 253.145 271.449 253.14 272.1C253.157 272.247 253.125 272.396 253.048 272.523C252.971 272.65 252.854 272.748 252.715 272.802C252.641 272.831 252.561 272.844 252.481 272.84C252.402 272.837 252.324 272.816 252.252 272.78C252.181 272.744 252.118 272.693 252.068 272.632C252.018 272.57 251.982 272.498 251.962 272.421C251.911 272.167 251.888 271.908 251.894 271.649C251.884 271.151 251.877 270.654 251.894 270.152C251.904 269.885 251.8 269.81 251.552 269.822C251.258 269.84 250.962 269.84 250.668 269.822C250.368 269.801 250.259 269.907 250.268 270.209C250.284 270.848 250.275 271.488 250.268 272.129C250.268 272.592 250.068 272.825 249.686 272.825C249.304 272.825 249.072 272.552 249.07 272.103C249.07 271.463 249.06 270.822 249.07 270.183C249.076 269.922 249.004 269.803 248.723 269.819C248.407 269.836 248.09 269.836 247.774 269.819C247.513 269.806 247.432 269.918 247.436 270.164C247.448 270.825 247.442 271.487 247.436 272.153C247.436 272.57 247.213 272.822 246.853 272.827C246.493 272.832 246.247 272.573 246.245 272.141C246.245 271.501 246.229 270.86 246.245 270.221C246.256 269.899 246.133 269.823 245.828 269.817C245.363 269.832 244.897 269.788 244.443 269.687C244.022 269.56 243.652 269.304 243.387 268.955C243.121 268.606 242.974 268.183 242.965 267.746C242.943 267.183 242.944 266.618 242.947 266.056C242.947 265.816 242.88 265.706 242.608 265.715C242.008 265.734 241.408 265.722 240.808 265.721C240.314 265.721 240.03 265.51 240.018 265.138C240.005 264.746 240.286 264.493 240.784 264.482C241.362 264.469 241.942 264.458 242.519 264.487C242.853 264.503 242.973 264.397 242.949 264.07C242.933 263.788 242.933 263.506 242.949 263.224C242.96 262.955 242.84 262.862 242.576 262.867C241.943 262.879 241.31 262.873 240.676 262.867C240.267 262.867 240.029 262.657 240.019 262.306C240.017 262.222 240.032 262.138 240.064 262.06C240.096 261.982 240.143 261.911 240.204 261.852C240.265 261.793 240.337 261.747 240.416 261.717C240.496 261.688 240.58 261.674 240.665 261.679C241.319 261.669 241.974 261.669 242.629 261.679C242.854 261.679 242.949 261.603 242.945 261.38C242.94 261.043 242.939 260.707 242.945 260.371C242.945 260.137 242.845 260.049 242.607 260.053C241.964 260.065 241.32 260.059 240.676 260.053C240.595 260.063 240.512 260.056 240.434 260.032C240.356 260.009 240.283 259.969 240.221 259.916C240.159 259.862 240.109 259.797 240.074 259.723C240.039 259.649 240.021 259.569 240.019 259.487C240.016 259.403 240.031 259.319 240.063 259.241C240.095 259.163 240.143 259.092 240.204 259.034C240.265 258.976 240.339 258.931 240.419 258.903C240.498 258.875 240.584 258.864 240.668 258.871C241.311 258.863 241.955 258.858 242.599 258.871C242.86 258.877 242.951 258.771 242.946 258.528C242.939 258.214 242.938 257.898 242.946 257.584C242.953 257.341 242.868 257.237 242.603 257.245C241.971 257.262 241.337 257.253 240.703 257.245C240.619 257.256 240.534 257.25 240.452 257.226C240.371 257.203 240.296 257.162 240.231 257.108C240.167 257.053 240.114 256.986 240.077 256.91C240.04 256.834 240.02 256.752 240.017 256.668C240.009 256.296 240.261 256.063 240.701 256.057C241.312 256.05 241.924 256.041 242.534 256.057C242.854 256.067 242.954 255.943 242.948 255.638C242.937 255.086 242.948 254.532 242.965 253.979C242.989 253.471 243.195 252.988 243.547 252.619C243.899 252.249 244.372 252.018 244.881 251.967C245.815 251.907 246.754 251.919 247.69 251.899C247.821 251.913 247.907 251.907 248.054 251.9ZM251.977 253.158H245.299C245.15 253.142 244.998 253.159 244.857 253.21C244.715 253.26 244.586 253.341 244.481 253.447C244.375 253.554 244.295 253.682 244.246 253.824C244.197 253.965 244.181 254.116 244.199 254.264C244.199 258.678 244.199 263.092 244.199 267.505C244.185 267.657 244.204 267.811 244.256 267.954C244.307 268.098 244.39 268.229 244.498 268.337C244.607 268.446 244.738 268.529 244.882 268.581C245.026 268.634 245.18 268.654 245.333 268.641C249.772 268.641 254.211 268.641 258.65 268.641C258.8 268.652 258.952 268.631 259.093 268.579C259.234 268.527 259.363 268.445 259.469 268.339C259.576 268.233 259.658 268.105 259.711 267.964C259.763 267.824 259.785 267.674 259.773 267.524C259.773 263.1 259.773 258.675 259.773 254.25C259.789 254.101 259.771 253.95 259.721 253.809C259.67 253.667 259.587 253.539 259.48 253.434C259.372 253.328 259.241 253.249 259.098 253.201C258.955 253.153 258.803 253.138 258.653 253.157L251.977 253.158Z" fill="black"/><path d="M251.155 262.598C250.953 262.612 250.749 262.609 250.547 262.588C250.494 262.573 250.446 262.545 250.406 262.507C250.366 262.469 250.335 262.423 250.317 262.371C250.2 261.703 249.782 261.526 249.17 261.632C249.149 261.633 249.127 261.633 249.105 261.632C248.337 261.632 248.337 261.632 248.058 262.345C247.944 262.635 247.816 262.67 247.216 262.553C247.374 262.146 247.527 261.746 247.684 261.347C248.003 260.53 248.335 259.718 248.638 258.895C248.664 258.795 248.728 258.71 248.817 258.658C248.905 258.605 249.011 258.589 249.111 258.613C249.341 258.629 249.568 258.56 249.691 258.881C250.136 260.044 250.613 261.194 251.077 262.35C251.099 262.413 251.121 262.486 251.155 262.598ZM249.799 261.079L249.213 259.502L249.102 259.513C248.935 259.965 248.762 260.414 248.609 260.87C248.592 260.92 248.686 261.069 248.734 261.069C249.063 261.085 249.393 261.076 249.799 261.076V261.079Z" fill="black"/><path d="M251.721 260.58C251.721 260.028 251.731 259.475 251.716 258.924C251.71 258.679 251.8 258.602 252.039 258.608C252.583 258.622 253.127 258.613 253.672 258.619C253.958 258.611 254.237 258.715 254.447 258.907C254.658 259.1 254.785 259.367 254.801 259.651C254.851 259.938 254.79 260.232 254.631 260.475C254.471 260.719 254.224 260.893 253.94 260.962C253.577 261.025 253.208 261.048 252.84 261.029C252.528 261.019 252.44 261.14 252.452 261.427C252.469 261.725 252.445 262.034 252.458 262.337C252.471 262.64 252.273 262.596 252.087 262.597C251.901 262.598 251.711 262.629 251.718 262.334C251.73 261.749 251.721 261.165 251.721 260.58ZM252.459 259.805C252.449 259.945 252.452 260.086 252.466 260.225C252.48 260.302 252.566 260.424 252.616 260.424C252.961 260.44 253.307 260.419 253.647 260.363C253.953 260.298 254.058 260.032 254.016 259.699C254.003 259.569 253.942 259.447 253.845 259.358C253.749 259.27 253.622 259.219 253.49 259.217C253.362 259.197 253.229 259.217 253.099 259.208C252.455 259.164 252.455 259.162 252.459 259.805Z" fill="black"/><path d="M256.309 260.643C256.309 261.194 256.296 261.747 256.315 262.299C256.325 262.597 256.164 262.597 255.945 262.597C255.726 262.597 255.566 262.603 255.57 262.299C255.583 261.162 255.583 260.024 255.57 258.888C255.57 258.576 255.754 258.605 255.956 258.603C256.158 258.601 256.321 258.596 256.314 258.881C256.299 259.472 256.309 260.058 256.309 260.643Z" fill="black"/><path d="M192.869 193.898V192.398H195.884C196.414 192.398 196.824 192.233 197.114 191.903C197.404 191.573 197.549 191.193 197.549 190.763C197.549 190.473 197.484 190.203 197.354 189.953C197.224 189.703 197.034 189.503 196.784 189.353C196.534 189.203 196.234 189.128 195.884 189.128H192.869V187.628H195.629C196.079 187.628 196.439 187.513 196.709 187.283C196.979 187.053 197.114 186.713 197.114 186.263C197.114 185.813 196.979 185.473 196.709 185.243C196.439 185.013 196.079 184.898 195.629 184.898H192.869V183.398H195.674C196.384 183.398 196.974 183.528 197.444 183.788C197.914 184.048 198.264 184.383 198.494 184.793C198.724 185.203 198.839 185.643 198.839 186.113C198.839 186.663 198.684 187.148 198.374 187.568C198.074 187.988 197.629 188.328 197.039 188.588L197.174 188.048C197.834 188.318 198.349 188.698 198.719 189.188C199.089 189.678 199.274 190.253 199.274 190.913C199.274 191.453 199.139 191.948 198.869 192.398C198.609 192.848 198.219 193.213 197.699 193.493C197.189 193.763 196.559 193.898 195.809 193.898H192.869ZM191.684 193.898V183.398H193.409V193.898H191.684ZM203.745 194.048C203.135 194.048 202.59 193.913 202.11 193.643C201.64 193.373 201.27 193.003 201 192.533C200.74 192.053 200.61 191.503 200.61 190.883V186.698H202.26V190.808C202.26 191.158 202.315 191.458 202.425 191.708C202.545 191.948 202.715 192.133 202.935 192.263C203.165 192.393 203.435 192.458 203.745 192.458C204.225 192.458 204.59 192.318 204.84 192.038C205.1 191.748 205.23 191.338 205.23 190.808V186.698H206.88V190.883C206.88 191.513 206.745 192.068 206.475 192.548C206.215 193.018 205.85 193.388 205.38 193.658C204.91 193.918 204.365 194.048 203.745 194.048ZM210.894 194.048C210.494 194.048 210.109 193.998 209.739 193.898C209.369 193.788 209.029 193.638 208.719 193.448C208.409 193.248 208.139 193.008 207.909 192.728L208.959 191.678C209.209 191.968 209.494 192.188 209.814 192.338C210.144 192.478 210.514 192.548 210.924 192.548C211.294 192.548 211.574 192.493 211.764 192.383C211.954 192.273 212.049 192.113 212.049 191.903C212.049 191.683 211.959 191.513 211.779 191.393C211.599 191.273 211.364 191.173 211.074 191.093C210.794 191.003 210.494 190.913 210.174 190.823C209.864 190.733 209.564 190.613 209.274 190.463C208.994 190.303 208.764 190.088 208.584 189.818C208.404 189.548 208.314 189.198 208.314 188.768C208.314 188.308 208.419 187.913 208.629 187.583C208.849 187.253 209.154 186.998 209.544 186.818C209.944 186.638 210.419 186.548 210.969 186.548C211.549 186.548 212.059 186.653 212.499 186.863C212.949 187.063 213.324 187.368 213.624 187.778L212.574 188.828C212.364 188.568 212.124 188.373 211.854 188.243C211.584 188.113 211.274 188.048 210.924 188.048C210.594 188.048 210.339 188.098 210.159 188.198C209.979 188.298 209.889 188.443 209.889 188.633C209.889 188.833 209.979 188.988 210.159 189.098C210.339 189.208 210.569 189.303 210.849 189.383C211.139 189.463 211.439 189.553 211.749 189.653C212.069 189.743 212.369 189.873 212.649 190.043C212.939 190.203 213.174 190.423 213.354 190.703C213.534 190.973 213.624 191.328 213.624 191.768C213.624 192.468 213.379 193.023 212.889 193.433C212.399 193.843 211.734 194.048 210.894 194.048ZM214.999 193.898V186.698H216.649V193.898H214.999ZM215.824 185.378C215.544 185.378 215.309 185.283 215.119 185.093C214.939 184.903 214.849 184.668 214.849 184.388C214.849 184.108 214.939 183.873 215.119 183.683C215.309 183.493 215.544 183.398 215.824 183.398C216.114 183.398 216.349 183.493 216.529 183.683C216.709 183.873 216.799 184.108 216.799 184.388C216.799 184.668 216.709 184.903 216.529 185.093C216.349 185.283 216.114 185.378 215.824 185.378ZM223.435 193.898V189.743C223.435 189.263 223.28 188.868 222.97 188.558C222.67 188.248 222.28 188.093 221.8 188.093C221.48 188.093 221.195 188.163 220.945 188.303C220.695 188.443 220.5 188.638 220.36 188.888C220.22 189.138 220.15 189.423 220.15 189.743L219.505 189.383C219.505 188.833 219.625 188.348 219.865 187.928C220.105 187.498 220.435 187.163 220.855 186.923C221.285 186.673 221.765 186.548 222.295 186.548C222.835 186.548 223.315 186.688 223.735 186.968C224.155 187.238 224.485 187.593 224.725 188.033C224.965 188.463 225.085 188.913 225.085 189.383V193.898H223.435ZM218.5 193.898V186.698H220.15V193.898H218.5ZM230.107 194.048C229.387 194.048 228.737 193.888 228.157 193.568C227.587 193.238 227.132 192.788 226.792 192.218C226.462 191.648 226.297 191.008 226.297 190.298C226.297 189.588 226.462 188.953 226.792 188.393C227.122 187.823 227.567 187.373 228.127 187.043C228.697 186.713 229.327 186.548 230.017 186.548C230.687 186.548 231.277 186.703 231.787 187.013C232.307 187.323 232.712 187.748 233.002 188.288C233.302 188.828 233.452 189.443 233.452 190.133C233.452 190.253 233.442 190.378 233.422 190.508C233.412 190.628 233.392 190.763 233.362 190.913H227.452V189.563H232.507L231.892 190.103C231.872 189.663 231.787 189.293 231.637 188.993C231.487 188.693 231.272 188.463 230.992 188.303C230.722 188.143 230.387 188.063 229.987 188.063C229.567 188.063 229.202 188.153 228.892 188.333C228.582 188.513 228.342 188.768 228.172 189.098C228.002 189.418 227.917 189.803 227.917 190.253C227.917 190.703 228.007 191.098 228.187 191.438C228.367 191.778 228.622 192.043 228.952 192.233C229.282 192.413 229.662 192.503 230.092 192.503C230.462 192.503 230.802 192.438 231.112 192.308C231.432 192.178 231.702 191.988 231.922 191.738L232.972 192.803C232.622 193.213 232.197 193.523 231.697 193.733C231.197 193.943 230.667 194.048 230.107 194.048ZM237.129 194.048C236.729 194.048 236.344 193.998 235.974 193.898C235.604 193.788 235.264 193.638 234.954 193.448C234.644 193.248 234.374 193.008 234.144 192.728L235.194 191.678C235.444 191.968 235.729 192.188 236.049 192.338C236.379 192.478 236.749 192.548 237.159 192.548C237.529 192.548 237.809 192.493 237.999 192.383C238.189 192.273 238.284 192.113 238.284 191.903C238.284 191.683 238.194 191.513 238.014 191.393C237.834 191.273 237.599 191.173 237.309 191.093C237.029 191.003 236.729 190.913 236.409 190.823C236.099 190.733 235.799 190.613 235.509 190.463C235.229 190.303 234.999 190.088 234.819 189.818C234.639 189.548 234.549 189.198 234.549 188.768C234.549 188.308 234.654 187.913 234.864 187.583C235.084 187.253 235.389 186.998 235.779 186.818C236.179 186.638 236.654 186.548 237.204 186.548C237.784 186.548 238.294 186.653 238.734 186.863C239.184 187.063 239.559 187.368 239.859 187.778L238.809 188.828C238.599 188.568 238.359 188.373 238.089 188.243C237.819 188.113 237.509 188.048 237.159 188.048C236.829 188.048 236.574 188.098 236.394 188.198C236.214 188.298 236.124 188.443 236.124 188.633C236.124 188.833 236.214 188.988 236.394 189.098C236.574 189.208 236.804 189.303 237.084 189.383C237.374 189.463 237.674 189.553 237.984 189.653C238.304 189.743 238.604 189.873 238.884 190.043C239.174 190.203 239.409 190.423 239.589 190.703C239.769 190.973 239.859 191.328 239.859 191.768C239.859 192.468 239.614 193.023 239.124 193.433C238.634 193.843 237.969 194.048 237.129 194.048ZM243.575 194.048C243.175 194.048 242.79 193.998 242.42 193.898C242.05 193.788 241.71 193.638 241.4 193.448C241.09 193.248 240.82 193.008 240.59 192.728L241.64 191.678C241.89 191.968 242.175 192.188 242.495 192.338C242.825 192.478 243.195 192.548 243.605 192.548C243.975 192.548 244.255 192.493 244.445 192.383C244.635 192.273 244.73 192.113 244.73 191.903C244.73 191.683 244.64 191.513 244.46 191.393C244.28 191.273 244.045 191.173 243.755 191.093C243.475 191.003 243.175 190.913 242.855 190.823C242.545 190.733 242.245 190.613 241.955 190.463C241.675 190.303 241.445 190.088 241.265 189.818C241.085 189.548 240.995 189.198 240.995 188.768C240.995 188.308 241.1 187.913 241.31 187.583C241.53 187.253 241.835 186.998 242.225 186.818C242.625 186.638 243.1 186.548 243.65 186.548C244.23 186.548 244.74 186.653 245.18 186.863C245.63 187.063 246.005 187.368 246.305 187.778L245.255 188.828C245.045 188.568 244.805 188.373 244.535 188.243C244.265 188.113 243.955 188.048 243.605 188.048C243.275 188.048 243.02 188.098 242.84 188.198C242.66 188.298 242.57 188.443 242.57 188.633C242.57 188.833 242.66 188.988 242.84 189.098C243.02 189.208 243.25 189.303 243.53 189.383C243.82 189.463 244.12 189.553 244.43 189.653C244.75 189.743 245.05 189.873 245.33 190.043C245.62 190.203 245.855 190.423 246.035 190.703C246.215 190.973 246.305 191.328 246.305 191.768C246.305 192.468 246.06 193.023 245.57 193.433C245.08 193.843 244.415 194.048 243.575 194.048ZM252.078 189.938V188.438H254.703C255.063 188.438 255.378 188.368 255.648 188.228C255.928 188.078 256.148 187.873 256.308 187.613C256.468 187.343 256.548 187.028 256.548 186.668C256.548 186.308 256.468 185.998 256.308 185.738C256.148 185.468 255.928 185.263 255.648 185.123C255.378 184.973 255.063 184.898 254.703 184.898H252.078V183.398H254.793C255.453 183.398 256.043 183.533 256.563 183.803C257.093 184.073 257.508 184.453 257.808 184.943C258.118 185.433 258.273 186.008 258.273 186.668C258.273 187.328 258.118 187.903 257.808 188.393C257.508 188.883 257.093 189.263 256.563 189.533C256.043 189.803 255.453 189.938 254.793 189.938H252.078ZM250.893 193.898V183.398H252.618V193.898H250.893ZM262.369 194.048C261.719 194.048 261.129 193.883 260.599 193.553C260.079 193.223 259.664 192.778 259.354 192.218C259.054 191.648 258.904 191.013 258.904 190.313C258.904 189.603 259.054 188.968 259.354 188.408C259.664 187.838 260.079 187.388 260.599 187.058C261.129 186.718 261.719 186.548 262.369 186.548C262.919 186.548 263.404 186.668 263.824 186.908C264.254 187.138 264.594 187.458 264.844 187.868C265.094 188.278 265.219 188.743 265.219 189.263V191.333C265.219 191.853 265.094 192.318 264.844 192.728C264.604 193.138 264.269 193.463 263.839 193.703C263.409 193.933 262.919 194.048 262.369 194.048ZM262.639 192.488C263.249 192.488 263.739 192.283 264.109 191.873C264.489 191.463 264.679 190.938 264.679 190.298C264.679 189.868 264.594 189.488 264.424 189.158C264.254 188.828 264.014 188.573 263.704 188.393C263.404 188.203 263.049 188.108 262.639 188.108C262.239 188.108 261.884 188.203 261.574 188.393C261.274 188.573 261.034 188.828 260.854 189.158C260.684 189.488 260.599 189.868 260.599 190.298C260.599 190.728 260.684 191.108 260.854 191.438C261.034 191.768 261.274 192.028 261.574 192.218C261.884 192.398 262.239 192.488 262.639 192.488ZM264.574 193.898V191.963L264.859 190.208L264.574 188.468V186.698H266.224V193.898H264.574ZM268.056 193.898V186.698H269.706V193.898H268.056ZM269.706 189.893L269.136 189.608C269.136 188.698 269.336 187.963 269.736 187.403C270.146 186.833 270.761 186.548 271.581 186.548C271.941 186.548 272.266 186.613 272.556 186.743C272.846 186.873 273.116 187.083 273.366 187.373L272.286 188.483C272.156 188.343 272.011 188.243 271.851 188.183C271.691 188.123 271.506 188.093 271.296 188.093C270.836 188.093 270.456 188.238 270.156 188.528C269.856 188.818 269.706 189.273 269.706 189.893ZM275.274 193.898V183.698H276.924V193.898H275.274ZM273.549 188.198V186.698H278.649V188.198H273.549ZM284.783 193.898V189.743C284.783 189.263 284.628 188.868 284.318 188.558C284.018 188.248 283.628 188.093 283.148 188.093C282.828 188.093 282.543 188.163 282.293 188.303C282.043 188.443 281.848 188.638 281.708 188.888C281.568 189.138 281.498 189.423 281.498 189.743L280.853 189.383C280.853 188.833 280.973 188.348 281.213 187.928C281.453 187.498 281.783 187.163 282.203 186.923C282.633 186.673 283.113 186.548 283.643 186.548C284.183 186.548 284.663 186.688 285.083 186.968C285.503 187.238 285.833 187.593 286.073 188.033C286.313 188.463 286.433 188.913 286.433 189.383V193.898H284.783ZM279.848 193.898V186.698H281.498V193.898H279.848ZM291.454 194.048C290.734 194.048 290.084 193.888 289.504 193.568C288.934 193.238 288.479 192.788 288.139 192.218C287.809 191.648 287.644 191.008 287.644 190.298C287.644 189.588 287.809 188.953 288.139 188.393C288.469 187.823 288.914 187.373 289.474 187.043C290.044 186.713 290.674 186.548 291.364 186.548C292.034 186.548 292.624 186.703 293.134 187.013C293.654 187.323 294.059 187.748 294.349 188.288C294.649 188.828 294.799 189.443 294.799 190.133C294.799 190.253 294.789 190.378 294.769 190.508C294.759 190.628 294.739 190.763 294.709 190.913H288.799V189.563H293.854L293.239 190.103C293.219 189.663 293.134 189.293 292.984 188.993C292.834 188.693 292.619 188.463 292.339 188.303C292.069 188.143 291.734 188.063 291.334 188.063C290.914 188.063 290.549 188.153 290.239 188.333C289.929 188.513 289.689 188.768 289.519 189.098C289.349 189.418 289.264 189.803 289.264 190.253C289.264 190.703 289.354 191.098 289.534 191.438C289.714 191.778 289.969 192.043 290.299 192.233C290.629 192.413 291.009 192.503 291.439 192.503C291.809 192.503 292.149 192.438 292.459 192.308C292.779 192.178 293.049 191.988 293.269 191.738L294.319 192.803C293.969 193.213 293.544 193.523 293.044 193.733C292.544 193.943 292.014 194.048 291.454 194.048ZM296.122 193.898V186.698H297.772V193.898H296.122ZM297.772 189.893L297.202 189.608C297.202 188.698 297.402 187.963 297.802 187.403C298.212 186.833 298.827 186.548 299.647 186.548C300.007 186.548 300.332 186.613 300.622 186.743C300.912 186.873 301.182 187.083 301.432 187.373L300.352 188.483C300.222 188.343 300.077 188.243 299.917 188.183C299.757 188.123 299.572 188.093 299.362 188.093C298.902 188.093 298.522 188.238 298.222 188.528C297.922 188.818 297.772 189.273 297.772 189.893ZM302.869 187.088L302.494 183.098H304.294L303.919 187.088H302.869ZM307.881 194.048C307.481 194.048 307.096 193.998 306.726 193.898C306.356 193.788 306.016 193.638 305.706 193.448C305.396 193.248 305.126 193.008 304.896 192.728L305.946 191.678C306.196 191.968 306.481 192.188 306.801 192.338C307.131 192.478 307.501 192.548 307.911 192.548C308.281 192.548 308.561 192.493 308.751 192.383C308.941 192.273 309.036 192.113 309.036 191.903C309.036 191.683 308.946 191.513 308.766 191.393C308.586 191.273 308.351 191.173 308.061 191.093C307.781 191.003 307.481 190.913 307.161 190.823C306.851 190.733 306.551 190.613 306.261 190.463C305.981 190.303 305.751 190.088 305.571 189.818C305.391 189.548 305.301 189.198 305.301 188.768C305.301 188.308 305.406 187.913 305.616 187.583C305.836 187.253 306.141 186.998 306.531 186.818C306.931 186.638 307.406 186.548 307.956 186.548C308.536 186.548 309.046 186.653 309.486 186.863C309.936 187.063 310.311 187.368 310.611 187.778L309.561 188.828C309.351 188.568 309.111 188.373 308.841 188.243C308.571 188.113 308.261 188.048 307.911 188.048C307.581 188.048 307.326 188.098 307.146 188.198C306.966 188.298 306.876 188.443 306.876 188.633C306.876 188.833 306.966 188.988 307.146 189.098C307.326 189.208 307.556 189.303 307.836 189.383C308.126 189.463 308.426 189.553 308.736 189.653C309.056 189.743 309.356 189.873 309.636 190.043C309.926 190.203 310.161 190.423 310.341 190.703C310.521 190.973 310.611 191.328 310.611 191.768C310.611 192.468 310.366 193.023 309.876 193.433C309.386 193.843 308.721 194.048 307.881 194.048Z" fill="black"/><path d="M212.658 211.795L209.208 201.295H210.903L213.498 209.38H213.048L215.583 201.295H216.783L219.318 209.38H218.868L221.463 201.295H223.158L219.708 211.795H218.508L215.958 203.725H216.408L213.858 211.795H212.658ZM226.76 211.945C226.04 211.945 225.39 211.785 224.81 211.465C224.24 211.135 223.785 210.685 223.445 210.115C223.115 209.545 222.95 208.905 222.95 208.195C222.95 207.485 223.115 206.85 223.445 206.29C223.775 205.72 224.22 205.27 224.78 204.94C225.35 204.61 225.98 204.445 226.67 204.445C227.34 204.445 227.93 204.6 228.44 204.91C228.96 205.22 229.365 205.645 229.655 206.185C229.955 206.725 230.105 207.34 230.105 208.03C230.105 208.15 230.095 208.275 230.075 208.405C230.065 208.525 230.045 208.66 230.015 208.81H224.105V207.46H229.16L228.545 208C228.525 207.56 228.44 207.19 228.29 206.89C228.14 206.59 227.925 206.36 227.645 206.2C227.375 206.04 227.04 205.96 226.64 205.96C226.22 205.96 225.855 206.05 225.545 206.23C225.235 206.41 224.995 206.665 224.825 206.995C224.655 207.315 224.57 207.7 224.57 208.15C224.57 208.6 224.66 208.995 224.84 209.335C225.02 209.675 225.275 209.94 225.605 210.13C225.935 210.31 226.315 210.4 226.745 210.4C227.115 210.4 227.455 210.335 227.765 210.205C228.085 210.075 228.355 209.885 228.575 209.635L229.625 210.7C229.275 211.11 228.85 211.42 228.35 211.63C227.85 211.84 227.32 211.945 226.76 211.945ZM235.282 211.945C234.732 211.945 234.242 211.83 233.812 211.6C233.382 211.36 233.042 211.035 232.792 210.625C232.552 210.215 232.432 209.75 232.432 209.23V207.16C232.432 206.64 232.557 206.175 232.807 205.765C233.057 205.355 233.397 205.035 233.827 204.805C234.257 204.565 234.742 204.445 235.282 204.445C235.932 204.445 236.517 204.615 237.037 204.955C237.567 205.285 237.982 205.735 238.282 206.305C238.592 206.865 238.747 207.5 238.747 208.21C238.747 208.91 238.592 209.545 238.282 210.115C237.982 210.675 237.567 211.12 237.037 211.45C236.517 211.78 235.932 211.945 235.282 211.945ZM231.427 211.795V200.995H233.077V206.365L232.792 208.105L233.077 209.86V211.795H231.427ZM235.012 210.385C235.412 210.385 235.762 210.295 236.062 210.115C236.372 209.925 236.612 209.665 236.782 209.335C236.962 209.005 237.052 208.625 237.052 208.195C237.052 207.765 236.962 207.385 236.782 207.055C236.612 206.725 236.372 206.47 236.062 206.29C235.762 206.1 235.412 206.005 235.012 206.005C234.612 206.005 234.257 206.1 233.947 206.29C233.637 206.47 233.397 206.725 233.227 207.055C233.057 207.385 232.972 207.765 232.972 208.195C232.972 208.625 233.057 209.005 233.227 209.335C233.397 209.665 233.637 209.925 233.947 210.115C234.257 210.295 234.612 210.385 235.012 210.385ZM242.483 211.945C242.083 211.945 241.698 211.895 241.328 211.795C240.958 211.685 240.618 211.535 240.308 211.345C239.998 211.145 239.728 210.905 239.498 210.625L240.548 209.575C240.798 209.865 241.083 210.085 241.403 210.235C241.733 210.375 242.103 210.445 242.513 210.445C242.883 210.445 243.163 210.39 243.353 210.28C243.543 210.17 243.638 210.01 243.638 209.8C243.638 209.58 243.548 209.41 243.368 209.29C243.188 209.17 242.953 209.07 242.663 208.99C242.383 208.9 242.083 208.81 241.763 208.72C241.453 208.63 241.153 208.51 240.863 208.36C240.583 208.2 240.353 207.985 240.173 207.715C239.993 207.445 239.903 207.095 239.903 206.665C239.903 206.205 240.008 205.81 240.218 205.48C240.438 205.15 240.743 204.895 241.133 204.715C241.533 204.535 242.008 204.445 242.558 204.445C243.138 204.445 243.648 204.55 244.088 204.76C244.538 204.96 244.913 205.265 245.213 205.675L244.163 206.725C243.953 206.465 243.713 206.27 243.443 206.14C243.173 206.01 242.863 205.945 242.513 205.945C242.183 205.945 241.928 205.995 241.748 206.095C241.568 206.195 241.478 206.34 241.478 206.53C241.478 206.73 241.568 206.885 241.748 206.995C241.928 207.105 242.158 207.2 242.438 207.28C242.728 207.36 243.028 207.45 243.338 207.55C243.658 207.64 243.958 207.77 244.238 207.94C244.528 208.1 244.763 208.32 244.943 208.6C245.123 208.87 245.213 209.225 245.213 209.665C245.213 210.365 244.968 210.92 244.478 211.33C243.988 211.74 243.323 211.945 242.483 211.945ZM246.589 211.795V204.595H248.239V211.795H246.589ZM247.414 203.275C247.134 203.275 246.899 203.18 246.709 202.99C246.529 202.8 246.439 202.565 246.439 202.285C246.439 202.005 246.529 201.77 246.709 201.58C246.899 201.39 247.134 201.295 247.414 201.295C247.704 201.295 247.939 201.39 248.119 201.58C248.299 201.77 248.389 202.005 248.389 202.285C248.389 202.565 248.299 202.8 248.119 202.99C247.939 203.18 247.704 203.275 247.414 203.275ZM251.184 211.795V201.595H252.834V211.795H251.184ZM249.459 206.095V204.595H254.559V206.095H249.459ZM258.898 211.945C258.178 211.945 257.528 211.785 256.948 211.465C256.378 211.135 255.923 210.685 255.583 210.115C255.253 209.545 255.088 208.905 255.088 208.195C255.088 207.485 255.253 206.85 255.583 206.29C255.913 205.72 256.358 205.27 256.918 204.94C257.488 204.61 258.118 204.445 258.808 204.445C259.478 204.445 260.068 204.6 260.578 204.91C261.098 205.22 261.503 205.645 261.793 206.185C262.093 206.725 262.243 207.34 262.243 208.03C262.243 208.15 262.233 208.275 262.213 208.405C262.203 208.525 262.183 208.66 262.153 208.81H256.243V207.46H261.298L260.683 208C260.663 207.56 260.578 207.19 260.428 206.89C260.278 206.59 260.063 206.36 259.783 206.2C259.513 206.04 259.178 205.96 258.778 205.96C258.358 205.96 257.993 206.05 257.683 206.23C257.373 206.41 257.133 206.665 256.963 206.995C256.793 207.315 256.708 207.7 256.708 208.15C256.708 208.6 256.798 208.995 256.978 209.335C257.158 209.675 257.413 209.94 257.743 210.13C258.073 210.31 258.453 210.4 258.883 210.4C259.253 210.4 259.593 210.335 259.903 210.205C260.223 210.075 260.493 209.885 260.713 209.635L261.763 210.7C261.413 211.11 260.988 211.42 260.488 211.63C259.988 211.84 259.458 211.945 258.898 211.945ZM262.786 212.395L266.986 200.695H268.531L264.331 212.395H262.786ZM268.167 211.795L272.487 201.295H273.687L277.977 211.795H276.117L272.757 203.29H273.387L269.997 211.795H268.167ZM270.297 209.77V208.27H275.862V209.77H270.297ZM283.109 211.945C282.559 211.945 282.069 211.83 281.639 211.6C281.209 211.36 280.869 211.035 280.619 210.625C280.379 210.215 280.259 209.75 280.259 209.23V207.16C280.259 206.64 280.384 206.175 280.634 205.765C280.884 205.355 281.224 205.035 281.654 204.805C282.084 204.565 282.569 204.445 283.109 204.445C283.759 204.445 284.344 204.615 284.864 204.955C285.394 205.285 285.809 205.735 286.109 206.305C286.419 206.865 286.574 207.5 286.574 208.21C286.574 208.91 286.419 209.545 286.109 210.115C285.809 210.675 285.394 211.12 284.864 211.45C284.344 211.78 283.759 211.945 283.109 211.945ZM279.254 214.795V204.595H280.904V206.53L280.619 208.285L280.904 210.025V214.795H279.254ZM282.839 210.385C283.239 210.385 283.589 210.295 283.889 210.115C284.199 209.925 284.439 209.665 284.609 209.335C284.789 209.005 284.879 208.625 284.879 208.195C284.879 207.765 284.789 207.385 284.609 207.055C284.439 206.725 284.199 206.47 283.889 206.29C283.589 206.1 283.239 206.005 282.839 206.005C282.439 206.005 282.084 206.1 281.774 206.29C281.464 206.47 281.224 206.725 281.054 207.055C280.884 207.385 280.799 207.765 280.799 208.195C280.799 208.625 280.884 209.005 281.054 209.335C281.224 209.665 281.464 209.925 281.774 210.115C282.084 210.295 282.439 210.385 282.839 210.385ZM291.811 211.945C291.261 211.945 290.771 211.83 290.341 211.6C289.911 211.36 289.571 211.035 289.321 210.625C289.081 210.215 288.961 209.75 288.961 209.23V207.16C288.961 206.64 289.086 206.175 289.336 205.765C289.586 205.355 289.926 205.035 290.356 204.805C290.786 204.565 291.271 204.445 291.811 204.445C292.461 204.445 293.046 204.615 293.566 204.955C294.096 205.285 294.511 205.735 294.811 206.305C295.121 206.865 295.276 207.5 295.276 208.21C295.276 208.91 295.121 209.545 294.811 210.115C294.511 210.675 294.096 211.12 293.566 211.45C293.046 211.78 292.461 211.945 291.811 211.945ZM287.956 214.795V204.595H289.606V206.53L289.321 208.285L289.606 210.025V214.795H287.956ZM291.541 210.385C291.941 210.385 292.291 210.295 292.591 210.115C292.901 209.925 293.141 209.665 293.311 209.335C293.491 209.005 293.581 208.625 293.581 208.195C293.581 207.765 293.491 207.385 293.311 207.055C293.141 206.725 292.901 206.47 292.591 206.29C292.291 206.1 291.941 206.005 291.541 206.005C291.141 206.005 290.786 206.1 290.476 206.29C290.166 206.47 289.926 206.725 289.756 207.055C289.586 207.385 289.501 207.765 289.501 208.195C289.501 208.625 289.586 209.005 289.756 209.335C289.926 209.665 290.166 209.925 290.476 210.115C290.786 210.295 291.141 210.385 291.541 210.385Z" fill="black"/><path d="M249.14 159.508V155.717H254.765C254.91 156.977 254.913 158.248 254.772 159.508H249.14Z" fill="black"/><path d="M254.635 154.68H249.251C249.485 153.862 249.659 153.072 249.943 152.324C250.155 151.778 250.443 151.265 250.799 150.798C250.922 150.598 251.095 150.432 251.301 150.316C251.506 150.201 251.739 150.139 251.975 150.138C252.211 150.137 252.444 150.196 252.651 150.309C252.858 150.423 253.033 150.587 253.158 150.787C253.875 151.767 254.346 152.904 254.534 154.102C254.575 154.284 254.599 154.468 254.635 154.68Z" fill="black"/><path d="M249.311 160.544H254.648C254.493 161.982 253.954 163.352 253.089 164.515C252.958 164.697 252.784 164.844 252.583 164.943C252.382 165.043 252.159 165.092 251.934 165.086C251.709 165.08 251.489 165.02 251.293 164.91C251.097 164.8 250.931 164.644 250.81 164.456C250.136 163.559 249.682 162.518 249.483 161.416C249.417 161.144 249.374 160.87 249.311 160.544Z" fill="black"/><path d="M248.119 155.698V159.531H247.194C246.474 159.531 245.753 159.519 245.033 159.537C244.776 159.543 244.692 159.451 244.641 159.213C244.399 158.144 244.406 157.034 244.662 155.968C244.686 155.868 244.797 155.71 244.87 155.709C245.953 155.693 247.037 155.698 248.119 155.698Z" fill="black"/><path d="M255.832 155.696H257.798C258.198 155.696 258.598 155.681 259.003 155.706C259.063 155.717 259.12 155.742 259.168 155.78C259.217 155.817 259.255 155.866 259.281 155.921C259.556 157.031 259.556 158.191 259.281 159.302C259.26 159.384 259.164 159.511 259.102 159.511C258.007 159.524 256.912 159.521 255.83 159.521L255.832 155.696Z" fill="black"/><path d="M254.154 150.458C255.204 150.78 256.172 151.324 256.99 152.053C257.809 152.782 258.458 153.679 258.894 154.682H255.663C255.459 153.186 254.945 151.748 254.154 150.458Z" fill="black"/><path d="M245.054 160.536H248.292C248.492 162.033 249.003 163.472 249.792 164.763C248.741 164.442 247.774 163.897 246.955 163.167C246.137 162.437 245.489 161.539 245.054 160.536Z" fill="black"/><path d="M245.059 154.683C245.493 153.681 246.142 152.784 246.959 152.055C247.776 151.326 248.743 150.782 249.792 150.46C249.002 151.749 248.491 153.187 248.292 154.683H245.059Z" fill="black"/><path d="M255.698 160.541H258.837C258.446 161.527 257.834 162.413 257.048 163.13C256.262 163.847 255.322 164.378 254.3 164.681C254.574 164.04 254.906 163.379 255.14 162.685C255.374 161.991 255.515 161.261 255.698 160.541Z" fill="black"/><path d="M251.989 148.678C252.817 148.678 253.489 148.01 253.489 147.186C253.489 146.363 252.817 145.695 251.989 145.695C251.16 145.695 250.489 146.363 250.489 147.186C250.489 148.01 251.16 148.678 251.989 148.678Z" fill="black"/><path d="M251.989 169.558C252.817 169.558 253.489 168.89 253.489 168.066C253.489 167.243 252.817 166.575 251.989 166.575C251.16 166.575 250.489 167.243 250.489 168.066C250.489 168.89 251.16 169.558 251.989 169.558Z" fill="black"/><path d="M241.489 159.118C242.317 159.118 242.989 158.45 242.989 157.626C242.989 156.803 242.317 156.135 241.489 156.135C240.66 156.135 239.989 156.803 239.989 157.626C239.989 158.45 240.66 159.118 241.489 159.118Z" fill="black"/><path d="M262.489 159.118C263.317 159.118 263.989 158.45 263.989 157.626C263.989 156.803 263.317 156.135 262.489 156.135C261.66 156.135 260.989 156.803 260.989 157.626C260.989 158.45 261.66 159.118 262.489 159.118Z" fill="black"/><path d="M241.489 159.118C242.317 159.118 242.989 158.45 242.989 157.626C242.989 156.803 242.317 156.135 241.489 156.135C240.66 156.135 239.989 156.803 239.989 157.626C239.989 158.45 240.66 159.118 241.489 159.118Z" fill="black"/><path d="M262.489 159.118C263.317 159.118 263.989 158.45 263.989 157.626C263.989 156.803 263.317 156.135 262.489 156.135C261.66 156.135 260.989 156.803 260.989 157.626C260.989 158.45 261.66 159.118 262.489 159.118Z" fill="black"/><path d="M224.034 72.9218L219.939 66.6218H221.934L225.129 71.6468H224.199L227.394 66.6218H229.359L225.234 72.9218H224.034ZM223.794 77.1218V71.8418H225.519V77.1218H223.794ZM231.705 77.2718C231.005 77.2718 230.37 77.1068 229.8 76.7768C229.23 76.4368 228.775 75.9818 228.435 75.4118C228.105 74.8418 227.94 74.2068 227.94 73.5068C227.94 72.8068 228.105 72.1768 228.435 71.6168C228.775 71.0568 229.23 70.6118 229.8 70.2818C230.37 69.9418 231.005 69.7718 231.705 69.7718C232.415 69.7718 233.055 69.9368 233.625 70.2668C234.195 70.5968 234.645 71.0468 234.975 71.6168C235.315 72.1768 235.485 72.8068 235.485 73.5068C235.485 74.2068 235.315 74.8418 234.975 75.4118C234.645 75.9818 234.195 76.4368 233.625 76.7768C233.055 77.1068 232.415 77.2718 231.705 77.2718ZM231.705 75.6818C232.115 75.6818 232.475 75.5918 232.785 75.4118C233.105 75.2218 233.35 74.9618 233.52 74.6318C233.7 74.3018 233.79 73.9268 233.79 73.5068C233.79 73.0868 233.7 72.7168 233.52 72.3968C233.34 72.0768 233.095 71.8268 232.785 71.6468C232.475 71.4568 232.115 71.3618 231.705 71.3618C231.305 71.3618 230.945 71.4568 230.625 71.6468C230.315 71.8268 230.07 72.0768 229.89 72.3968C229.72 72.7168 229.635 73.0868 229.635 73.5068C229.635 73.9268 229.72 74.3018 229.89 74.6318C230.07 74.9618 230.315 75.2218 230.625 75.4118C230.945 75.5918 231.305 75.6818 231.705 75.6818ZM239.812 77.2718C239.202 77.2718 238.657 77.1368 238.177 76.8668C237.707 76.5968 237.337 76.2268 237.067 75.7568C236.807 75.2768 236.677 74.7268 236.677 74.1068V69.9218H238.327V74.0318C238.327 74.3818 238.382 74.6818 238.492 74.9318C238.612 75.1718 238.782 75.3568 239.002 75.4868C239.232 75.6168 239.502 75.6818 239.812 75.6818C240.292 75.6818 240.657 75.5418 240.907 75.2618C241.167 74.9718 241.297 74.5618 241.297 74.0318V69.9218H242.947V74.1068C242.947 74.7368 242.812 75.2918 242.542 75.7718C242.282 76.2418 241.917 76.6118 241.447 76.8818C240.977 77.1418 240.432 77.2718 239.812 77.2718ZM244.606 77.1218V69.9218H246.256V77.1218H244.606ZM246.256 73.1168L245.686 72.8318C245.686 71.9218 245.886 71.1868 246.286 70.6268C246.696 70.0568 247.311 69.7718 248.131 69.7718C248.491 69.7718 248.816 69.8368 249.106 69.9668C249.396 70.0968 249.666 70.3068 249.916 70.5968L248.836 71.7068C248.706 71.5668 248.561 71.4668 248.401 71.4068C248.241 71.3468 248.056 71.3168 247.846 71.3168C247.386 71.3168 247.006 71.4618 246.706 71.7518C246.406 72.0418 246.256 72.4968 246.256 73.1168ZM259.036 77.2718C258.286 77.2718 257.586 77.1318 256.936 76.8518C256.286 76.5718 255.716 76.1868 255.226 75.6968C254.736 75.1968 254.351 74.6218 254.071 73.9718C253.801 73.3118 253.666 72.6068 253.666 71.8568C253.666 71.1068 253.801 70.4068 254.071 69.7568C254.351 69.1068 254.731 68.5368 255.211 68.0468C255.701 67.5468 256.266 67.1618 256.906 66.8918C257.556 66.6118 258.256 66.4718 259.006 66.4718C259.756 66.4718 260.451 66.6118 261.091 66.8918C261.741 67.1618 262.311 67.5468 262.801 68.0468C263.291 68.5368 263.671 69.1118 263.941 69.7718C264.221 70.4218 264.361 71.1218 264.361 71.8718C264.361 72.6218 264.221 73.3268 263.941 73.9868C263.671 74.6368 263.291 75.2068 262.801 75.6968C262.321 76.1868 261.756 76.5718 261.106 76.8518C260.466 77.1318 259.776 77.2718 259.036 77.2718ZM259.006 75.6218C259.716 75.6218 260.336 75.4618 260.866 75.1418C261.406 74.8218 261.826 74.3818 262.126 73.8218C262.436 73.2518 262.591 72.5968 262.591 71.8568C262.591 71.3068 262.501 70.8068 262.321 70.3568C262.151 69.8968 261.906 69.5018 261.586 69.1718C261.266 68.8318 260.886 68.5718 260.446 68.3918C260.016 68.2118 259.536 68.1218 259.006 68.1218C258.306 68.1218 257.686 68.2818 257.146 68.6018C256.616 68.9118 256.196 69.3468 255.886 69.9068C255.586 70.4668 255.436 71.1168 255.436 71.8568C255.436 72.4068 255.521 72.9168 255.691 73.3868C255.871 73.8468 256.116 74.2418 256.426 74.5718C256.746 74.9018 257.126 75.1618 257.566 75.3518C258.006 75.5318 258.486 75.6218 259.006 75.6218ZM267.991 77.1218L265.096 69.9218H266.806L268.756 75.1568L268.246 75.1718L270.151 69.9218H271.111L273.016 75.1718L272.506 75.1568L274.456 69.9218H276.166L273.271 77.1218H272.311L270.361 72.1418H270.901L268.951 77.1218H267.991ZM282.134 77.1218V72.9668C282.134 72.4868 281.979 72.0918 281.669 71.7818C281.369 71.4718 280.979 71.3168 280.499 71.3168C280.179 71.3168 279.894 71.3868 279.644 71.5268C279.394 71.6668 279.199 71.8618 279.059 72.1118C278.919 72.3618 278.849 72.6468 278.849 72.9668L278.204 72.6068C278.204 72.0568 278.324 71.5718 278.564 71.1518C278.804 70.7218 279.134 70.3868 279.554 70.1468C279.984 69.8968 280.464 69.7718 280.994 69.7718C281.534 69.7718 282.014 69.9118 282.434 70.1918C282.854 70.4618 283.184 70.8168 283.424 71.2568C283.664 71.6868 283.784 72.1368 283.784 72.6068V77.1218H282.134ZM277.199 77.1218V69.9218H278.849V77.1218H277.199Z" fill="black"/><path d="M212.658 95.019L209.208 84.519H210.903L213.498 92.604H213.048L215.583 84.519H216.783L219.318 92.604H218.868L221.463 84.519H223.158L219.708 95.019H218.508L215.958 86.949H216.408L213.858 95.019H212.658ZM226.76 95.169C226.04 95.169 225.39 95.009 224.81 94.689C224.24 94.359 223.785 93.909 223.445 93.339C223.115 92.769 222.95 92.129 222.95 91.419C222.95 90.709 223.115 90.074 223.445 89.514C223.775 88.944 224.22 88.494 224.78 88.164C225.35 87.834 225.98 87.669 226.67 87.669C227.34 87.669 227.93 87.824 228.44 88.134C228.96 88.444 229.365 88.869 229.655 89.409C229.955 89.949 230.105 90.564 230.105 91.254C230.105 91.374 230.095 91.499 230.075 91.629C230.065 91.749 230.045 91.884 230.015 92.034H224.105V90.684H229.16L228.545 91.224C228.525 90.784 228.44 90.414 228.29 90.114C228.14 89.814 227.925 89.584 227.645 89.424C227.375 89.264 227.04 89.184 226.64 89.184C226.22 89.184 225.855 89.274 225.545 89.454C225.235 89.634 224.995 89.889 224.825 90.219C224.655 90.539 224.57 90.924 224.57 91.374C224.57 91.824 224.66 92.219 224.84 92.559C225.02 92.899 225.275 93.164 225.605 93.354C225.935 93.534 226.315 93.624 226.745 93.624C227.115 93.624 227.455 93.559 227.765 93.429C228.085 93.299 228.355 93.109 228.575 92.859L229.625 93.924C229.275 94.334 228.85 94.644 228.35 94.854C227.85 95.064 227.32 95.169 226.76 95.169ZM235.283 95.169C234.733 95.169 234.243 95.054 233.813 94.824C233.383 94.584 233.043 94.259 232.793 93.849C232.553 93.439 232.433 92.974 232.433 92.454V90.384C232.433 89.864 232.558 89.399 232.808 88.989C233.058 88.579 233.398 88.259 233.828 88.029C234.258 87.789 234.743 87.669 235.283 87.669C235.933 87.669 236.518 87.839 237.038 88.179C237.568 88.509 237.983 88.959 238.283 89.529C238.593 90.089 238.748 90.724 238.748 91.434C238.748 92.134 238.593 92.769 238.283 93.339C237.983 93.899 237.568 94.344 237.038 94.674C236.518 95.004 235.933 95.169 235.283 95.169ZM231.428 95.019V84.219H233.078V89.589L232.793 91.329L233.078 93.084V95.019H231.428ZM235.013 93.609C235.413 93.609 235.763 93.519 236.063 93.339C236.373 93.149 236.613 92.889 236.783 92.559C236.963 92.229 237.053 91.849 237.053 91.419C237.053 90.989 236.963 90.609 236.783 90.279C236.613 89.949 236.373 89.694 236.063 89.514C235.763 89.324 235.413 89.229 235.013 89.229C234.613 89.229 234.258 89.324 233.948 89.514C233.638 89.694 233.398 89.949 233.228 90.279C233.058 90.609 232.973 90.989 232.973 91.419C232.973 91.849 233.058 92.229 233.228 92.559C233.398 92.889 233.638 93.149 233.948 93.339C234.258 93.519 234.613 93.609 235.013 93.609ZM242.484 95.169C242.084 95.169 241.699 95.119 241.329 95.019C240.959 94.909 240.619 94.759 240.309 94.569C239.999 94.369 239.729 94.129 239.499 93.849L240.549 92.799C240.799 93.089 241.084 93.309 241.404 93.459C241.734 93.599 242.104 93.669 242.514 93.669C242.884 93.669 243.164 93.614 243.354 93.504C243.544 93.394 243.639 93.234 243.639 93.024C243.639 92.804 243.549 92.634 243.369 92.514C243.189 92.394 242.954 92.294 242.664 92.214C242.384 92.124 242.084 92.034 241.764 91.944C241.454 91.854 241.154 91.734 240.864 91.584C240.584 91.424 240.354 91.209 240.174 90.939C239.994 90.669 239.904 90.319 239.904 89.889C239.904 89.429 240.009 89.034 240.219 88.704C240.439 88.374 240.744 88.119 241.134 87.939C241.534 87.759 242.009 87.669 242.559 87.669C243.139 87.669 243.649 87.774 244.089 87.984C244.539 88.184 244.914 88.489 245.214 88.899L244.164 89.949C243.954 89.689 243.714 89.494 243.444 89.364C243.174 89.234 242.864 89.169 242.514 89.169C242.184 89.169 241.929 89.219 241.749 89.319C241.569 89.419 241.479 89.564 241.479 89.754C241.479 89.954 241.569 90.109 241.749 90.219C241.929 90.329 242.159 90.424 242.439 90.504C242.729 90.584 243.029 90.674 243.339 90.774C243.659 90.864 243.959 90.994 244.239 91.164C244.529 91.324 244.764 91.544 244.944 91.824C245.124 92.094 245.214 92.449 245.214 92.889C245.214 93.589 244.969 94.144 244.479 94.554C243.989 94.964 243.324 95.169 242.484 95.169ZM246.589 95.019V87.819H248.239V95.019H246.589ZM247.414 86.499C247.134 86.499 246.899 86.404 246.709 86.214C246.529 86.024 246.439 85.789 246.439 85.509C246.439 85.229 246.529 84.994 246.709 84.804C246.899 84.614 247.134 84.519 247.414 84.519C247.704 84.519 247.939 84.614 248.119 84.804C248.299 84.994 248.389 85.229 248.389 85.509C248.389 85.789 248.299 86.024 248.119 86.214C247.939 86.404 247.704 86.499 247.414 86.499ZM251.185 95.019V84.819H252.835V95.019H251.185ZM249.46 89.319V87.819H254.56V89.319H249.46ZM258.899 95.169C258.179 95.169 257.529 95.009 256.949 94.689C256.379 94.359 255.924 93.909 255.584 93.339C255.254 92.769 255.089 92.129 255.089 91.419C255.089 90.709 255.254 90.074 255.584 89.514C255.914 88.944 256.359 88.494 256.919 88.164C257.489 87.834 258.119 87.669 258.809 87.669C259.479 87.669 260.069 87.824 260.579 88.134C261.099 88.444 261.504 88.869 261.794 89.409C262.094 89.949 262.244 90.564 262.244 91.254C262.244 91.374 262.234 91.499 262.214 91.629C262.204 91.749 262.184 91.884 262.154 92.034H256.244V90.684H261.299L260.684 91.224C260.664 90.784 260.579 90.414 260.429 90.114C260.279 89.814 260.064 89.584 259.784 89.424C259.514 89.264 259.179 89.184 258.779 89.184C258.359 89.184 257.994 89.274 257.684 89.454C257.374 89.634 257.134 89.889 256.964 90.219C256.794 90.539 256.709 90.924 256.709 91.374C256.709 91.824 256.799 92.219 256.979 92.559C257.159 92.899 257.414 93.164 257.744 93.354C258.074 93.534 258.454 93.624 258.884 93.624C259.254 93.624 259.594 93.559 259.904 93.429C260.224 93.299 260.494 93.109 260.714 92.859L261.764 93.924C261.414 94.334 260.989 94.644 260.489 94.854C259.989 95.064 259.459 95.169 258.899 95.169ZM262.786 95.619L266.986 83.919H268.531L264.331 95.619H262.786ZM268.168 95.019L272.488 84.519H273.688L277.978 95.019H276.118L272.758 86.514H273.388L269.998 95.019H268.168ZM270.298 92.994V91.494H275.863V92.994H270.298ZM283.11 95.169C282.56 95.169 282.07 95.054 281.64 94.824C281.21 94.584 280.87 94.259 280.62 93.849C280.38 93.439 280.26 92.974 280.26 92.454V90.384C280.26 89.864 280.385 89.399 280.635 88.989C280.885 88.579 281.225 88.259 281.655 88.029C282.085 87.789 282.57 87.669 283.11 87.669C283.76 87.669 284.345 87.839 284.865 88.179C285.395 88.509 285.81 88.959 286.11 89.529C286.42 90.089 286.575 90.724 286.575 91.434C286.575 92.134 286.42 92.769 286.11 93.339C285.81 93.899 285.395 94.344 284.865 94.674C284.345 95.004 283.76 95.169 283.11 95.169ZM279.255 98.019V87.819H280.905V89.754L280.62 91.509L280.905 93.249V98.019H279.255ZM282.84 93.609C283.24 93.609 283.59 93.519 283.89 93.339C284.2 93.149 284.44 92.889 284.61 92.559C284.79 92.229 284.88 91.849 284.88 91.419C284.88 90.989 284.79 90.609 284.61 90.279C284.44 89.949 284.2 89.694 283.89 89.514C283.59 89.324 283.24 89.229 282.84 89.229C282.44 89.229 282.085 89.324 281.775 89.514C281.465 89.694 281.225 89.949 281.055 90.279C280.885 90.609 280.8 90.989 280.8 91.419C280.8 91.849 280.885 92.229 281.055 92.559C281.225 92.889 281.465 93.149 281.775 93.339C282.085 93.519 282.44 93.609 282.84 93.609ZM291.811 95.169C291.261 95.169 290.771 95.054 290.341 94.824C289.911 94.584 289.571 94.259 289.321 93.849C289.081 93.439 288.961 92.974 288.961 92.454V90.384C288.961 89.864 289.086 89.399 289.336 88.989C289.586 88.579 289.926 88.259 290.356 88.029C290.786 87.789 291.271 87.669 291.811 87.669C292.461 87.669 293.046 87.839 293.566 88.179C294.096 88.509 294.511 88.959 294.811 89.529C295.121 90.089 295.276 90.724 295.276 91.434C295.276 92.134 295.121 92.769 294.811 93.339C294.511 93.899 294.096 94.344 293.566 94.674C293.046 95.004 292.461 95.169 291.811 95.169ZM287.956 98.019V87.819H289.606V89.754L289.321 91.509L289.606 93.249V98.019H287.956ZM291.541 93.609C291.941 93.609 292.291 93.519 292.591 93.339C292.901 93.149 293.141 92.889 293.311 92.559C293.491 92.229 293.581 91.849 293.581 91.419C293.581 90.989 293.491 90.609 293.311 90.279C293.141 89.949 292.901 89.694 292.591 89.514C292.291 89.324 291.941 89.229 291.541 89.229C291.141 89.229 290.786 89.324 290.476 89.514C290.166 89.694 289.926 89.949 289.756 90.279C289.586 90.609 289.501 90.989 289.501 91.419C289.501 91.849 289.586 92.229 289.756 92.559C289.926 92.889 290.166 93.149 290.476 93.339C290.786 93.519 291.141 93.609 291.541 93.609Z" fill="black"/><path d="M251.945 52.7816C249.573 52.7727 247.256 52.0648 245.288 50.7472C243.32 49.4297 241.789 47.5616 240.888 45.3792C239.988 43.1967 239.758 40.7978 240.228 38.4856C240.699 36.1733 241.848 34.0516 243.53 32.3885C245.213 30.7253 247.354 29.5954 249.682 29.1416C252.01 28.6877 254.421 28.9303 256.611 29.8387C258.801 30.747 260.67 32.2803 261.984 34.2448C263.297 36.2094 263.995 38.5169 263.99 40.8759C263.989 42.4451 263.677 43.9985 263.07 45.4471C262.463 46.8957 261.575 48.211 260.456 49.3172C259.337 50.4235 258.009 51.299 256.548 51.8935C255.088 52.488 253.523 52.7898 251.945 52.7816ZM252.012 30.1595C249.885 30.1558 247.805 30.7792 246.035 31.951C244.264 33.1227 242.883 34.7902 242.065 36.7425C241.248 38.6948 241.031 40.8443 241.442 42.9192C241.853 44.9941 242.874 46.9011 244.375 48.3991C245.877 49.8972 247.791 50.919 249.876 51.3354C251.961 51.7517 254.124 51.5439 256.09 50.7382C258.057 49.9326 259.739 48.5651 260.924 46.809C262.109 45.0528 262.743 42.9867 262.747 40.872C262.744 38.0385 261.613 35.3214 259.602 33.3142C257.591 31.3071 254.862 30.1729 252.012 30.1595Z" fill="black"/><path d="M249.159 42.7452V38.961H254.777C254.923 40.2191 254.926 41.4895 254.784 42.7482L249.159 42.7452Z" fill="black"/><path d="M254.648 37.9229H249.27C249.504 37.1056 249.678 36.3171 249.962 35.5694C250.174 35.0248 250.462 34.5124 250.817 34.0472C250.94 33.8464 251.113 33.6803 251.318 33.5646C251.524 33.4489 251.756 33.3874 251.992 33.3861C252.228 33.3848 252.461 33.4437 252.668 33.5572C252.875 33.6706 253.049 33.8349 253.174 34.0343C253.89 35.014 254.361 36.1494 254.548 37.3462C254.588 37.5272 254.612 37.7111 254.648 37.9229Z" fill="black"/><path d="M249.328 43.7783H254.659C254.504 45.2142 253.967 46.5831 253.102 47.7435C252.972 47.9252 252.798 48.0722 252.597 48.1718C252.396 48.2714 252.174 48.3205 251.949 48.3149C251.724 48.3092 251.505 48.2488 251.309 48.1392C251.113 48.0295 250.948 47.8739 250.826 47.6858C250.153 46.7901 249.699 45.7503 249.501 44.6493C249.436 44.3779 249.393 44.1014 249.328 43.7783Z" fill="black"/><path d="M248.139 38.9391V42.7661H247.216C246.496 42.7661 245.776 42.7552 245.057 42.7731C244.801 42.7791 244.717 42.6866 244.664 42.4499C244.423 41.3816 244.431 40.2725 244.686 39.2075C244.71 39.1081 244.821 38.951 244.894 38.95C245.976 38.9331 247.059 38.9391 248.139 38.9391Z" fill="black"/><path d="M255.844 38.9371H257.807C258.207 38.9371 258.607 38.9232 259.007 38.948C259.067 38.959 259.124 38.9842 259.172 39.0216C259.221 39.059 259.259 39.1074 259.284 39.1628C259.56 40.273 259.56 41.4332 259.284 42.5434C259.264 42.6269 259.168 42.7532 259.106 42.7542C258.013 42.7671 256.919 42.7641 255.838 42.7641L255.844 38.9371Z" fill="black"/><path d="M254.168 33.7051C255.217 34.0258 256.184 34.5691 257.001 35.2975C257.818 36.0259 258.467 36.922 258.901 37.9239H255.675C255.471 36.4293 254.958 34.9929 254.168 33.7051Z" fill="black"/><path d="M245.078 43.7703H248.312C248.513 45.2661 249.023 46.7041 249.812 47.9931C248.763 47.6726 247.795 47.1288 246.978 46.3997C246.161 45.6705 245.512 44.7734 245.078 43.7703Z" fill="black"/><path d="M245.083 37.9249C245.517 36.9235 246.164 36.0277 246.981 35.2994C247.797 34.5712 248.762 34.0279 249.81 33.7071C249.022 34.9943 248.513 36.4308 248.315 37.9249H245.083Z" fill="black"/><path d="M255.71 43.7743H258.844C258.454 44.7601 257.843 45.6447 257.058 46.3611C256.273 47.0775 255.335 47.607 254.313 47.9096C254.586 47.2702 254.913 46.61 255.152 45.921C255.391 45.2319 255.528 44.4952 255.71 43.7743Z" fill="black"/><path d="M340.999 0.667816H172.488C162.823 0.667816 154.988 8.45809 154.988 18.0679V486.597C154.988 496.207 162.823 503.997 172.488 503.997H340.999C350.664 503.997 358.499 496.207 358.499 486.597V18.0679C358.499 8.45809 350.664 0.667816 340.999 0.667816Z" stroke="#707070"/><path d="M5.25781 254.236C7.74309 254.236 9.75781 252.233 9.75781 249.762C9.75781 247.291 7.74309 245.288 5.25781 245.288C2.77253 245.288 0.757812 247.291 0.757812 249.762C0.757812 252.233 2.77253 254.236 5.25781 254.236Z" stroke="#707070"/><path d="M10.2578 249.87H154.5" stroke="#707070"/><path d="M154.5 254.733C157.261 254.733 159.5 252.508 159.5 249.762C159.5 247.016 157.261 244.791 154.5 244.791C151.739 244.791 149.5 247.016 149.5 249.762C149.5 252.508 151.739 254.733 154.5 254.733Z" fill="black"/><path d="M154.5 254.236C156.985 254.236 159 252.233 159 249.762C159 247.291 156.985 245.288 154.5 245.288C152.015 245.288 150 247.291 150 249.762C150 252.233 152.015 254.236 154.5 254.236Z" stroke="#707070"/></svg>