<svg width="334" height="516" viewBox="0 0 334 516" fill="none" xmlns="http://www.w3.org/2000/svg"><path d="M55.5048 112.393V114.448H52.7148V122.923H50.1498V114.448H47.3598V112.393H55.5048ZM60.6021 123.043C59.7821 123.043 59.0421 122.868 58.3821 122.518C57.7321 122.168 57.2171 121.668 56.8371 121.018C56.4671 120.368 56.2821 119.608 56.2821 118.738C56.2821 117.878 56.4721 117.123 56.8521 116.473C57.2321 115.813 57.7521 115.308 58.4121 114.958C59.0721 114.608 59.8121 114.433 60.6321 114.433C61.4521 114.433 62.1921 114.608 62.8521 114.958C63.5121 115.308 64.0321 115.813 64.4121 116.473C64.7921 117.123 64.9821 117.878 64.9821 118.738C64.9821 119.598 64.7871 120.358 64.3971 121.018C64.0171 121.668 63.4921 122.168 62.8221 122.518C62.1621 122.868 61.4221 123.043 60.6021 123.043ZM60.6021 120.823C61.0921 120.823 61.5071 120.643 61.8471 120.283C62.1971 119.923 62.3721 119.408 62.3721 118.738C62.3721 118.068 62.2021 117.553 61.8621 117.193C61.5321 116.833 61.1221 116.653 60.6321 116.653C60.1321 116.653 59.7171 116.833 59.3871 117.193C59.0571 117.543 58.8921 118.058 58.8921 118.738C58.8921 119.408 59.0521 119.923 59.3721 120.283C59.7021 120.643 60.1121 120.823 60.6021 120.823ZM74.6078 114.553V122.923H72.0428V121.783C71.7828 122.153 71.4278 122.453 70.9778 122.683C70.5378 122.903 70.0478 123.013 69.5078 123.013C68.8678 123.013 68.3028 122.873 67.8128 122.593C67.3228 122.303 66.9428 121.888 66.6728 121.348C66.4028 120.808 66.2678 120.173 66.2678 119.443V114.553H68.8178V119.098C68.8178 119.658 68.9628 120.093 69.2528 120.403C69.5428 120.713 69.9328 120.868 70.4228 120.868C70.9228 120.868 71.3178 120.713 71.6078 120.403C71.8978 120.093 72.0428 119.658 72.0428 119.098V114.553H74.6078ZM79.0153 115.948C79.3153 115.488 79.6903 115.128 80.1403 114.868C80.5903 114.598 81.0903 114.463 81.6403 114.463V117.178H80.9353C80.2953 117.178 79.8153 117.318 79.4953 117.598C79.1753 117.868 79.0153 118.348 79.0153 119.038V122.923H76.4503V114.553H79.0153V115.948ZM91.025 123.028C90.035 123.028 89.125 122.798 88.295 122.338C87.475 121.878 86.82 121.238 86.33 120.418C85.85 119.588 85.61 118.658 85.61 117.628C85.61 116.598 85.85 115.673 86.33 114.853C86.82 114.033 87.475 113.393 88.295 112.933C89.125 112.473 90.035 112.243 91.025 112.243C92.015 112.243 92.92 112.473 93.74 112.933C94.57 113.393 95.22 114.033 95.69 114.853C96.17 115.673 96.41 116.598 96.41 117.628C96.41 118.658 96.17 119.588 95.69 120.418C95.21 121.238 94.56 121.878 93.74 122.338C92.92 122.798 92.015 123.028 91.025 123.028ZM91.025 120.688C91.865 120.688 92.535 120.408 93.035 119.848C93.545 119.288 93.8 118.548 93.8 117.628C93.8 116.698 93.545 115.958 93.035 115.408C92.535 114.848 91.865 114.568 91.025 114.568C90.175 114.568 89.495 114.843 88.985 115.393C88.485 115.943 88.235 116.688 88.235 117.628C88.235 118.558 88.485 119.303 88.985 119.863C89.495 120.413 90.175 120.688 91.025 120.688ZM100.402 115.738C100.652 115.348 100.997 115.033 101.437 114.793C101.877 114.553 102.392 114.433 102.982 114.433C103.672 114.433 104.297 114.608 104.857 114.958C105.417 115.308 105.857 115.808 106.177 116.458C106.507 117.108 106.672 117.863 106.672 118.723C106.672 119.583 106.507 120.343 106.177 121.003C105.857 121.653 105.417 122.158 104.857 122.518C104.297 122.868 103.672 123.043 102.982 123.043C102.402 123.043 101.887 122.923 101.437 122.683C100.997 122.443 100.652 122.133 100.402 121.753V126.913H97.837V114.553H100.402V115.738ZM104.062 118.723C104.062 118.083 103.882 117.583 103.522 117.223C103.172 116.853 102.737 116.668 102.217 116.668C101.707 116.668 101.272 116.853 100.912 117.223C100.562 117.593 100.387 118.098 100.387 118.738C100.387 119.378 100.562 119.883 100.912 120.253C101.272 120.623 101.707 120.808 102.217 120.808C102.727 120.808 103.162 120.623 103.522 120.253C103.882 119.873 104.062 119.363 104.062 118.723ZM115.908 118.603C115.908 118.843 115.893 119.093 115.863 119.353H110.058C110.098 119.873 110.263 120.273 110.553 120.553C110.853 120.823 111.218 120.958 111.648 120.958C112.288 120.958 112.733 120.688 112.983 120.148H115.713C115.573 120.698 115.318 121.193 114.948 121.633C114.588 122.073 114.133 122.418 113.583 122.668C113.033 122.918 112.418 123.043 111.738 123.043C110.918 123.043 110.188 122.868 109.548 122.518C108.908 122.168 108.408 121.668 108.048 121.018C107.688 120.368 107.508 119.608 107.508 118.738C107.508 117.868 107.683 117.108 108.033 116.458C108.393 115.808 108.893 115.308 109.533 114.958C110.173 114.608 110.908 114.433 111.738 114.433C112.548 114.433 113.268 114.603 113.898 114.943C114.528 115.283 115.018 115.768 115.368 116.398C115.728 117.028 115.908 117.763 115.908 118.603ZM113.283 117.928C113.283 117.488 113.133 117.138 112.833 116.878C112.533 116.618 112.158 116.488 111.708 116.488C111.278 116.488 110.913 116.613 110.613 116.863C110.323 117.113 110.143 117.468 110.073 117.928H113.283ZM119.826 115.948C120.126 115.488 120.501 115.128 120.951 114.868C121.401 114.598 121.901 114.463 122.451 114.463V117.178H121.746C121.106 117.178 120.626 117.318 120.306 117.598C119.986 117.868 119.826 118.348 119.826 119.038V122.923H117.261V114.553H119.826V115.948ZM123.167 118.723C123.167 117.863 123.327 117.108 123.647 116.458C123.977 115.808 124.422 115.308 124.982 114.958C125.542 114.608 126.167 114.433 126.857 114.433C127.447 114.433 127.962 114.553 128.402 114.793C128.852 115.033 129.197 115.348 129.437 115.738V114.553H132.002V122.923H129.437V121.738C129.187 122.128 128.837 122.443 128.387 122.683C127.947 122.923 127.432 123.043 126.842 123.043C126.162 123.043 125.542 122.868 124.982 122.518C124.422 122.158 123.977 121.653 123.647 121.003C123.327 120.343 123.167 119.583 123.167 118.723ZM129.437 118.738C129.437 118.098 129.257 117.593 128.897 117.223C128.547 116.853 128.117 116.668 127.607 116.668C127.097 116.668 126.662 116.853 126.302 117.223C125.952 117.583 125.777 118.083 125.777 118.723C125.777 119.363 125.952 119.873 126.302 120.253C126.662 120.623 127.097 120.808 127.607 120.808C128.117 120.808 128.547 120.623 128.897 120.253C129.257 119.883 129.437 119.378 129.437 118.738ZM138.522 120.748V122.923H137.217C136.287 122.923 135.562 122.698 135.042 122.248C134.522 121.788 134.262 121.043 134.262 120.013V116.683H133.242V114.553H134.262V112.513H136.827V114.553H138.507V116.683H136.827V120.043C136.827 120.293 136.887 120.473 137.007 120.583C137.127 120.693 137.327 120.748 137.607 120.748H138.522ZM143.761 123.043C142.941 123.043 142.201 122.868 141.541 122.518C140.891 122.168 140.376 121.668 139.996 121.018C139.626 120.368 139.441 119.608 139.441 118.738C139.441 117.878 139.631 117.123 140.011 116.473C140.391 115.813 140.911 115.308 141.571 114.958C142.231 114.608 142.971 114.433 143.791 114.433C144.611 114.433 145.351 114.608 146.011 114.958C146.671 115.308 147.191 115.813 147.571 116.473C147.951 117.123 148.141 117.878 148.141 118.738C148.141 119.598 147.946 120.358 147.556 121.018C147.176 121.668 146.651 122.168 145.981 122.518C145.321 122.868 144.581 123.043 143.761 123.043ZM143.761 120.823C144.251 120.823 144.666 120.643 145.006 120.283C145.356 119.923 145.531 119.408 145.531 118.738C145.531 118.068 145.361 117.553 145.021 117.193C144.691 116.833 144.281 116.653 143.791 116.653C143.291 116.653 142.876 116.833 142.546 117.193C142.216 117.543 142.051 118.058 142.051 118.738C142.051 119.408 142.211 119.923 142.531 120.283C142.861 120.643 143.271 120.823 143.761 120.823ZM152.067 115.948C152.367 115.488 152.742 115.128 153.192 114.868C153.642 114.598 154.142 114.463 154.692 114.463V117.178H153.987C153.347 117.178 152.867 117.318 152.547 117.598C152.227 117.868 152.067 118.348 152.067 119.038V122.923H149.502V114.553H152.067V115.948ZM159.323 123.043C158.593 123.043 157.943 122.918 157.373 122.668C156.803 122.418 156.353 122.078 156.023 121.648C155.693 121.208 155.508 120.718 155.468 120.178H158.003C158.033 120.468 158.168 120.703 158.408 120.883C158.648 121.063 158.943 121.153 159.293 121.153C159.613 121.153 159.858 121.093 160.028 120.973C160.208 120.843 160.298 120.678 160.298 120.478C160.298 120.238 160.173 120.063 159.923 119.953C159.673 119.833 159.268 119.703 158.708 119.563C158.108 119.423 157.608 119.278 157.208 119.128C156.808 118.968 156.463 118.723 156.173 118.393C155.883 118.053 155.738 117.598 155.738 117.028C155.738 116.548 155.868 116.113 156.128 115.723C156.398 115.323 156.788 115.008 157.298 114.778C157.818 114.548 158.433 114.433 159.143 114.433C160.193 114.433 161.018 114.693 161.618 115.213C162.228 115.733 162.578 116.423 162.668 117.283H160.298C160.258 116.993 160.128 116.763 159.908 116.593C159.698 116.423 159.418 116.338 159.068 116.338C158.768 116.338 158.538 116.398 158.378 116.518C158.218 116.628 158.138 116.783 158.138 116.983C158.138 117.223 158.263 117.403 158.513 117.523C158.773 117.643 159.173 117.763 159.713 117.883C160.333 118.043 160.838 118.203 161.228 118.363C161.618 118.513 161.958 118.763 162.248 119.113C162.548 119.453 162.703 119.913 162.713 120.493C162.713 120.983 162.573 121.423 162.293 121.813C162.023 122.193 161.628 122.493 161.108 122.713C160.598 122.933 160.003 123.043 159.323 123.043Z" fill="black"/><path d="M54.0498 213.406V223.936H51.4848V219.601H47.4948V223.936H44.9298V213.406H47.4948V217.531H51.4848V213.406H54.0498ZM59.7114 224.056C58.8914 224.056 58.1514 223.881 57.4914 223.531C56.8414 223.181 56.3264 222.681 55.9464 222.031C55.5764 221.381 55.3914 220.621 55.3914 219.751C55.3914 218.891 55.5814 218.136 55.9614 217.486C56.3414 216.826 56.8614 216.321 57.5214 215.971C58.1814 215.621 58.9214 215.446 59.7414 215.446C60.5614 215.446 61.3014 215.621 61.9614 215.971C62.6214 216.321 63.1414 216.826 63.5214 217.486C63.9014 218.136 64.0914 218.891 64.0914 219.751C64.0914 220.611 63.8964 221.371 63.5064 222.031C63.1264 222.681 62.6014 223.181 61.9314 223.531C61.2714 223.881 60.5314 224.056 59.7114 224.056ZM59.7114 221.836C60.2014 221.836 60.6164 221.656 60.9564 221.296C61.3064 220.936 61.4814 220.421 61.4814 219.751C61.4814 219.081 61.3114 218.566 60.9714 218.206C60.6414 217.846 60.2314 217.666 59.7414 217.666C59.2414 217.666 58.8264 217.846 58.4964 218.206C58.1664 218.556 58.0014 219.071 58.0014 219.751C58.0014 220.421 58.1614 220.936 58.4814 221.296C58.8114 221.656 59.2214 221.836 59.7114 221.836ZM70.1172 221.761V223.936H68.8122C67.8822 223.936 67.1572 223.711 66.6372 223.261C66.1172 222.801 65.8572 222.056 65.8572 221.026V217.696H64.8372V215.566H65.8572V213.526H68.4222V215.566H70.1022V217.696H68.4222V221.056C68.4222 221.306 68.4822 221.486 68.6022 221.596C68.7222 221.706 68.9222 221.761 69.2022 221.761H70.1172ZM79.436 219.616C79.436 219.856 79.421 220.106 79.391 220.366H73.586C73.626 220.886 73.791 221.286 74.081 221.566C74.381 221.836 74.746 221.971 75.176 221.971C75.816 221.971 76.261 221.701 76.511 221.161H79.241C79.101 221.711 78.846 222.206 78.476 222.646C78.116 223.086 77.661 223.431 77.111 223.681C76.561 223.931 75.946 224.056 75.266 224.056C74.446 224.056 73.716 223.881 73.076 223.531C72.436 223.181 71.936 222.681 71.576 222.031C71.216 221.381 71.036 220.621 71.036 219.751C71.036 218.881 71.211 218.121 71.561 217.471C71.921 216.821 72.421 216.321 73.061 215.971C73.701 215.621 74.436 215.446 75.266 215.446C76.076 215.446 76.796 215.616 77.426 215.956C78.056 216.296 78.546 216.781 78.896 217.411C79.256 218.041 79.436 218.776 79.436 219.616ZM76.811 218.941C76.811 218.501 76.661 218.151 76.361 217.891C76.061 217.631 75.686 217.501 75.236 217.501C74.806 217.501 74.441 217.626 74.141 217.876C73.851 218.126 73.671 218.481 73.601 218.941H76.811ZM83.3541 212.836V223.936H80.7891V212.836H83.3541ZM88.618 224.056C87.888 224.056 87.238 223.931 86.668 223.681C86.098 223.431 85.648 223.091 85.318 222.661C84.988 222.221 84.803 221.731 84.763 221.191H87.298C87.328 221.481 87.463 221.716 87.703 221.896C87.943 222.076 88.238 222.166 88.588 222.166C88.908 222.166 89.153 222.106 89.323 221.986C89.503 221.856 89.593 221.691 89.593 221.491C89.593 221.251 89.468 221.076 89.218 220.966C88.968 220.846 88.563 220.716 88.003 220.576C87.403 220.436 86.903 220.291 86.503 220.141C86.103 219.981 85.758 219.736 85.468 219.406C85.178 219.066 85.033 218.611 85.033 218.041C85.033 217.561 85.163 217.126 85.423 216.736C85.693 216.336 86.083 216.021 86.593 215.791C87.113 215.561 87.728 215.446 88.438 215.446C89.488 215.446 90.313 215.706 90.913 216.226C91.523 216.746 91.873 217.436 91.963 218.296H89.593C89.553 218.006 89.423 217.776 89.203 217.606C88.993 217.436 88.713 217.351 88.363 217.351C88.063 217.351 87.833 217.411 87.673 217.531C87.513 217.641 87.433 217.796 87.433 217.996C87.433 218.236 87.558 218.416 87.808 218.536C88.068 218.656 88.468 218.776 89.008 218.896C89.628 219.056 90.133 219.216 90.523 219.376C90.913 219.526 91.253 219.776 91.543 220.126C91.843 220.466 91.998 220.926 92.008 221.506C92.008 221.996 91.868 222.436 91.588 222.826C91.318 223.206 90.923 223.506 90.403 223.726C89.893 223.946 89.298 224.056 88.618 224.056ZM108.681 213.406V223.936H106.116V217.621L103.761 223.936H101.691L99.3209 217.606V223.936H96.7559V213.406H99.7859L102.741 220.696L105.666 213.406H108.681ZM110.015 219.736C110.015 218.876 110.175 218.121 110.495 217.471C110.825 216.821 111.27 216.321 111.83 215.971C112.39 215.621 113.015 215.446 113.705 215.446C114.295 215.446 114.81 215.566 115.25 215.806C115.7 216.046 116.045 216.361 116.285 216.751V215.566H118.85V223.936H116.285V222.751C116.035 223.141 115.685 223.456 115.235 223.696C114.795 223.936 114.28 224.056 113.69 224.056C113.01 224.056 112.39 223.881 111.83 223.531C111.27 223.171 110.825 222.666 110.495 222.016C110.175 221.356 110.015 220.596 110.015 219.736ZM116.285 219.751C116.285 219.111 116.105 218.606 115.745 218.236C115.395 217.866 114.965 217.681 114.455 217.681C113.945 217.681 113.51 217.866 113.15 218.236C112.8 218.596 112.625 219.096 112.625 219.736C112.625 220.376 112.8 220.886 113.15 221.266C113.51 221.636 113.945 221.821 114.455 221.821C114.965 221.821 115.395 221.636 115.745 221.266C116.105 220.896 116.285 220.391 116.285 219.751ZM125.806 215.476C126.786 215.476 127.566 215.796 128.146 216.436C128.736 217.066 129.031 217.936 129.031 219.046V223.936H126.481V219.391C126.481 218.831 126.336 218.396 126.046 218.086C125.756 217.776 125.366 217.621 124.876 217.621C124.386 217.621 123.996 217.776 123.706 218.086C123.416 218.396 123.271 218.831 123.271 219.391V223.936H120.706V215.566H123.271V216.676C123.531 216.306 123.881 216.016 124.321 215.806C124.761 215.586 125.256 215.476 125.806 215.476ZM130.304 219.736C130.304 218.876 130.464 218.121 130.784 217.471C131.114 216.821 131.559 216.321 132.119 215.971C132.679 215.621 133.304 215.446 133.994 215.446C134.584 215.446 135.099 215.566 135.539 215.806C135.989 216.046 136.334 216.361 136.574 216.751V215.566H139.139V223.936H136.574V222.751C136.324 223.141 135.974 223.456 135.524 223.696C135.084 223.936 134.569 224.056 133.979 224.056C133.299 224.056 132.679 223.881 132.119 223.531C131.559 223.171 131.114 222.666 130.784 222.016C130.464 221.356 130.304 220.596 130.304 219.736ZM136.574 219.751C136.574 219.111 136.394 218.606 136.034 218.236C135.684 217.866 135.254 217.681 134.744 217.681C134.234 217.681 133.799 217.866 133.439 218.236C133.089 218.596 132.914 219.096 132.914 219.736C132.914 220.376 133.089 220.886 133.439 221.266C133.799 221.636 134.234 221.821 134.744 221.821C135.254 221.821 135.684 221.636 136.034 221.266C136.394 220.896 136.574 220.391 136.574 219.751ZM144.174 215.446C144.764 215.446 145.279 215.566 145.719 215.806C146.169 216.046 146.514 216.361 146.754 216.751V215.566H149.319V223.921C149.319 224.691 149.164 225.386 148.854 226.006C148.554 226.636 148.089 227.136 147.459 227.506C146.839 227.876 146.064 228.061 145.134 228.061C143.894 228.061 142.889 227.766 142.119 227.176C141.349 226.596 140.909 225.806 140.799 224.806H143.334C143.414 225.126 143.604 225.376 143.904 225.556C144.204 225.746 144.574 225.841 145.014 225.841C145.544 225.841 145.964 225.686 146.274 225.376C146.594 225.076 146.754 224.591 146.754 223.921V222.736C146.504 223.126 146.159 223.446 145.719 223.696C145.279 223.936 144.764 224.056 144.174 224.056C143.484 224.056 142.859 223.881 142.299 223.531C141.739 223.171 141.294 222.666 140.964 222.016C140.644 221.356 140.484 220.596 140.484 219.736C140.484 218.876 140.644 218.121 140.964 217.471C141.294 216.821 141.739 216.321 142.299 215.971C142.859 215.621 143.484 215.446 144.174 215.446ZM146.754 219.751C146.754 219.111 146.574 218.606 146.214 218.236C145.864 217.866 145.434 217.681 144.924 217.681C144.414 217.681 143.979 217.866 143.619 218.236C143.269 218.596 143.094 219.096 143.094 219.736C143.094 220.376 143.269 220.886 143.619 221.266C143.979 221.636 144.414 221.821 144.924 221.821C145.434 221.821 145.864 221.636 146.214 221.266C146.574 220.896 146.754 220.391 146.754 219.751ZM159.065 219.616C159.065 219.856 159.05 220.106 159.02 220.366H153.215C153.255 220.886 153.42 221.286 153.71 221.566C154.01 221.836 154.375 221.971 154.805 221.971C155.445 221.971 155.89 221.701 156.14 221.161H158.87C158.73 221.711 158.475 222.206 158.105 222.646C157.745 223.086 157.29 223.431 156.74 223.681C156.19 223.931 155.575 224.056 154.895 224.056C154.075 224.056 153.345 223.881 152.705 223.531C152.065 223.181 151.565 222.681 151.205 222.031C150.845 221.381 150.665 220.621 150.665 219.751C150.665 218.881 150.84 218.121 151.19 217.471C151.55 216.821 152.05 216.321 152.69 215.971C153.33 215.621 154.065 215.446 154.895 215.446C155.705 215.446 156.425 215.616 157.055 215.956C157.685 216.296 158.175 216.781 158.525 217.411C158.885 218.041 159.065 218.776 159.065 219.616ZM156.44 218.941C156.44 218.501 156.29 218.151 155.99 217.891C155.69 217.631 155.315 217.501 154.865 217.501C154.435 217.501 154.07 217.626 153.77 217.876C153.48 218.126 153.3 218.481 153.23 218.941H156.44ZM162.983 216.961C163.283 216.501 163.658 216.141 164.108 215.881C164.558 215.611 165.058 215.476 165.608 215.476V218.191H164.903C164.263 218.191 163.783 218.331 163.463 218.611C163.143 218.881 162.983 219.361 162.983 220.051V223.936H160.418V215.566H162.983V216.961Z" fill="black"/><path d="M58.5048 309.093V311.148H55.7148V319.623H53.1498V311.148H50.3598V309.093H58.5048ZM62.3571 312.648C62.6571 312.188 63.0321 311.828 63.4821 311.568C63.9321 311.298 64.4321 311.163 64.9821 311.163V313.878H64.2771C63.6371 313.878 63.1571 314.018 62.8371 314.298C62.5171 314.568 62.3571 315.048 62.3571 315.738V319.623H59.7921V311.253H62.3571V312.648ZM65.6981 315.423C65.6981 314.563 65.8581 313.808 66.1781 313.158C66.5081 312.508 66.9531 312.008 67.5131 311.658C68.0731 311.308 68.6981 311.133 69.3881 311.133C69.9781 311.133 70.4931 311.253 70.9331 311.493C71.3831 311.733 71.7281 312.048 71.9681 312.438V311.253H74.5331V319.623H71.9681V318.438C71.7181 318.828 71.3681 319.143 70.9181 319.383C70.4781 319.623 69.9631 319.743 69.3731 319.743C68.6931 319.743 68.0731 319.568 67.5131 319.218C66.9531 318.858 66.5081 318.353 66.1781 317.703C65.8581 317.043 65.6981 316.283 65.6981 315.423ZM71.9681 315.438C71.9681 314.798 71.7881 314.293 71.4281 313.923C71.0781 313.553 70.6481 313.368 70.1381 313.368C69.6281 313.368 69.1931 313.553 68.8331 313.923C68.4831 314.283 68.3081 314.783 68.3081 315.423C68.3081 316.063 68.4831 316.573 68.8331 316.953C69.1931 317.323 69.6281 317.508 70.1381 317.508C70.6481 317.508 71.0781 317.323 71.4281 316.953C71.7881 316.583 71.9681 316.078 71.9681 315.438ZM80.1537 317.223L81.9687 311.253H84.6987L81.7287 319.623H78.5637L75.5937 311.253H78.3387L80.1537 317.223ZM93.6684 315.303C93.6684 315.543 93.6534 315.793 93.6234 316.053H87.8184C87.8584 316.573 88.0234 316.973 88.3134 317.253C88.6134 317.523 88.9784 317.658 89.4084 317.658C90.0484 317.658 90.4934 317.388 90.7434 316.848H93.4734C93.3334 317.398 93.0784 317.893 92.7084 318.333C92.3484 318.773 91.8934 319.118 91.3434 319.368C90.7934 319.618 90.1784 319.743 89.4984 319.743C88.6784 319.743 87.9484 319.568 87.3084 319.218C86.6684 318.868 86.1684 318.368 85.8084 317.718C85.4484 317.068 85.2684 316.308 85.2684 315.438C85.2684 314.568 85.4434 313.808 85.7934 313.158C86.1534 312.508 86.6534 312.008 87.2934 311.658C87.9334 311.308 88.6684 311.133 89.4984 311.133C90.3084 311.133 91.0284 311.303 91.6584 311.643C92.2884 311.983 92.7784 312.468 93.1284 313.098C93.4884 313.728 93.6684 314.463 93.6684 315.303ZM91.0434 314.628C91.0434 314.188 90.8934 313.838 90.5934 313.578C90.2934 313.318 89.9184 313.188 89.4684 313.188C89.0384 313.188 88.6734 313.313 88.3734 313.563C88.0834 313.813 87.9034 314.168 87.8334 314.628H91.0434ZM97.5866 308.523V319.623H95.0216V308.523H97.5866ZM109.179 317.763H105.249L104.619 319.623H101.934L105.744 309.093H108.714L112.524 319.623H109.809L109.179 317.763ZM108.519 315.783L107.214 311.928L105.924 315.783H108.519ZM116.864 311.133C117.454 311.133 117.969 311.253 118.409 311.493C118.859 311.733 119.204 312.048 119.444 312.438V311.253H122.009V319.608C122.009 320.378 121.854 321.073 121.544 321.693C121.244 322.323 120.779 322.823 120.149 323.193C119.529 323.563 118.754 323.748 117.824 323.748C116.584 323.748 115.579 323.453 114.809 322.863C114.039 322.283 113.599 321.493 113.489 320.493H116.024C116.104 320.813 116.294 321.063 116.594 321.243C116.894 321.433 117.264 321.528 117.704 321.528C118.234 321.528 118.654 321.373 118.964 321.063C119.284 320.763 119.444 320.278 119.444 319.608V318.423C119.194 318.813 118.849 319.133 118.409 319.383C117.969 319.623 117.454 319.743 116.864 319.743C116.174 319.743 115.549 319.568 114.989 319.218C114.429 318.858 113.984 318.353 113.654 317.703C113.334 317.043 113.174 316.283 113.174 315.423C113.174 314.563 113.334 313.808 113.654 313.158C113.984 312.508 114.429 312.008 114.989 311.658C115.549 311.308 116.174 311.133 116.864 311.133ZM119.444 315.438C119.444 314.798 119.264 314.293 118.904 313.923C118.554 313.553 118.124 313.368 117.614 313.368C117.104 313.368 116.669 313.553 116.309 313.923C115.959 314.283 115.784 314.783 115.784 315.423C115.784 316.063 115.959 316.573 116.309 316.953C116.669 317.323 117.104 317.508 117.614 317.508C118.124 317.508 118.554 317.323 118.904 316.953C119.264 316.583 119.444 316.078 119.444 315.438ZM131.754 315.303C131.754 315.543 131.739 315.793 131.709 316.053H125.904C125.944 316.573 126.109 316.973 126.399 317.253C126.699 317.523 127.064 317.658 127.494 317.658C128.134 317.658 128.579 317.388 128.829 316.848H131.559C131.419 317.398 131.164 317.893 130.794 318.333C130.434 318.773 129.979 319.118 129.429 319.368C128.879 319.618 128.264 319.743 127.584 319.743C126.764 319.743 126.034 319.568 125.394 319.218C124.754 318.868 124.254 318.368 123.894 317.718C123.534 317.068 123.354 316.308 123.354 315.438C123.354 314.568 123.529 313.808 123.879 313.158C124.239 312.508 124.739 312.008 125.379 311.658C126.019 311.308 126.754 311.133 127.584 311.133C128.394 311.133 129.114 311.303 129.744 311.643C130.374 311.983 130.864 312.468 131.214 313.098C131.574 313.728 131.754 314.463 131.754 315.303ZM129.129 314.628C129.129 314.188 128.979 313.838 128.679 313.578C128.379 313.318 128.004 313.188 127.554 313.188C127.124 313.188 126.759 313.313 126.459 313.563C126.169 313.813 125.989 314.168 125.919 314.628H129.129ZM138.207 311.163C139.187 311.163 139.967 311.483 140.547 312.123C141.137 312.753 141.432 313.623 141.432 314.733V319.623H138.882V315.078C138.882 314.518 138.737 314.083 138.447 313.773C138.157 313.463 137.767 313.308 137.277 313.308C136.787 313.308 136.397 313.463 136.107 313.773C135.817 314.083 135.672 314.518 135.672 315.078V319.623H133.107V311.253H135.672V312.363C135.932 311.993 136.282 311.703 136.722 311.493C137.162 311.273 137.657 311.163 138.207 311.163ZM142.705 315.438C142.705 314.568 142.88 313.808 143.23 313.158C143.59 312.508 144.085 312.008 144.715 311.658C145.355 311.308 146.085 311.133 146.905 311.133C147.955 311.133 148.83 311.408 149.53 311.958C150.24 312.508 150.705 313.283 150.925 314.283H148.195C147.965 313.643 147.52 313.323 146.86 313.323C146.39 313.323 146.015 313.508 145.735 313.878C145.455 314.238 145.315 314.758 145.315 315.438C145.315 316.118 145.455 316.643 145.735 317.013C146.015 317.373 146.39 317.553 146.86 317.553C147.52 317.553 147.965 317.233 148.195 316.593H150.925C150.705 317.573 150.24 318.343 149.53 318.903C148.82 319.463 147.945 319.743 146.905 319.743C146.085 319.743 145.355 319.568 144.715 319.218C144.085 318.868 143.59 318.368 143.23 317.718C142.88 317.068 142.705 316.308 142.705 315.438ZM160.847 311.253L155.597 323.598H152.837L154.757 319.338L151.352 311.253H154.217L156.152 316.488L158.072 311.253H160.847Z" fill="black"/><path d="M98.9517 384.356C98.9517 383.677 98.9377 382.997 98.9567 382.319C98.9425 382.206 98.9539 382.092 98.99 381.984C99.0262 381.876 99.0862 381.778 99.1657 381.696C99.2451 381.614 99.342 381.551 99.4491 381.512C99.5563 381.472 99.671 381.457 99.7848 381.468C101.195 381.44 102.606 381.435 104.016 381.46C104.601 381.471 104.86 381.77 104.866 382.363C104.879 383.698 104.879 385.034 104.866 386.37C104.86 386.961 104.596 387.246 104.007 387.255C102.619 387.277 101.232 387.277 99.8437 387.255C99.2287 387.245 98.9747 386.969 98.9577 386.361C98.9377 385.692 98.9517 385.024 98.9517 384.356Z" fill="black"/><path d="M97.9607 384.349C97.9607 385.017 97.9507 385.685 97.9607 386.353C97.9707 386.84 97.7797 387.049 97.2947 386.974C96.0859 386.802 94.9021 386.486 93.7687 386.034C93.5448 385.955 93.3512 385.809 93.2145 385.616C93.0778 385.423 93.0049 385.192 93.0057 384.956C92.9917 384.544 92.9917 384.132 93.0057 383.722C93.0072 383.507 93.0729 383.298 93.1943 383.121C93.3158 382.944 93.4876 382.807 93.6877 382.727C94.8762 382.233 96.1265 381.9 97.4047 381.738C97.7807 381.685 97.9657 381.922 97.9597 382.347C97.9497 383.014 97.9597 383.683 97.9597 384.35L97.9607 384.349Z" fill="black"/><path d="M101.918 380.475C101.258 380.475 100.597 380.467 99.9358 380.475C99.3678 380.485 99.1708 380.277 99.2668 379.734C99.4496 378.578 99.7643 377.447 100.205 376.363C100.288 376.136 100.44 375.94 100.639 375.802C100.838 375.664 101.076 375.59 101.319 375.591C101.719 375.578 102.125 375.582 102.529 375.591C102.761 375.591 102.987 375.66 103.178 375.79C103.37 375.921 103.516 376.106 103.599 376.321C104.072 377.465 104.403 378.661 104.583 379.885C104.644 380.252 104.409 380.475 104 380.474L101.918 380.475Z" fill="black"/><path d="M105.865 384.351C105.865 383.683 105.87 383.015 105.865 382.348C105.865 381.868 106.041 381.68 106.519 381.751C107.75 381.92 108.956 382.241 110.107 382.709C110.303 382.782 110.474 382.911 110.598 383.079C110.722 383.247 110.795 383.448 110.807 383.656C110.838 384.133 110.835 384.612 110.798 385.089C110.783 385.291 110.711 385.485 110.589 385.648C110.467 385.81 110.301 385.935 110.11 386.007C108.949 386.48 107.733 386.807 106.491 386.98C106.049 387.05 105.859 386.844 105.863 386.383C105.869 385.708 105.865 385.029 105.865 384.351Z" fill="black"/><path d="M101.911 388.249C102.56 388.249 103.211 388.26 103.859 388.249C104.477 388.236 104.69 388.431 104.543 389.019C104.268 390.118 103.968 391.212 103.643 392.301C103.566 392.561 103.402 392.788 103.177 392.942C102.952 393.096 102.68 393.168 102.408 393.146C102.061 393.146 101.708 393.154 101.366 393.146C101.112 393.151 100.863 393.077 100.653 392.934C100.443 392.792 100.284 392.588 100.197 392.35C99.7466 391.221 99.4272 390.045 99.2448 388.844C99.1848 388.484 99.4278 388.248 99.8318 388.259C100.526 388.283 101.22 388.318 101.913 388.348L101.911 388.249Z" fill="black"/><path d="M104.259 393.314C105.034 393.254 105.824 393.254 106.593 393.126C107.91 392.987 109.178 392.553 110.302 391.857C111.426 391.161 112.376 390.22 113.082 389.106C113.788 387.992 114.23 386.733 114.376 385.424C114.522 384.116 114.368 382.791 113.925 381.55C113.092 379.039 111.428 376.882 109.206 375.43C109.059 375.331 108.916 375.231 108.754 375.114L109.467 374.156C111.569 375.57 113.221 377.552 114.228 379.868C115.04 381.659 115.313 383.647 115.014 385.589C114.815 387.016 114.265 388.373 113.411 389.537C112.558 390.702 111.428 391.638 110.122 392.263C108.307 393.157 106.274 393.522 104.259 393.314Z" fill="black"/><path d="M104.475 375.816C104.264 375.663 104.066 375.493 103.883 375.308C103.807 375.19 103.78 375.048 103.805 374.91C103.936 374.085 104.076 373.261 104.235 372.441C104.264 372.352 104.261 372.257 104.226 372.171C104.19 372.085 104.125 372.014 104.042 371.972C103.573 371.669 103.104 371.36 102.658 371.024C102.406 370.841 102.185 370.62 102.003 370.368C101.959 370.304 101.934 370.228 101.934 370.149C101.933 370.071 101.955 369.994 101.998 369.929C102.04 369.863 102.101 369.811 102.173 369.78C102.246 369.749 102.325 369.739 102.403 369.753C102.678 369.798 102.942 369.892 103.184 370.029C103.711 370.328 104.225 370.644 104.732 370.972C104.799 371.027 104.884 371.058 104.971 371.058C105.059 371.058 105.143 371.027 105.211 370.972C105.836 370.559 106.471 370.16 107.105 369.759C107.686 369.392 107.834 369.404 108.443 369.871L106.192 371.887C106.804 372.31 107.392 372.721 107.983 373.118C108.028 373.143 108.079 373.158 108.13 373.162C108.182 373.165 108.234 373.158 108.283 373.14C108.454 373.06 108.646 373.033 108.833 373.065C109.019 373.096 109.192 373.182 109.328 373.314L108.728 373.811L108.896 374.379L108.288 374.479L108.067 375.202C107.715 374.991 107.452 374.768 107.49 374.329C107.488 374.277 107.475 374.226 107.45 374.18C107.426 374.133 107.392 374.093 107.35 374.062C106.75 373.681 106.131 373.314 105.494 372.929L104.475 375.816Z" fill="black"/><path d="M93.5487 387.468C93.5367 387.148 93.6717 387.084 93.9987 387.17C94.6777 387.36 95.3537 387.561 96.0387 387.728C96.4827 387.836 96.9387 387.898 97.3937 387.973C97.6 387.999 97.7925 388.09 97.9422 388.234C98.092 388.377 98.1911 388.565 98.2247 388.769C98.4917 389.895 98.7767 391.017 99.0447 392.142C99.0727 392.261 99.0597 392.496 99.0237 392.505C98.8704 392.549 98.7074 392.546 98.5557 392.497C96.4134 391.656 94.6873 390.014 93.7467 387.924C93.6707 387.757 93.6017 387.582 93.5487 387.468Z" fill="black"/><path d="M93.8137 381.59C93.5577 381.59 93.5017 381.433 93.5707 381.235C93.6637 380.972 93.7753 380.716 93.9047 380.469C94.8625 378.565 96.4796 377.068 98.4587 376.254C98.5179 376.222 98.5816 376.199 98.6477 376.186C98.7737 376.176 98.9477 376.135 99.0147 376.198C99.0457 376.253 99.0647 376.314 99.0706 376.377C99.0764 376.44 99.069 376.503 99.0487 376.563C98.9107 377.08 98.7317 377.585 98.6057 378.104C98.4567 378.72 98.3417 379.347 98.2207 379.97C98.1933 380.159 98.1062 380.334 97.9722 380.471C97.8381 380.607 97.6639 380.697 97.4747 380.729L93.9487 381.561C93.9047 381.57 93.8607 381.576 93.8137 381.59Z" fill="black"/><path d="M104.699 392.421C104.742 392.265 104.761 392.2 104.777 392.135C105.049 391.034 105.331 389.933 105.587 388.828C105.617 388.607 105.72 388.402 105.881 388.247C106.042 388.091 106.251 387.994 106.475 387.971C107.546 387.743 108.61 387.474 109.675 387.227C109.718 387.217 109.759 387.184 109.801 387.184C109.94 387.184 110.131 387.139 110.201 387.21C110.231 387.272 110.247 387.34 110.247 387.409C110.247 387.478 110.231 387.546 110.201 387.607C109.959 388.146 109.684 388.669 109.377 389.173C108.392 390.682 106.959 391.847 105.277 392.508C105.194 392.542 105.099 392.602 105.024 392.585C104.909 392.544 104.8 392.489 104.699 392.421Z" fill="black"/><path d="M109.977 381.586C109.914 381.568 109.829 381.542 109.742 381.52C108.654 381.264 107.568 380.995 106.475 380.757C106.251 380.732 106.043 380.634 105.882 380.478C105.721 380.322 105.617 380.117 105.587 379.896C105.333 378.79 105.049 377.69 104.787 376.587C104.757 376.459 104.744 376.26 104.814 376.197C104.876 376.168 104.945 376.153 105.014 376.153C105.083 376.153 105.151 376.168 105.214 376.197C106.331 376.626 107.349 377.277 108.205 378.11C109.061 378.943 109.737 379.942 110.191 381.044C110.349 381.42 110.277 381.598 109.977 381.586Z" fill="black"/><path d="M34.0167 409.637V411.692H31.2267V420.167H28.6617V411.692H25.8717V409.637H34.0167ZM37.869 413.192C38.169 412.732 38.544 412.372 38.994 412.112C39.444 411.842 39.944 411.707 40.494 411.707V414.422H39.789C39.149 414.422 38.669 414.562 38.349 414.842C38.029 415.112 37.869 415.592 37.869 416.282V420.167H35.304V411.797H37.869V413.192ZM41.21 415.967C41.21 415.107 41.37 414.352 41.69 413.702C42.02 413.052 42.465 412.552 43.025 412.202C43.585 411.852 44.21 411.677 44.9 411.677C45.49 411.677 46.005 411.797 46.445 412.037C46.895 412.277 47.24 412.592 47.48 412.982V411.797H50.045V420.167H47.48V418.982C47.23 419.372 46.88 419.687 46.43 419.927C45.99 420.167 45.475 420.287 44.885 420.287C44.205 420.287 43.585 420.112 43.025 419.762C42.465 419.402 42.02 418.897 41.69 418.247C41.37 417.587 41.21 416.827 41.21 415.967ZM47.48 415.982C47.48 415.342 47.3 414.837 46.94 414.467C46.59 414.097 46.16 413.912 45.65 413.912C45.14 413.912 44.705 414.097 44.345 414.467C43.995 414.827 43.82 415.327 43.82 415.967C43.82 416.607 43.995 417.117 44.345 417.497C44.705 417.867 45.14 418.052 45.65 418.052C46.16 418.052 46.59 417.867 46.94 417.497C47.3 417.127 47.48 416.622 47.48 415.982ZM55.6657 417.767L57.4807 411.797H60.2107L57.2407 420.167H54.0757L51.1057 411.797H53.8507L55.6657 417.767ZM69.1804 415.847C69.1804 416.087 69.1654 416.337 69.1354 416.597H63.3304C63.3704 417.117 63.5354 417.517 63.8254 417.797C64.1254 418.067 64.4904 418.202 64.9204 418.202C65.5604 418.202 66.0054 417.932 66.2554 417.392H68.9854C68.8454 417.942 68.5904 418.437 68.2204 418.877C67.8604 419.317 67.4054 419.662 66.8554 419.912C66.3054 420.162 65.6904 420.287 65.0104 420.287C64.1904 420.287 63.4604 420.112 62.8204 419.762C62.1804 419.412 61.6804 418.912 61.3204 418.262C60.9604 417.612 60.7804 416.852 60.7804 415.982C60.7804 415.112 60.9554 414.352 61.3054 413.702C61.6654 413.052 62.1654 412.552 62.8054 412.202C63.4454 411.852 64.1804 411.677 65.0104 411.677C65.8204 411.677 66.5404 411.847 67.1704 412.187C67.8004 412.527 68.2904 413.012 68.6404 413.642C69.0004 414.272 69.1804 415.007 69.1804 415.847ZM66.5554 415.172C66.5554 414.732 66.4054 414.382 66.1054 414.122C65.8054 413.862 65.4304 413.732 64.9804 413.732C64.5504 413.732 64.1854 413.857 63.8854 414.107C63.5954 414.357 63.4154 414.712 63.3454 415.172H66.5554ZM73.0985 409.067V420.167H70.5335V409.067H73.0985ZM88.8161 411.707C89.8561 411.707 90.6811 412.022 91.2911 412.652C91.9111 413.282 92.2211 414.157 92.2211 415.277V420.167H89.6711V415.622C89.6711 415.082 89.5261 414.667 89.2361 414.377C88.9561 414.077 88.5661 413.927 88.0661 413.927C87.5661 413.927 87.1711 414.077 86.8811 414.377C86.6011 414.667 86.4611 415.082 86.4611 415.622V420.167H83.9111V415.622C83.9111 415.082 83.7661 414.667 83.4761 414.377C83.1961 414.077 82.8061 413.927 82.3061 413.927C81.8061 413.927 81.4111 414.077 81.1211 414.377C80.8411 414.667 80.7011 415.082 80.7011 415.622V420.167H78.1361V411.797H80.7011V412.847C80.9611 412.497 81.3011 412.222 81.7211 412.022C82.1411 411.812 82.6161 411.707 83.1461 411.707C83.7761 411.707 84.3361 411.842 84.8261 412.112C85.3261 412.382 85.7161 412.767 85.9961 413.267C86.2861 412.807 86.6811 412.432 87.1811 412.142C87.6811 411.852 88.2261 411.707 88.8161 411.707ZM93.505 415.967C93.505 415.107 93.665 414.352 93.985 413.702C94.315 413.052 94.76 412.552 95.32 412.202C95.88 411.852 96.505 411.677 97.195 411.677C97.785 411.677 98.3 411.797 98.74 412.037C99.19 412.277 99.535 412.592 99.775 412.982V411.797H102.34V420.167H99.775V418.982C99.525 419.372 99.175 419.687 98.725 419.927C98.285 420.167 97.77 420.287 97.18 420.287C96.5 420.287 95.88 420.112 95.32 419.762C94.76 419.402 94.315 418.897 93.985 418.247C93.665 417.587 93.505 416.827 93.505 415.967ZM99.775 415.982C99.775 415.342 99.595 414.837 99.235 414.467C98.885 414.097 98.455 413.912 97.945 413.912C97.435 413.912 97 414.097 96.64 414.467C96.29 414.827 96.115 415.327 96.115 415.967C96.115 416.607 96.29 417.117 96.64 417.497C97 417.867 97.435 418.052 97.945 418.052C98.455 418.052 98.885 417.867 99.235 417.497C99.595 417.127 99.775 416.622 99.775 415.982ZM109.296 411.707C110.276 411.707 111.056 412.027 111.636 412.667C112.226 413.297 112.521 414.167 112.521 415.277V420.167H109.971V415.622C109.971 415.062 109.826 414.627 109.536 414.317C109.246 414.007 108.856 413.852 108.366 413.852C107.876 413.852 107.486 414.007 107.196 414.317C106.906 414.627 106.761 415.062 106.761 415.622V420.167H104.196V411.797H106.761V412.907C107.021 412.537 107.371 412.247 107.811 412.037C108.251 411.817 108.746 411.707 109.296 411.707ZM113.793 415.967C113.793 415.107 113.953 414.352 114.273 413.702C114.603 413.052 115.048 412.552 115.608 412.202C116.168 411.852 116.793 411.677 117.483 411.677C118.073 411.677 118.588 411.797 119.028 412.037C119.478 412.277 119.823 412.592 120.063 412.982V411.797H122.628V420.167H120.063V418.982C119.813 419.372 119.463 419.687 119.013 419.927C118.573 420.167 118.058 420.287 117.468 420.287C116.788 420.287 116.168 420.112 115.608 419.762C115.048 419.402 114.603 418.897 114.273 418.247C113.953 417.587 113.793 416.827 113.793 415.967ZM120.063 415.982C120.063 415.342 119.883 414.837 119.523 414.467C119.173 414.097 118.743 413.912 118.233 413.912C117.723 413.912 117.288 414.097 116.928 414.467C116.578 414.827 116.403 415.327 116.403 415.967C116.403 416.607 116.578 417.117 116.928 417.497C117.288 417.867 117.723 418.052 118.233 418.052C118.743 418.052 119.173 417.867 119.523 417.497C119.883 417.127 120.063 416.622 120.063 415.982ZM127.664 411.677C128.254 411.677 128.769 411.797 129.209 412.037C129.659 412.277 130.004 412.592 130.244 412.982V411.797H132.809V420.152C132.809 420.922 132.654 421.617 132.344 422.237C132.044 422.867 131.579 423.367 130.949 423.737C130.329 424.107 129.554 424.292 128.624 424.292C127.384 424.292 126.379 423.997 125.609 423.407C124.839 422.827 124.399 422.037 124.289 421.037H126.824C126.904 421.357 127.094 421.607 127.394 421.787C127.694 421.977 128.064 422.072 128.504 422.072C129.034 422.072 129.454 421.917 129.764 421.607C130.084 421.307 130.244 420.822 130.244 420.152V418.967C129.994 419.357 129.649 419.677 129.209 419.927C128.769 420.167 128.254 420.287 127.664 420.287C126.974 420.287 126.349 420.112 125.789 419.762C125.229 419.402 124.784 418.897 124.454 418.247C124.134 417.587 123.974 416.827 123.974 415.967C123.974 415.107 124.134 414.352 124.454 413.702C124.784 413.052 125.229 412.552 125.789 412.202C126.349 411.852 126.974 411.677 127.664 411.677ZM130.244 415.982C130.244 415.342 130.064 414.837 129.704 414.467C129.354 414.097 128.924 413.912 128.414 413.912C127.904 413.912 127.469 414.097 127.109 414.467C126.759 414.827 126.584 415.327 126.584 415.967C126.584 416.607 126.759 417.117 127.109 417.497C127.469 417.867 127.904 418.052 128.414 418.052C128.924 418.052 129.354 417.867 129.704 417.497C130.064 417.127 130.244 416.622 130.244 415.982ZM142.554 415.847C142.554 416.087 142.539 416.337 142.509 416.597H136.704C136.744 417.117 136.909 417.517 137.199 417.797C137.499 418.067 137.864 418.202 138.294 418.202C138.934 418.202 139.379 417.932 139.629 417.392H142.359C142.219 417.942 141.964 418.437 141.594 418.877C141.234 419.317 140.779 419.662 140.229 419.912C139.679 420.162 139.064 420.287 138.384 420.287C137.564 420.287 136.834 420.112 136.194 419.762C135.554 419.412 135.054 418.912 134.694 418.262C134.334 417.612 134.154 416.852 134.154 415.982C134.154 415.112 134.329 414.352 134.679 413.702C135.039 413.052 135.539 412.552 136.179 412.202C136.819 411.852 137.554 411.677 138.384 411.677C139.194 411.677 139.914 411.847 140.544 412.187C141.174 412.527 141.664 413.012 142.014 413.642C142.374 414.272 142.554 415.007 142.554 415.847ZM139.929 415.172C139.929 414.732 139.779 414.382 139.479 414.122C139.179 413.862 138.804 413.732 138.354 413.732C137.924 413.732 137.559 413.857 137.259 414.107C136.969 414.357 136.789 414.712 136.719 415.172H139.929ZM154.588 411.707C155.628 411.707 156.453 412.022 157.063 412.652C157.683 413.282 157.993 414.157 157.993 415.277V420.167H155.443V415.622C155.443 415.082 155.298 414.667 155.008 414.377C154.728 414.077 154.338 413.927 153.838 413.927C153.338 413.927 152.943 414.077 152.653 414.377C152.373 414.667 152.233 415.082 152.233 415.622V420.167H149.683V415.622C149.683 415.082 149.538 414.667 149.248 414.377C148.968 414.077 148.578 413.927 148.078 413.927C147.578 413.927 147.183 414.077 146.893 414.377C146.613 414.667 146.473 415.082 146.473 415.622V420.167H143.908V411.797H146.473V412.847C146.733 412.497 147.073 412.222 147.493 412.022C147.913 411.812 148.388 411.707 148.918 411.707C149.548 411.707 150.108 411.842 150.598 412.112C151.098 412.382 151.488 412.767 151.768 413.267C152.058 412.807 152.453 412.432 152.953 412.142C153.453 411.852 153.998 411.707 154.588 411.707ZM167.676 415.847C167.676 416.087 167.661 416.337 167.631 416.597H161.826C161.866 417.117 162.031 417.517 162.321 417.797C162.621 418.067 162.986 418.202 163.416 418.202C164.056 418.202 164.501 417.932 164.751 417.392H167.481C167.341 417.942 167.086 418.437 166.716 418.877C166.356 419.317 165.901 419.662 165.351 419.912C164.801 420.162 164.186 420.287 163.506 420.287C162.686 420.287 161.956 420.112 161.316 419.762C160.676 419.412 160.176 418.912 159.816 418.262C159.456 417.612 159.276 416.852 159.276 415.982C159.276 415.112 159.451 414.352 159.801 413.702C160.161 413.052 160.661 412.552 161.301 412.202C161.941 411.852 162.676 411.677 163.506 411.677C164.316 411.677 165.036 411.847 165.666 412.187C166.296 412.527 166.786 413.012 167.136 413.642C167.496 414.272 167.676 415.007 167.676 415.847ZM165.051 415.172C165.051 414.732 164.901 414.382 164.601 414.122C164.301 413.862 163.926 413.732 163.476 413.732C163.046 413.732 162.681 413.857 162.381 414.107C162.091 414.357 161.911 414.712 161.841 415.172H165.051ZM174.13 411.707C175.11 411.707 175.89 412.027 176.47 412.667C177.06 413.297 177.355 414.167 177.355 415.277V420.167H174.805V415.622C174.805 415.062 174.66 414.627 174.37 414.317C174.08 414.007 173.69 413.852 173.2 413.852C172.71 413.852 172.32 414.007 172.03 414.317C171.74 414.627 171.595 415.062 171.595 415.622V420.167H169.03V411.797H171.595V412.907C171.855 412.537 172.205 412.247 172.645 412.037C173.085 411.817 173.58 411.707 174.13 411.707ZM183.802 417.992V420.167H182.497C181.567 420.167 180.842 419.942 180.322 419.492C179.802 419.032 179.542 418.287 179.542 417.257V413.927H178.522V411.797H179.542V409.757H182.107V411.797H183.787V413.927H182.107V417.287C182.107 417.537 182.167 417.717 182.287 417.827C182.407 417.937 182.607 417.992 182.887 417.992H183.802Z" fill="black"/><path d="M66.4247 437.954C66.4247 436.914 66.6497 435.989 67.0997 435.179C67.5497 434.359 68.1747 433.724 68.9747 433.274C69.7847 432.814 70.6997 432.584 71.7197 432.584C72.9697 432.584 74.0397 432.914 74.9297 433.574C75.8197 434.234 76.4147 435.134 76.7147 436.274H73.8947C73.6847 435.834 73.3847 435.499 72.9947 435.269C72.6147 435.039 72.1797 434.924 71.6897 434.924C70.8997 434.924 70.2597 435.199 69.7697 435.749C69.2797 436.299 69.0347 437.034 69.0347 437.954C69.0347 438.874 69.2797 439.609 69.7697 440.159C70.2597 440.709 70.8997 440.984 71.6897 440.984C72.1797 440.984 72.6147 440.869 72.9947 440.639C73.3847 440.409 73.6847 440.074 73.8947 439.634H76.7147C76.4147 440.774 75.8197 441.674 74.9297 442.334C74.0397 442.984 72.9697 443.309 71.7197 443.309C70.6997 443.309 69.7847 443.084 68.9747 442.634C68.1747 442.174 67.5497 441.539 67.0997 440.729C66.6497 439.919 66.4247 438.994 66.4247 437.954ZM82.0955 443.354C81.2755 443.354 80.5355 443.179 79.8755 442.829C79.2255 442.479 78.7105 441.979 78.3305 441.329C77.9605 440.679 77.7755 439.919 77.7755 439.049C77.7755 438.189 77.9655 437.434 78.3455 436.784C78.7255 436.124 79.2455 435.619 79.9055 435.269C80.5655 434.919 81.3055 434.744 82.1255 434.744C82.9455 434.744 83.6855 434.919 84.3455 435.269C85.0055 435.619 85.5255 436.124 85.9055 436.784C86.2855 437.434 86.4755 438.189 86.4755 439.049C86.4755 439.909 86.2805 440.669 85.8905 441.329C85.5105 441.979 84.9855 442.479 84.3155 442.829C83.6555 443.179 82.9155 443.354 82.0955 443.354ZM82.0955 441.134C82.5855 441.134 83.0005 440.954 83.3405 440.594C83.6905 440.234 83.8655 439.719 83.8655 439.049C83.8655 438.379 83.6955 437.864 83.3555 437.504C83.0255 437.144 82.6155 436.964 82.1255 436.964C81.6255 436.964 81.2105 437.144 80.8805 437.504C80.5505 437.854 80.3855 438.369 80.3855 439.049C80.3855 439.719 80.5455 440.234 80.8655 440.594C81.1955 440.954 81.6055 441.134 82.0955 441.134ZM98.5163 434.774C99.5563 434.774 100.381 435.089 100.991 435.719C101.611 436.349 101.921 437.224 101.921 438.344V443.234H99.3713V438.689C99.3713 438.149 99.2263 437.734 98.9363 437.444C98.6563 437.144 98.2663 436.994 97.7663 436.994C97.2663 436.994 96.8713 437.144 96.5813 437.444C96.3013 437.734 96.1613 438.149 96.1613 438.689V443.234H93.6113V438.689C93.6113 438.149 93.4663 437.734 93.1763 437.444C92.8963 437.144 92.5063 436.994 92.0063 436.994C91.5063 436.994 91.1113 437.144 90.8213 437.444C90.5413 437.734 90.4013 438.149 90.4013 438.689V443.234H87.8363V434.864H90.4013V435.914C90.6613 435.564 91.0013 435.289 91.4213 435.089C91.8413 434.879 92.3163 434.774 92.8463 434.774C93.4763 434.774 94.0363 434.909 94.5263 435.179C95.0263 435.449 95.4163 435.834 95.6963 436.334C95.9863 435.874 96.3813 435.499 96.8813 435.209C97.3813 434.919 97.9263 434.774 98.5163 434.774ZM106.28 436.049C106.53 435.659 106.875 435.344 107.315 435.104C107.755 434.864 108.27 434.744 108.86 434.744C109.55 434.744 110.175 434.919 110.735 435.269C111.295 435.619 111.735 436.119 112.055 436.769C112.385 437.419 112.55 438.174 112.55 439.034C112.55 439.894 112.385 440.654 112.055 441.314C111.735 441.964 111.295 442.469 110.735 442.829C110.175 443.179 109.55 443.354 108.86 443.354C108.28 443.354 107.765 443.234 107.315 442.994C106.875 442.754 106.53 442.444 106.28 442.064V447.224H103.715V434.864H106.28V436.049ZM109.94 439.034C109.94 438.394 109.76 437.894 109.4 437.534C109.05 437.164 108.615 436.979 108.095 436.979C107.585 436.979 107.15 437.164 106.79 437.534C106.44 437.904 106.265 438.409 106.265 439.049C106.265 439.689 106.44 440.194 106.79 440.564C107.15 440.934 107.585 441.119 108.095 441.119C108.605 441.119 109.04 440.934 109.4 440.564C109.76 440.184 109.94 439.674 109.94 439.034ZM113.386 439.034C113.386 438.174 113.546 437.419 113.866 436.769C114.196 436.119 114.641 435.619 115.201 435.269C115.761 434.919 116.386 434.744 117.076 434.744C117.666 434.744 118.181 434.864 118.621 435.104C119.071 435.344 119.416 435.659 119.656 436.049V434.864H122.221V443.234H119.656V442.049C119.406 442.439 119.056 442.754 118.606 442.994C118.166 443.234 117.651 443.354 117.061 443.354C116.381 443.354 115.761 443.179 115.201 442.829C114.641 442.469 114.196 441.964 113.866 441.314C113.546 440.654 113.386 439.894 113.386 439.034ZM119.656 439.049C119.656 438.409 119.476 437.904 119.116 437.534C118.766 437.164 118.336 436.979 117.826 436.979C117.316 436.979 116.881 437.164 116.521 437.534C116.171 437.894 115.996 438.394 115.996 439.034C115.996 439.674 116.171 440.184 116.521 440.564C116.881 440.934 117.316 441.119 117.826 441.119C118.336 441.119 118.766 440.934 119.116 440.564C119.476 440.194 119.656 439.689 119.656 439.049ZM129.176 434.774C130.156 434.774 130.936 435.094 131.516 435.734C132.106 436.364 132.401 437.234 132.401 438.344V443.234H129.851V438.689C129.851 438.129 129.706 437.694 129.416 437.384C129.126 437.074 128.736 436.919 128.246 436.919C127.756 436.919 127.366 437.074 127.076 437.384C126.786 437.694 126.641 438.129 126.641 438.689V443.234H124.076V434.864H126.641V435.974C126.901 435.604 127.251 435.314 127.691 435.104C128.131 434.884 128.626 434.774 129.176 434.774ZM142.734 434.864L137.484 447.209H134.724L136.644 442.949L133.239 434.864H136.104L138.039 440.099L139.959 434.864H142.734Z" fill="black"/><path d="M117.432 83.8312C117.367 84.2946 117.314 84.7609 117.232 85.2232C116.956 86.8718 116.328 88.4428 115.392 89.8308C113.929 92.044 111.769 93.7121 109.251 94.5735C108.585 94.8082 107.883 94.9454 107.185 95.1313L107.115 93.6111C109.128 93.2573 110.997 92.3366 112.5 90.9583C112.288 90.7768 112.148 90.5258 112.105 90.2507C112.062 89.9756 112.12 89.6944 112.268 89.4579C112.283 89.4179 112.295 89.3771 112.305 89.3356C112.413 88.9379 112.332 88.7709 111.951 88.6098C111.91 88.5966 111.87 88.5804 111.832 88.5611C111.667 88.4557 111.401 88.3751 111.36 88.2319C111.305 88.0721 111.299 87.8999 111.34 87.7363C111.382 87.5728 111.471 87.4247 111.596 87.3102C111.782 87.159 111.978 87.0208 112.183 86.8966C112.633 86.5983 112.693 86.3388 112.383 85.8944C112.272 85.7097 112.113 85.5581 111.923 85.4557C111.733 85.3534 111.519 85.304 111.303 85.3127C110.817 85.3261 110.341 85.1824 109.945 84.9031C109.781 84.8058 109.648 84.6638 109.563 84.4939C109.477 84.3241 109.443 84.1334 109.463 83.9446C109.51 83.6718 109.46 83.3911 109.321 83.1513C109.181 82.9115 108.962 82.7278 108.701 82.6321C108.435 82.5118 108.167 82.3975 107.901 82.2821C107.626 82.1982 107.396 82.0091 107.261 81.7565C107.126 81.5039 107.098 81.2083 107.182 80.9349C107.236 80.5644 107.393 80.2165 107.636 79.9307C107.879 79.6449 108.198 79.4327 108.557 79.3181C109.146 79.1287 109.691 78.8219 110.157 78.4163C110.466 78.1827 110.706 77.8704 110.852 77.5123C110.998 77.1543 111.044 76.7638 110.985 76.382C110.857 75.2559 110.297 74.2225 109.42 73.4986C109.172 73.3319 108.897 73.2089 108.607 73.1347C107.63 72.7752 106.591 72.6087 105.55 72.6445C105.14 72.676 104.737 72.7606 104.35 72.8961C104.247 72.9118 104.151 72.9586 104.076 73.0301C104 73.1017 103.949 73.1946 103.928 73.2962C103.907 73.3978 103.919 73.5033 103.96 73.5984C104.002 73.6934 104.072 73.7735 104.161 73.8277C104.503 74.0986 104.871 74.3345 105.261 74.5316C105.611 74.7305 105.984 74.8886 106.343 75.0715C106.442 75.1239 106.534 75.1865 106.62 75.2585C107.003 75.5747 107.014 75.9127 106.62 76.218C106.194 76.5501 105.736 76.8404 105.307 77.1685C105.116 77.3133 104.949 77.4867 104.812 77.6826C104.76 77.7493 104.725 77.8271 104.709 77.9099C104.692 77.9926 104.696 78.0779 104.719 78.1591C104.742 78.2402 104.784 78.3149 104.841 78.3771C104.898 78.4394 104.969 78.4876 105.048 78.5178C105.499 78.7484 105.54 78.8071 105.442 79.2923C105.361 79.759 105.142 80.191 104.813 80.5332C104.749 80.6263 104.663 80.7027 104.563 80.7559C104.463 80.8092 104.351 80.8376 104.238 80.839C104.124 80.8404 104.012 80.8146 103.911 80.7638C103.81 80.713 103.722 80.6387 103.656 80.5471C103.247 80.1703 102.836 79.7934 102.399 79.4534C102.039 79.1971 101.608 79.0581 101.165 79.0557C100.863 79.0709 100.571 79.1689 100.322 79.3388C100.073 79.5086 99.8759 79.7438 99.7528 80.0181C99.6421 80.2327 99.6026 80.4767 99.64 80.7149C99.6773 80.9532 99.7896 81.1736 99.9608 81.3445C100.055 81.4508 100.179 81.5273 100.317 81.5646C100.454 81.6018 100.6 81.5982 100.736 81.5543C100.987 81.4996 101.236 81.4181 101.484 81.3654C101.921 81.2729 102.15 81.4062 102.239 81.8347C102.315 82.2016 102.355 82.5764 102.399 82.9493C102.411 83.3716 102.553 83.78 102.807 84.119C103.06 84.458 103.413 84.7113 103.816 84.8444C104.206 84.9796 104.579 85.1656 104.992 85.3416C104.204 85.5802 103.468 85.8009 102.733 86.0256C102.557 86.0657 102.386 86.1264 102.225 86.2066C101.625 86.5675 101.061 86.3249 100.436 86.142C100.636 85.9968 100.794 85.8715 100.961 85.7582C101.147 85.6547 101.298 85.4988 101.395 85.3102C101.493 85.1216 101.532 84.9086 101.508 84.6979C101.484 84.4873 101.398 84.2884 101.26 84.1263C101.123 83.9641 100.94 83.8459 100.736 83.7865C100.146 83.5804 99.5538 83.3785 98.9598 83.181C98.3792 82.9852 97.85 82.6628 97.4111 82.2374C96.9721 81.8119 96.6344 81.2942 96.4228 80.7221C96.1111 80.0355 95.9336 79.2962 95.8998 78.5436C95.895 78.4805 95.8863 78.4177 95.8738 78.3557C94.8005 80.2945 94.4045 82.5325 94.7478 84.7191L93.2998 85.0105C93.2628 84.7022 93.1998 84.3672 93.1868 84.0311C93.0384 82.1291 93.353 80.2195 94.1041 78.464C94.8552 76.7085 96.0207 75.1588 97.5018 73.946C99.297 72.4012 101.527 71.4434 103.889 71.2028C106.953 70.852 110.037 71.6743 112.513 73.5027C114.989 75.331 116.673 78.0283 117.221 81.0462C117.313 81.5434 117.362 82.0405 117.431 82.5377L117.432 83.8312Z" fill="black"/><path d="M90.9998 90.6063C91.1817 90.3767 91.4416 90.2208 91.7307 90.1679C92.0199 90.1151 92.3185 90.1687 92.5708 90.319C93.1608 90.6172 93.7408 90.9344 94.3298 91.2337C94.3719 91.2563 94.4182 91.2699 94.4659 91.2738C94.5135 91.2778 94.5615 91.2719 94.6068 91.2566C95.3878 90.844 96.1618 90.4174 96.9368 89.9929C96.9701 89.9695 97.0009 89.9429 97.0288 89.9133L94.5988 88.3423C94.1658 88.0639 93.7308 87.7885 93.2988 87.5051C92.8878 87.2327 92.8988 86.8609 93.3128 86.5854C93.6218 86.3682 93.9764 86.2235 94.3499 86.1623C94.7234 86.1012 95.106 86.1252 95.4688 86.2324C97.4568 86.7664 99.4508 87.2794 101.445 87.7925C101.584 87.8216 101.728 87.8133 101.863 87.7686C102.85 87.4514 103.829 87.1094 104.82 86.8022C105.599 86.5656 106.419 86.4882 107.229 86.5745C107.045 86.661 106.908 86.7256 106.77 86.7882C106.426 86.9444 106.089 87.1203 105.735 87.2466C105.618 87.2705 105.515 87.3369 105.445 87.4328C105.376 87.5288 105.345 87.6472 105.359 87.7646C105.364 87.8491 105.359 87.9337 105.359 88.0629C105.688 87.9148 105.998 87.7776 106.306 87.6364C106.884 87.3739 107.46 87.1074 108.038 86.841C108.178 86.7945 108.326 86.7771 108.473 86.7899C108.621 86.8027 108.764 86.8453 108.894 86.9152C109.024 86.9851 109.138 87.0807 109.229 87.1962C109.321 87.3117 109.387 87.4446 109.425 87.5867C109.456 87.8034 109.434 88.0244 109.361 88.231C109.289 88.4376 109.167 88.6238 109.007 88.7739C108.4 89.395 107.682 89.8975 106.889 90.2553C104.472 91.427 101.94 92.3479 99.3327 93.0036C97.3617 93.5315 95.3648 93.963 93.3768 94.4244C92.9387 94.5268 92.4805 94.5058 92.0538 94.3638C91.4778 94.1748 91.3538 93.7562 91.7538 93.3088C91.8718 93.1756 92.0168 93.0652 92.1628 92.931L90.9998 90.8629V90.6063Z" fill="black"/><path d="M105.818 94.3448C105.878 94.7451 105.779 95.1529 105.542 95.4817C105.304 95.8105 104.947 96.0344 104.547 96.1057C104.464 96.1135 104.381 96.1028 104.304 96.0744C104.226 96.046 104.156 96.0006 104.098 95.9417C103.312 95.0816 102.543 94.2066 101.775 93.3307C101.612 93.1447 101.659 92.9747 101.896 92.8912C102.978 92.5067 104.062 92.1273 105.148 91.7527C105.398 91.6672 105.518 91.7527 105.548 92.0242C105.645 92.8385 105.738 93.6528 105.818 94.3448Z" fill="black"/><path d="M95.1288 172.794H113.348C113.444 172.859 113.521 172.949 113.569 173.054C113.618 173.159 113.637 173.276 113.624 173.391C113.613 174.683 113.618 175.976 113.618 177.268V177.649H114.235C114.714 177.649 114.842 177.778 114.844 178.246C114.846 178.714 114.844 179.184 114.844 179.663C114.92 179.671 114.963 179.679 115.007 179.68C115.569 179.699 115.658 179.787 115.658 180.331V181.748C115.658 182.444 115.614 182.492 114.924 182.53C114.905 182.53 114.887 182.551 114.862 182.566V196.308H116.472V197.126H91.9998V196.316H93.6107V182.538C93.5427 182.533 93.4978 182.528 93.4528 182.527C92.9158 182.515 92.8177 182.417 92.8177 181.896V180.479C92.8177 179.751 92.8348 179.733 93.5648 179.684C93.5828 179.684 93.5988 179.658 93.6338 179.629C93.6338 179.15 93.6288 178.656 93.6338 178.161C93.6388 177.816 93.7848 177.676 94.1338 177.669C94.3668 177.664 94.5998 177.669 94.8548 177.669V177.291C94.8548 175.999 94.8608 174.706 94.8548 173.414C94.837 173.295 94.8533 173.174 94.9017 173.065C94.9502 172.955 95.0289 172.861 95.1288 172.794ZM94.4658 196.291H114V182.548H94.4658V196.291ZM95.6888 177.635H112.789V173.624H95.6888V177.635ZM114.826 180.524H93.6618V181.7H114.826V180.524ZM114.002 179.672V178.491H94.4728V179.672H114.002Z" fill="black"/><path d="M99.3437 186.212C99.3437 186.828 99.3437 187.449 99.3437 188.068C99.3437 188.477 99.2027 188.611 98.7907 188.613C97.9307 188.613 97.0711 188.613 96.2117 188.613C95.8207 188.613 95.6767 188.471 95.6757 188.085C95.6717 186.803 95.6717 185.52 95.6757 184.237C95.6757 183.893 95.8267 183.748 96.1757 183.74C97.0591 183.736 97.9417 183.736 98.8237 183.74C99.1957 183.74 99.3377 183.878 99.3417 184.248C99.3477 184.906 99.3427 185.559 99.3437 186.212ZM98.4997 187.78V184.574H96.5107V187.78H98.4997Z" fill="black"/><path d="M102.6 186.154V184.3C102.6 183.886 102.734 183.746 103.141 183.746C104.012 183.741 104.883 183.741 105.755 183.746C106.121 183.746 106.271 183.892 106.273 184.259C106.278 185.542 106.278 186.825 106.273 188.107C106.273 188.468 106.12 188.61 105.747 188.611C104.875 188.617 104.004 188.617 103.133 188.611C102.749 188.611 102.602 188.463 102.6 188.08C102.6 187.44 102.6 186.799 102.6 186.154ZM103.436 187.77H105.436V184.576H103.436V187.77Z" fill="black"/><path d="M112.8 186.211V188.067C112.8 188.473 112.66 188.608 112.246 188.61C111.398 188.61 110.549 188.61 109.7 188.61C109.266 188.61 109.126 188.474 109.126 188.052V184.339C109.126 183.871 109.257 183.742 109.733 183.742H112.246C112.658 183.742 112.798 183.882 112.803 184.286C112.808 184.927 112.8 185.569 112.8 186.211ZM111.957 187.789V184.574H109.97V187.789H111.957Z" fill="black"/><path d="M95.6728 192.635V190.779C95.6728 190.37 95.8108 190.234 96.2228 190.233C97.0828 190.233 97.9428 190.233 98.8028 190.233C99.1968 190.233 99.3398 190.368 99.3408 190.757C99.3454 192.04 99.3454 193.322 99.3408 194.604C99.3408 194.951 99.1918 195.101 98.8408 195.101C97.9474 195.106 97.0538 195.106 96.1598 195.101C95.8178 195.101 95.6748 194.95 95.6718 194.598C95.6688 193.945 95.6728 193.287 95.6728 192.635ZM96.4968 194.259H98.5058V191.07H96.4998L96.4968 194.259Z" fill="black"/><path d="M102.6 192.652C102.6 192.022 102.6 191.391 102.6 190.763C102.6 190.379 102.748 190.238 103.136 190.237C104.006 190.237 104.878 190.237 105.75 190.237C106.122 190.237 106.271 190.379 106.272 190.744C106.277 192.027 106.277 193.309 106.272 194.592C106.272 194.962 106.123 195.101 105.751 195.103C104.879 195.107 104.008 195.107 103.138 195.103C102.73 195.103 102.602 194.963 102.6 194.545C102.6 193.91 102.6 193.28 102.6 192.652ZM103.441 191.061V194.261H105.441V191.061H103.441Z" fill="black"/><path d="M112.8 192.674V194.563C112.8 194.954 112.659 195.096 112.272 195.098C111.401 195.103 110.53 195.103 109.658 195.098C109.274 195.098 109.127 194.949 109.126 194.563C109.126 193.29 109.126 192.019 109.126 190.748C109.126 190.379 109.276 190.233 109.639 190.232C110.521 190.228 111.404 190.228 112.288 190.232C112.654 190.232 112.797 190.377 112.8 190.747C112.808 191.391 112.8 192.033 112.8 192.674ZM109.958 194.271H111.963V191.067H109.958V194.271Z" fill="black"/><path d="M102.351 176.872C102.084 176.871 101.823 176.792 101.602 176.644C101.38 176.496 101.208 176.286 101.106 176.041C101.005 175.795 100.979 175.526 101.031 175.265C101.084 175.005 101.213 174.767 101.402 174.58C101.592 174.392 101.832 174.265 102.094 174.214C102.356 174.163 102.627 174.191 102.873 174.293C103.12 174.395 103.33 174.567 103.478 174.788C103.625 175.01 103.704 175.269 103.703 175.534V175.544C103.71 175.711 103.685 175.878 103.628 176.035C103.571 176.192 103.483 176.337 103.37 176.46C103.256 176.583 103.12 176.683 102.967 176.754C102.815 176.825 102.651 176.865 102.483 176.873C102.439 176.875 102.395 176.875 102.351 176.872ZM101.524 175.509C101.535 175.67 101.593 175.826 101.691 175.955C101.789 176.085 101.923 176.184 102.076 176.239C102.23 176.295 102.396 176.305 102.555 176.268C102.714 176.232 102.859 176.15 102.972 176.033C103.085 175.916 103.162 175.769 103.193 175.61C103.223 175.451 103.207 175.286 103.146 175.135C103.084 174.985 102.98 174.856 102.846 174.763C102.712 174.671 102.554 174.619 102.391 174.614C102.283 174.607 102.176 174.621 102.074 174.656C101.972 174.69 101.878 174.744 101.797 174.815C101.716 174.886 101.65 174.972 101.603 175.068C101.555 175.164 101.528 175.269 101.521 175.375C101.517 175.42 101.517 175.465 101.521 175.51L101.524 175.509Z" fill="black"/><path d="M98.8638 175.336H100.123V174.234H100.607V176.825H100.142V175.716H98.8898V176.825H98.4098V174.229H98.8638V175.336Z" fill="black"/><path d="M106.639 174.6V175.32H107.548L107.571 175.698H106.653V176.427H107.791V176.833H106.157V174.239H107.789V174.599L106.639 174.6Z" fill="black"/><path d="M103.737 174.221H105.794L105.813 174.619H105.035V176.827H104.53V174.624H103.737V174.221Z" fill="black"/><path d="M108.72 176.445H109.778V176.831H108.268V174.234H108.72V176.445Z" fill="black"/><path d="M114.151 177.991H93.7058V179.84H114.151V177.991Z" fill="black"/><path d="M99.2817 184.152H96.1837V187.848H99.2817V184.152Z" fill="black"/><path d="M106.097 184.152H102.999V187.848H106.097V184.152Z" fill="black"/><path d="M112.293 184.152H109.195V187.848H112.293V184.152Z" fill="black"/><path d="M112.293 190.928H109.195V194.624H112.293V190.928Z" fill="black"/><path d="M106.097 190.928H102.999V194.624H106.097V190.928Z" fill="black"/><path d="M99.2817 190.928H96.1837V194.624H99.2817V190.928Z" fill="black"/><path d="M104.079 292.814C103.091 292.562 102.119 292.256 101.167 291.895C99.6043 291.187 98.295 290.024 97.4127 288.56C97.3403 288.403 97.2174 288.275 97.0636 288.195C96.9097 288.115 96.7335 288.089 96.5627 288.12C95.1777 288.246 93.7861 287.962 92.5627 287.304C90.5897 286.231 90.4697 284.21 92.3097 282.929C92.7811 282.608 93.2946 282.353 93.8357 282.17C94.0487 282.096 94.3547 282.297 94.6197 282.369C94.4687 282.576 94.3597 282.851 94.1597 282.979C93.7407 283.247 93.2457 283.395 92.8317 283.667C91.6047 284.479 91.5907 285.538 92.8037 286.352C93.9144 287.071 95.2489 287.367 96.5617 287.186C96.3487 286.291 96.0617 285.45 95.9477 284.583C94.6317 274.914 107.082 269.774 112.793 277.672C112.87 277.785 112.919 277.914 112.935 278.05C112.952 278.186 112.936 278.323 112.888 278.451C112.562 278.803 112.306 278.47 112.094 278.2C111.259 276.999 110.114 276.045 108.78 275.437C107.445 274.83 105.97 274.592 104.511 274.748C103.161 274.871 101.86 275.309 100.713 276.028C99.5668 276.746 98.6075 277.724 97.914 278.882C97.2204 280.04 96.8123 281.344 96.7229 282.689C96.6335 284.033 96.8655 285.38 97.3997 286.618C97.5417 286.982 97.7387 287.137 98.0937 286.955C98.9357 286.526 99.7617 286.06 100.609 285.649C100.867 285.559 101.136 285.5 101.409 285.474C101.346 285.772 101.381 286.211 101.204 286.329C100.457 286.826 99.6507 287.236 98.8567 287.658C98.6183 287.766 98.3723 287.856 98.1207 287.928C102.237 294.794 112.943 292.274 113.726 284.177C113.736 284.106 113.726 284.015 113.761 283.966C113.926 283.754 114.105 283.551 114.281 283.346C114.4 283.599 114.658 283.879 114.611 284.098C114.457 285.164 114.192 286.211 113.82 287.223C112.443 290.513 109.72 292.103 106.368 292.809L104.079 292.814Z" fill="black"/><path d="M107.213 281.564C105.213 280.549 103.375 279.635 101.562 278.681C101.279 278.47 101.03 278.217 100.825 277.931C101.339 277.346 102.033 276.945 102.799 276.789C103.565 276.634 104.361 276.732 105.066 277.07C107.175 277.885 109.346 278.547 111.508 279.216C112.689 279.519 113.792 278.685 114.86 278.303C115.076 278.2 115.312 278.141 115.551 278.13C115.791 278.119 116.031 278.157 116.256 278.24C116.481 278.324 116.687 278.451 116.861 278.616C117.035 278.78 117.174 278.978 117.27 279.197C117.365 279.416 117.415 279.652 117.417 279.891C117.419 280.13 117.372 280.367 117.279 280.587C117.187 280.807 117.05 281.007 116.879 281.174C116.707 281.34 116.503 281.471 116.279 281.557C111.812 283.511 107.333 285.445 102.842 287.359C102.658 287.418 102.465 287.437 102.273 287.416C102.082 287.395 101.897 287.334 101.731 287.237C99.8807 285.992 98.0647 284.696 96.2487 283.401C95.5337 282.891 95.6017 282.572 96.3487 282.137C96.804 281.791 97.3607 281.602 97.934 281.599C98.5073 281.597 99.0656 281.781 99.5237 282.124C100.392 282.845 101.482 283.249 102.613 283.269C103.744 283.289 104.848 282.924 105.742 282.233C106.215 281.976 106.707 281.752 107.213 281.564Z" fill="black"/><path d="M190 1.02571H18C8.33502 1.02571 0.5 8.81598 0.5 18.4258V497.673C0.5 507.283 8.33502 515.073 18 515.073H190C199.665 515.073 207.5 507.283 207.5 497.673V18.4258C207.5 8.81598 199.665 1.02571 190 1.02571Z" stroke="#707070"/><g filter="url(#filter0_d_26_507)"><path d="M212.63 245.237C276.032 273.621 201.203 345.5 317.316 357.296" stroke="#707070"/></g><g filter="url(#filter1_d_26_507)"><g clip-path="url(#clip0_26_507)"><path d="M213.043 244.743C213.043 244.743 239.887 242.452 257.408 216.071C274.929 189.69 267.569 165.004 283.131 139.217C298.693 113.43 309.166 113.112 319.654 112.924" stroke="#707070"/><path d="M320.115 118.511C322.876 118.511 325.115 116.273 325.115 113.511C325.115 110.75 322.876 108.511 320.115 108.511C317.354 108.511 315.115 110.75 315.115 113.511C315.115 116.273 317.354 118.511 320.115 118.511Z" fill="#FACC83"/></g></g><circle cx="321.621" cy="357.296" r="4.3042" fill="#23D7FE"/><path d="M208 249.943C210.761 249.943 213 247.717 213 244.971C213 242.226 210.761 240 208 240C205.239 240 203 242.226 203 244.971C203 247.717 205.239 249.943 208 249.943Z" fill="#6F6F6F"/><defs><filter id="filter0_d_26_507" x="208.426" y="244.781" width="112.941" height="121.013" filterUnits="userSpaceOnUse" color-interpolation-filters="sRGB"><feFlood flood-opacity="0" result="BackgroundImageFix"/><feColorMatrix in="SourceAlpha" type="matrix" values="0 0 0 0 0 0 0 0 0 0 0 0 0 0 0 0 0 0 127 0" result="hardAlpha"/><feOffset dy="4"/><feGaussianBlur stdDeviation="2"/><feComposite in2="hardAlpha" operator="out"/><feColorMatrix type="matrix" values="0 0 0 0 0 0 0 0 0 0 0 0 0 0 0 0 0 0 0.25 0"/><feBlend mode="normal" in2="BackgroundImageFix" result="effect1_dropShadow_26_507"/><feBlend mode="normal" in="SourceGraphic" in2="effect1_dropShadow_26_507" result="shape"/></filter><filter id="filter1_d_26_507" x="213" y="108.511" width="120.701" height="145.312" filterUnits="userSpaceOnUse" color-interpolation-filters="sRGB"><feFlood flood-opacity="0" result="BackgroundImageFix"/><feColorMatrix in="SourceAlpha" type="matrix" values="0 0 0 0 0 0 0 0 0 0 0 0 0 0 0 0 0 0 127 0" result="hardAlpha"/><feOffset dx="5.008" dy="5.008"/><feGaussianBlur stdDeviation="1.789"/><feColorMatrix type="matrix" values="0 0 0 0 0 0 0 0 0 0 0 0 0 0 0 0 0 0 0.18 0"/><feBlend mode="normal" in2="BackgroundImageFix" result="effect1_dropShadow_26_507"/><feBlend mode="normal" in="SourceGraphic" in2="effect1_dropShadow_26_507" result="shape"/></filter><clipPath id="clip0_26_507"><rect width="112.115" height="136.726" fill="white" transform="translate(213 108.511)"/></clipPath></defs></svg>