<svg width="196" height="359" viewBox="0 0 196 359" fill="none" xmlns="http://www.w3.org/2000/svg"><g filter="url(#filter0_d_26_505)"><path d="M74.001 5.46779C74.001 5.46779 123.763 -1.36996 138.446 63.3135C153.129 127.997 186.384 142.146 190.005 141.175" stroke="#707070" shape-rendering="crispEdges"/></g><g filter="url(#filter1_d_26_505)"><path d="M6.71191 349.358C6.71191 349.358 107.12 358.168 117.534 262.738C127.948 167.309 188.604 141.121 188.604 141.121" stroke="#707070" shape-rendering="crispEdges"/></g><path d="M190.505 146.19C193.266 146.19 195.505 143.965 195.505 141.219C195.505 138.473 193.266 136.248 190.505 136.248C187.743 136.248 185.505 138.473 185.505 141.219C185.505 143.965 187.743 146.19 190.505 146.19Z" fill="url(#paint0_linear_26_505)"/><path d="M190.505 145.693C192.99 145.693 195.005 143.69 195.005 141.219C195.005 138.748 192.99 136.745 190.505 136.745C188.02 136.745 186.005 138.748 186.005 141.219C186.005 143.69 188.02 145.693 190.505 145.693Z" stroke="#707070"/><path d="M71.5049 10.2305C74.2663 10.2305 76.5049 8.0047 76.5049 5.25904C76.5049 2.51339 74.2663 0.287598 71.5049 0.287598C68.7435 0.287598 66.5049 2.51339 66.5049 5.25904C66.5049 8.0047 68.7435 10.2305 71.5049 10.2305Z" fill="url(#paint1_linear_26_505)"/><path d="M71.5049 9.73335C73.9902 9.73335 76.0049 7.73014 76.0049 5.25905C76.0049 2.78796 73.9902 0.784752 71.5049 0.784752C69.0196 0.784752 67.0049 2.78796 67.0049 5.25905C67.0049 7.73014 69.0196 9.73335 71.5049 9.73335Z" stroke="#707070"/><path d="M5.49414 354.543C8.25556 354.543 10.4941 352.317 10.4941 349.571C10.4941 346.826 8.25556 344.6 5.49414 344.6C2.73272 344.6 0.494141 346.826 0.494141 349.571C0.494141 352.317 2.73272 354.543 5.49414 354.543Z" fill="url(#paint2_linear_26_505)"/><path d="M5.49414 354.046C7.97942 354.046 9.99414 352.042 9.99414 349.571C9.99414 347.1 7.97942 345.097 5.49414 345.097C3.00886 345.097 0.994141 347.1 0.994141 349.571C0.994141 352.042 3.00886 354.046 5.49414 354.046Z" stroke="#707070"/><defs><filter id="filter0_d_26_505" x="69.934" y="4.75952" width="124.2" height="144.961" filterUnits="userSpaceOnUse" color-interpolation-filters="sRGB"><feFlood flood-opacity="0" result="BackgroundImageFix"/><feColorMatrix in="SourceAlpha" type="matrix" values="0 0 0 0 0 0 0 0 0 0 0 0 0 0 0 0 0 0 127 0" result="hardAlpha"/><feOffset dy="4"/><feGaussianBlur stdDeviation="2"/><feComposite in2="hardAlpha" operator="out"/><feColorMatrix type="matrix" values="0 0 0 0 0 0 0 0 0 0 0 0 0 0 0 0 0 0 0.25 0"/><feBlend mode="normal" in2="BackgroundImageFix" result="effect1_dropShadow_26_505"/><feBlend mode="normal" in="SourceGraphic" in2="effect1_dropShadow_26_505" result="shape"/></filter><filter id="filter1_d_26_505" x="2.66956" y="140.662" width="190.133" height="217.41" filterUnits="userSpaceOnUse" color-interpolation-filters="sRGB"><feFlood flood-opacity="0" result="BackgroundImageFix"/><feColorMatrix in="SourceAlpha" type="matrix" values="0 0 0 0 0 0 0 0 0 0 0 0 0 0 0 0 0 0 127 0" result="hardAlpha"/><feOffset dy="4"/><feGaussianBlur stdDeviation="2"/><feComposite in2="hardAlpha" operator="out"/><feColorMatrix type="matrix" values="0 0 0 0 0 0 0 0 0 0 0 0 0 0 0 0 0 0 0.25 0"/><feBlend mode="normal" in2="BackgroundImageFix" result="effect1_dropShadow_26_505"/><feBlend mode="normal" in="SourceGraphic" in2="effect1_dropShadow_26_505" result="shape"/></filter><linearGradient id="paint0_linear_26_505" x1="195.505" y1="136.248" x2="181.709" y2="146.265" gradientUnits="userSpaceOnUse"><stop/><stop offset="1" stop-color="#545454"/></linearGradient><linearGradient id="paint1_linear_26_505" x1="76.5049" y1="0.287598" x2="62.7093" y2="10.3055" gradientUnits="userSpaceOnUse"><stop/><stop offset="1" stop-color="#545454"/></linearGradient><linearGradient id="paint2_linear_26_505" x1="10.4941" y1="344.6" x2="-3.3014" y2="354.618" gradientUnits="userSpaceOnUse"><stop/><stop offset="1" stop-color="#545454"/></linearGradient></defs></svg>