<?xml version="1.0" standalone="no"?>
<!DOCTYPE svg PUBLIC "-//W3C//DTD SVG 20010904//EN"
 "http://www.w3.org/TR/2001/REC-SVG-20010904/DTD/svg10.dtd">
<svg version="1.0" xmlns="http://www.w3.org/2000/svg"
 width="120.000000pt" height="50.000000pt" viewBox="0 0 120.000000 50.000000"
 preserveAspectRatio="xMidYMid meet">

<g transform="translate(0.000000,50.000000) scale(0.100000,-0.100000)"
fill="#000000" stroke="none">
<path d="M32 467 l-32 -33 0 -185 0 -185 33 -32 33 -32 535 0 535 0 32 33 32
33 0 185 0 185 -33 32 -33 32 -535 0 -535 0 -32 -33z m1129 -6 l29 -29 0 -184
0 -184 -28 -27 -28 -27 -536 0 -536 0 -26 31 c-26 30 -26 32 -26 207 l0 176
32 33 32 33 529 0 529 0 29 -29z"/>
</g>
</svg>

