<svg width="22" height="21" viewBox="0 0 22 21" fill="none" xmlns="http://www.w3.org/2000/svg"><path d="M11.1352 20.8841C9.76569 20.8945 8.40872 20.6237 7.14924 20.0887C5.9382 19.5768 4.83675 18.8394 3.90424 17.9162C2.97571 16.989 2.23407 15.8939 1.71924 14.6897C1.18117 13.4375 0.908816 12.0883 0.91924 10.7265C0.908707 9.36447 1.18106 8.01491 1.71924 6.76231C2.23409 5.55818 2.97573 4.46297 3.90424 3.53579C4.83675 2.61259 5.9382 1.87517 7.14924 1.36327C8.40872 0.828294 9.76569 0.557516 11.1352 0.567851C12.5048 0.557516 13.8618 0.828294 15.1212 1.36327C16.3323 1.87517 17.4337 2.61259 18.3662 3.53579C19.2948 4.46297 20.0364 5.55818 20.5512 6.76231C21.0894 8.01491 21.3618 9.36447 21.3512 10.7265C21.3617 12.0883 21.0893 13.4375 20.5512 14.6897C20.0364 15.8939 19.2948 16.989 18.3662 17.9162C17.4337 18.8394 16.3323 19.5768 15.1212 20.0887C13.8618 20.6237 12.5048 20.8945 11.1352 20.8841ZM12.1572 18.7753C14.1297 18.5502 15.9474 17.604 17.2572 16.1205C18.6118 14.6485 19.3479 12.7165 19.3142 10.7216C19.3479 8.72662 18.6118 6.79463 17.2572 5.32258C15.9474 3.8391 14.1297 2.89283 12.1572 2.66779V18.7753Z" fill="black"/></svg>