<svg xmlns="http://www.w3.org/2000/svg" width="334" height="516" fill="none"><path fill="#000" d="M55.505 112.393v2.055h-2.79v8.475H50.15v-8.475h-2.79v-2.055zm5.097 10.65q-1.23 0-2.22-.525a3.9 3.9 0 0 1-1.545-1.5q-.555-.975-.555-2.28 0-1.29.57-2.265.57-.99 1.56-1.515t2.22-.525 2.22.525 1.56 1.515q.57.975.57 2.265t-.585 2.28q-.57.975-1.575 1.5-.99.525-2.22.525m0-2.22q.735 0 1.245-.54.525-.54.525-1.545t-.51-1.545a1.6 1.6 0 0 0-1.23-.54q-.75 0-1.245.54-.495.525-.495 1.545 0 1.005.48 1.545.495.54 1.23.54m14.006-6.27v8.37h-2.565v-1.14q-.39.555-1.065.9-.66.33-1.47.33-.96 0-1.695-.42a2.93 2.93 0 0 1-1.14-1.245q-.405-.81-.405-1.905v-4.89h2.55v4.545q0 .84.435 1.305t1.17.465q.75 0 1.185-.465t.435-1.305v-4.545zm4.407 1.395q.45-.69 1.125-1.08.675-.405 1.5-.405v2.715h-.705q-.96 0-1.44.42-.48.405-.48 1.44v3.885H76.45v-8.37h2.565zm12.01 7.08q-1.485 0-2.73-.69a5.25 5.25 0 0 1-1.965-1.92q-.72-1.245-.72-2.79t.72-2.775a5.25 5.25 0 0 1 1.965-1.92q1.245-.69 2.73-.69t2.715.69q1.245.69 1.95 1.92.72 1.23.72 2.775t-.72 2.79q-.72 1.23-1.95 1.92t-2.715.69m0-2.34q1.26 0 2.01-.84.765-.84.765-2.22 0-1.395-.765-2.22-.75-.84-2.01-.84-1.275 0-2.04.825-.75.825-.75 2.235 0 1.395.75 2.235.765.825 2.04.825m9.377-4.95q.375-.585 1.035-.945t1.545-.36q1.035 0 1.875.525t1.32 1.5q.495.975.495 2.265t-.495 2.28q-.48.975-1.32 1.515-.84.525-1.875.525-.87 0-1.545-.36-.66-.36-1.035-.93v5.16h-2.565v-12.36h2.565zm3.66 2.985q0-.96-.54-1.5a1.72 1.72 0 0 0-1.305-.555q-.765 0-1.305.555-.525.555-.525 1.515t.525 1.515q.54.555 1.305.555t1.305-.555q.54-.57.54-1.53m11.846-.12q0 .36-.045.75h-5.805q.06.78.495 1.2.45.405 1.095.405.96 0 1.335-.81h2.73a3.7 3.7 0 0 1-.765 1.485q-.54.66-1.365 1.035t-1.845.375q-1.23 0-2.19-.525t-1.5-1.5-.54-2.28.525-2.28q.54-.975 1.5-1.5t2.205-.525q1.215 0 2.16.51t1.47 1.455q.54.945.54 2.205m-2.625-.675q0-.66-.45-1.05t-1.125-.39q-.645 0-1.095.375-.435.375-.54 1.065zm6.543-1.98q.45-.69 1.125-1.08.675-.405 1.5-.405v2.715h-.705q-.96 0-1.44.42-.48.405-.48 1.44v3.885h-2.565v-8.37h2.565zm3.341 2.775q0-1.29.48-2.265.495-.975 1.335-1.5a3.47 3.47 0 0 1 1.875-.525q.885 0 1.545.36.675.36 1.035.945v-1.185h2.565v8.37h-2.565v-1.185q-.375.585-1.05.945-.66.36-1.545.36-1.02 0-1.86-.525-.84-.54-1.335-1.515-.48-.99-.48-2.28m6.27.015q0-.96-.54-1.515-.525-.555-1.29-.555t-1.305.555q-.525.54-.525 1.5t.525 1.53q.54.555 1.305.555t1.29-.555q.54-.555.54-1.515m9.085 2.01v2.175h-1.305q-1.395 0-2.175-.675-.78-.69-.78-2.235v-3.33h-1.02v-2.13h1.02v-2.04h2.565v2.04h1.68v2.13h-1.68v3.36q0 .375.18.54t.6.165zm5.239 2.295q-1.23 0-2.22-.525a3.9 3.9 0 0 1-1.545-1.5q-.555-.975-.555-2.28 0-1.29.57-2.265.57-.99 1.56-1.515t2.22-.525 2.22.525 1.56 1.515q.57.975.57 2.265t-.585 2.28q-.57.975-1.575 1.5-.99.525-2.22.525m0-2.22q.735 0 1.245-.54.525-.54.525-1.545t-.51-1.545a1.6 1.6 0 0 0-1.23-.54q-.75 0-1.245.54-.495.525-.495 1.545 0 1.005.48 1.545.495.54 1.23.54m8.306-4.875q.45-.69 1.125-1.08.675-.405 1.5-.405v2.715h-.705q-.96 0-1.44.42-.48.405-.48 1.44v3.885h-2.565v-8.37h2.565zm7.256 7.095q-1.095 0-1.95-.375t-1.35-1.02q-.495-.66-.555-1.47h2.535q.045.435.405.705t.885.27q.48 0 .735-.18.27-.195.27-.495 0-.36-.375-.525-.375-.18-1.215-.39-.9-.21-1.5-.435-.6-.24-1.035-.735-.435-.51-.435-1.365 0-.72.39-1.305.405-.6 1.17-.945.78-.345 1.845-.345 1.575 0 2.475.78.915.78 1.05 2.07h-2.37a1 1 0 0 0-.39-.69q-.315-.255-.84-.255-.45 0-.69.18a.53.53 0 0 0-.24.465q0 .36.375.54.39.18 1.2.36.93.24 1.515.48.585.225 1.02.75.45.51.465 1.38 0 .735-.42 1.32-.405.57-1.185.9-.765.33-1.785.33M54.05 213.406v10.53h-2.565v-4.335h-3.99v4.335H44.93v-10.53h2.565v4.125h3.99v-4.125zm5.661 10.65q-1.23 0-2.22-.525a3.9 3.9 0 0 1-1.545-1.5q-.555-.975-.555-2.28 0-1.29.57-2.265.57-.99 1.56-1.515t2.22-.525 2.22.525 1.56 1.515q.57.975.57 2.265t-.585 2.28q-.57.975-1.575 1.5-.99.525-2.22.525m0-2.22q.735 0 1.245-.54.525-.54.525-1.545t-.51-1.545a1.6 1.6 0 0 0-1.23-.54q-.75 0-1.245.54-.495.525-.495 1.545 0 1.005.48 1.545.495.54 1.23.54m10.406-.075v2.175h-1.305q-1.395 0-2.175-.675-.78-.69-.78-2.235v-3.33h-1.02v-2.13h1.02v-2.04h2.565v2.04h1.68v2.13h-1.68v3.36q0 .375.18.54t.6.165zm9.319-2.145q0 .36-.045.75h-5.805q.06.78.495 1.2.45.405 1.095.405.96 0 1.335-.81h2.73a3.7 3.7 0 0 1-.765 1.485q-.54.66-1.365 1.035t-1.845.375q-1.23 0-2.19-.525t-1.5-1.5-.54-2.28.525-2.28q.54-.975 1.5-1.5t2.205-.525q1.215 0 2.16.51t1.47 1.455q.54.945.54 2.205m-2.625-.675q0-.66-.45-1.05t-1.125-.39q-.645 0-1.095.375-.435.375-.54 1.065zm6.543-6.105v11.1H80.79v-11.1zm5.264 11.22q-1.095 0-1.95-.375t-1.35-1.02q-.495-.66-.555-1.47h2.535q.045.435.405.705t.885.27q.48 0 .735-.18.27-.195.27-.495 0-.36-.375-.525-.375-.18-1.215-.39-.9-.21-1.5-.435-.6-.24-1.035-.735-.435-.51-.435-1.365 0-.72.39-1.305.405-.6 1.17-.945.78-.345 1.845-.345 1.575 0 2.475.78.915.78 1.05 2.07h-2.37a1 1 0 0 0-.39-.69q-.315-.255-.84-.255-.45 0-.69.18a.53.53 0 0 0-.24.465q0 .36.375.54.39.18 1.2.36.93.24 1.515.48.585.225 1.02.75.45.51.465 1.38 0 .735-.42 1.32-.405.57-1.185.9-.765.33-1.785.33m20.063-10.65v10.53h-2.565v-6.315l-2.355 6.315h-2.07l-2.37-6.33v6.33h-2.565v-10.53h3.03l2.955 7.29 2.925-7.29zm1.334 6.33q0-1.29.48-2.265.495-.975 1.335-1.5a3.47 3.47 0 0 1 1.875-.525q.885 0 1.545.36.675.36 1.035.945v-1.185h2.565v8.37h-2.565v-1.185q-.375.585-1.05.945-.66.36-1.545.36-1.02 0-1.86-.525-.84-.54-1.335-1.515-.48-.99-.48-2.28m6.27.015q0-.96-.54-1.515-.525-.555-1.29-.555t-1.305.555q-.525.54-.525 1.5t.525 1.53q.54.555 1.305.555t1.29-.555q.54-.555.54-1.515m9.521-4.275q1.47 0 2.34.96.885.945.885 2.61v4.89h-2.55v-4.545q0-.84-.435-1.305t-1.17-.465-1.17.465-.435 1.305v4.545h-2.565v-8.37h2.565v1.11q.39-.555 1.05-.87.66-.33 1.485-.33m4.498 4.26q0-1.29.48-2.265.495-.975 1.335-1.5a3.47 3.47 0 0 1 1.875-.525q.885 0 1.545.36.675.36 1.035.945v-1.185h2.565v8.37h-2.565v-1.185q-.375.585-1.05.945-.66.36-1.545.36-1.02 0-1.86-.525-.84-.54-1.335-1.515-.48-.99-.48-2.28m6.27.015q0-.96-.54-1.515-.525-.555-1.29-.555t-1.305.555q-.525.54-.525 1.5t.525 1.53q.54.555 1.305.555t1.29-.555q.54-.555.54-1.515m7.6-4.305q.885 0 1.545.36.675.36 1.035.945v-1.185h2.565v8.355q0 1.155-.465 2.085-.45.945-1.395 1.5-.93.555-2.325.555-1.86 0-3.015-.885-1.155-.87-1.32-2.37h2.535q.12.48.57.75.45.285 1.11.285.795 0 1.26-.465.48-.45.48-1.455v-1.185q-.375.585-1.035.96-.66.36-1.545.36-1.035 0-1.875-.525-.84-.54-1.335-1.515-.48-.99-.48-2.28t.48-2.265q.495-.975 1.335-1.5a3.47 3.47 0 0 1 1.875-.525m2.58 4.305q0-.96-.54-1.515-.525-.555-1.29-.555t-1.305.555q-.525.54-.525 1.5t.525 1.53q.54.555 1.305.555t1.29-.555q.54-.555.54-1.515m12.311-.135q0 .36-.045.75h-5.805q.06.78.495 1.2.45.405 1.095.405.96 0 1.335-.81h2.73a3.7 3.7 0 0 1-.765 1.485q-.54.66-1.365 1.035t-1.845.375q-1.23 0-2.19-.525t-1.5-1.5-.54-2.28.525-2.28q.54-.975 1.5-1.5t2.205-.525q1.215 0 2.16.51t1.47 1.455q.54.945.54 2.205m-2.625-.675q0-.66-.45-1.05t-1.125-.39q-.645 0-1.095.375-.435.375-.54 1.065zm6.543-1.98q.45-.69 1.125-1.08.675-.405 1.5-.405v2.715h-.705q-.96 0-1.44.42-.48.405-.48 1.44v3.885h-2.565v-8.37h2.565zM58.505 309.093v2.055h-2.79v8.475H53.15v-8.475h-2.79v-2.055zm3.852 3.555q.45-.69 1.125-1.08.675-.405 1.5-.405v2.715h-.705q-.96 0-1.44.42-.48.405-.48 1.44v3.885h-2.565v-8.37h2.565zm3.341 2.775q0-1.29.48-2.265.495-.975 1.335-1.5a3.47 3.47 0 0 1 1.875-.525q.885 0 1.545.36.675.36 1.035.945v-1.185h2.565v8.37h-2.565v-1.185q-.375.585-1.05.945-.66.36-1.545.36-1.02 0-1.86-.525-.84-.54-1.335-1.515-.48-.99-.48-2.28m6.27.015q0-.96-.54-1.515-.525-.555-1.29-.555t-1.305.555q-.525.54-.525 1.5t.525 1.53q.54.555 1.305.555t1.29-.555q.54-.555.54-1.515m8.186 1.785 1.815-5.97h2.73l-2.97 8.37h-3.165l-2.97-8.37h2.745zm13.514-1.92q0 .36-.045.75h-5.805q.06.78.495 1.2.45.405 1.095.405.96 0 1.335-.81h2.73a3.7 3.7 0 0 1-.765 1.485q-.54.66-1.365 1.035t-1.845.375q-1.23 0-2.19-.525t-1.5-1.5-.54-2.28.525-2.28q.54-.975 1.5-1.5t2.205-.525q1.215 0 2.16.51t1.47 1.455q.54.945.54 2.205m-2.625-.675q0-.66-.45-1.05t-1.125-.39q-.645 0-1.095.375-.435.375-.54 1.065zm6.544-6.105v11.1h-2.565v-11.1zm11.592 9.24h-3.93l-.63 1.86h-2.685l3.81-10.53h2.97l3.81 10.53h-2.715zm-.66-1.98-1.305-3.855-1.29 3.855zm8.345-4.65q.885 0 1.545.36.675.36 1.035.945v-1.185h2.565v8.355q0 1.155-.465 2.085-.45.945-1.395 1.5-.93.555-2.325.555-1.86 0-3.015-.885-1.155-.87-1.32-2.37h2.535q.12.48.57.75.45.285 1.11.285.795 0 1.26-.465.48-.45.48-1.455v-1.185q-.375.585-1.035.96-.66.36-1.545.36-1.035 0-1.875-.525-.84-.54-1.335-1.515-.48-.99-.48-2.28t.48-2.265q.495-.975 1.335-1.5a3.47 3.47 0 0 1 1.875-.525m2.58 4.305q0-.96-.54-1.515-.525-.555-1.29-.555t-1.305.555q-.525.54-.525 1.5t.525 1.53q.54.555 1.305.555t1.29-.555q.54-.555.54-1.515m12.31-.135q0 .36-.045.75h-5.805q.06.78.495 1.2.45.405 1.095.405.96 0 1.335-.81h2.73a3.7 3.7 0 0 1-.765 1.485q-.54.66-1.365 1.035t-1.845.375q-1.23 0-2.19-.525t-1.5-1.5-.54-2.28.525-2.28q.54-.975 1.5-1.5t2.205-.525q1.215 0 2.16.51t1.47 1.455q.54.945.54 2.205m-2.625-.675q0-.66-.45-1.05t-1.125-.39q-.645 0-1.095.375-.435.375-.54 1.065zm9.078-3.465q1.47 0 2.34.96.885.945.885 2.61v4.89h-2.55v-4.545q0-.84-.435-1.305t-1.17-.465-1.17.465-.435 1.305v4.545h-2.565v-8.37h2.565v1.11q.39-.555 1.05-.87.66-.33 1.485-.33m4.498 4.275q0-1.305.525-2.28a3.76 3.76 0 0 1 1.485-1.5q.96-.525 2.19-.525 1.575 0 2.625.825 1.065.825 1.395 2.325h-2.73q-.345-.96-1.335-.96-.705 0-1.125.555-.42.54-.42 1.56t.42 1.575q.42.54 1.125.54.99 0 1.335-.96h2.73q-.33 1.47-1.395 2.31t-2.625.84q-1.23 0-2.19-.525a3.76 3.76 0 0 1-1.485-1.5q-.525-.975-.525-2.28m18.142-4.185-5.25 12.345h-2.76l1.92-4.26-3.405-8.085h2.865l1.935 5.235 1.92-5.235zM98.952 384.356c0-.679-.014-1.359.005-2.037a.76.76 0 0 1 .492-.807.75.75 0 0 1 .336-.044 113 113 0 0 1 4.231-.008c.585.011.844.31.85.903q.02 2.003 0 4.007c-.006.591-.27.876-.859.885a131 131 0 0 1-4.163 0c-.615-.01-.87-.286-.886-.894-.02-.669-.006-1.337-.006-2.005M97.96 384.349c0 .668-.01 1.336 0 2.004.01.487-.18.696-.665.621a15.4 15.4 0 0 1-3.526-.94 1.15 1.15 0 0 1-.763-1.078 18 18 0 0 1 0-1.234 1.075 1.075 0 0 1 .682-.995 14.4 14.4 0 0 1 3.717-.989c.376-.053.56.184.555.609-.01.667 0 1.336 0 2.003zM101.918 380.475c-.66 0-1.321-.008-1.982 0-.568.01-.765-.198-.67-.741.184-1.156.498-2.287.939-3.371a1.17 1.17 0 0 1 1.114-.772c.4-.013.806-.009 1.21 0a1.138 1.138 0 0 1 1.07.73 15 15 0 0 1 .984 3.564c.061.367-.174.59-.583.589zM105.865 384.351c0-.668.005-1.336 0-2.003 0-.48.176-.668.654-.597a15 15 0 0 1 3.588.958 1.08 1.08 0 0 1 .7.947q.046.716-.009 1.433a1.06 1.06 0 0 1-.688.918c-1.161.473-2.377.8-3.619.973-.442.07-.632-.136-.628-.597.006-.675.002-1.354.002-2.032M101.911 388.249c.649 0 1.3.011 1.948 0 .618-.013.831.182.684.77a76 76 0 0 1-.9 3.282 1.184 1.184 0 0 1-1.235.845c-.347 0-.7.008-1.042 0a1.22 1.22 0 0 1-1.169-.796 16 16 0 0 1-.952-3.506c-.06-.36.183-.596.587-.585.694.024 1.388.059 2.081.089z"/><path fill="#000" d="M104.259 393.314c.775-.06 1.565-.06 2.334-.188a8.8 8.8 0 0 0 3.709-1.269 8.7 8.7 0 0 0 2.78-2.751 8.67 8.67 0 0 0 .843-7.556 11.73 11.73 0 0 0-4.719-6.12 17 17 0 0 1-.452-.316l.713-.958a13.26 13.26 0 0 1 4.761 5.712 10.12 10.12 0 0 1 .786 5.721 8.7 8.7 0 0 1-1.603 3.948 8.76 8.76 0 0 1-3.289 2.726 10.77 10.77 0 0 1-5.863 1.051M104.475 375.816a5 5 0 0 1-.592-.508.55.55 0 0 1-.078-.398c.131-.825.271-1.649.43-2.469a.39.39 0 0 0-.193-.469 23 23 0 0 1-1.384-.948 3 3 0 0 1-.655-.656.39.39 0 0 1-.005-.439.403.403 0 0 1 .405-.176c.275.045.539.139.781.276q.789.45 1.548.943a.38.38 0 0 0 .479 0c.625-.413 1.26-.812 1.894-1.213.581-.367.729-.355 1.338.112l-2.251 2.016c.612.423 1.2.834 1.791 1.231a.36.36 0 0 0 .3.022.93.93 0 0 1 1.045.174l-.6.497.168.568-.608.1-.221.723c-.352-.211-.615-.434-.577-.873a.34.34 0 0 0-.04-.149.34.34 0 0 0-.1-.118c-.6-.381-1.219-.748-1.856-1.133zM93.549 387.468c-.012-.32.123-.384.45-.298.679.19 1.355.391 2.04.558.444.108.9.17 1.355.245a.96.96 0 0 1 .83.796c.268 1.126.553 2.248.82 3.373.029.119.016.354-.02.363a.8.8 0 0 1-.468-.008 8.8 8.8 0 0 1-4.81-4.573c-.075-.167-.144-.342-.197-.456M93.814 381.59c-.256 0-.312-.157-.243-.355q.14-.395.334-.766a8.87 8.87 0 0 1 4.554-4.215.7.7 0 0 1 .189-.068c.126-.01.3-.051.367.012a.45.45 0 0 1 .034.365c-.138.517-.317 1.022-.443 1.541-.15.616-.264 1.243-.385 1.866a.9.9 0 0 1-.746.759l-3.526.832c-.044.009-.088.015-.135.029"/><path fill="#000" d="M104.699 392.421c.043-.156.062-.221.078-.286.272-1.101.554-2.202.81-3.307a1 1 0 0 1 .888-.857c1.071-.228 2.135-.497 3.2-.744.043-.01.084-.043.126-.043.139 0 .33-.045.4.026a.46.46 0 0 1 0 .397 14 14 0 0 1-.824 1.566 8.7 8.7 0 0 1-4.1 3.335c-.083.034-.178.094-.253.077a1.5 1.5 0 0 1-.325-.164M109.977 381.586c-.063-.018-.148-.044-.235-.066-1.088-.256-2.174-.525-3.267-.763a1.01 1.01 0 0 1-.888-.861c-.254-1.106-.538-2.206-.8-3.309-.03-.128-.043-.327.027-.39a.47.47 0 0 1 .4 0 8.8 8.8 0 0 1 2.991 1.913 8.7 8.7 0 0 1 1.986 2.934q.237.562-.214.542M34.017 409.637v2.055h-2.79v8.475h-2.565v-8.475h-2.79v-2.055zm3.852 3.555q.45-.69 1.125-1.08.675-.405 1.5-.405v2.715h-.705q-.96 0-1.44.42-.48.405-.48 1.44v3.885h-2.565v-8.37h2.565zm3.341 2.775q0-1.29.48-2.265.495-.975 1.335-1.5a3.47 3.47 0 0 1 1.875-.525q.885 0 1.545.36.675.36 1.035.945v-1.185h2.565v8.37H47.48v-1.185q-.375.585-1.05.945-.66.36-1.545.36-1.02 0-1.86-.525-.84-.54-1.335-1.515-.48-.99-.48-2.28m6.27.015q0-.96-.54-1.515-.525-.555-1.29-.555t-1.305.555q-.525.54-.525 1.5t.525 1.53q.54.555 1.305.555t1.29-.555q.54-.555.54-1.515m8.186 1.785 1.815-5.97h2.73l-2.97 8.37h-3.165l-2.97-8.37h2.745zm13.514-1.92q0 .36-.045.75H63.33q.06.78.495 1.2.45.405 1.095.405.96 0 1.335-.81h2.73a3.7 3.7 0 0 1-.765 1.485q-.54.66-1.365 1.035t-1.845.375q-1.23 0-2.19-.525t-1.5-1.5-.54-2.28.525-2.28q.54-.975 1.5-1.5t2.205-.525q1.215 0 2.16.51t1.47 1.455q.54.945.54 2.205m-2.625-.675q0-.66-.45-1.05t-1.125-.39q-.645 0-1.095.375-.435.375-.54 1.065zm6.543-6.105v11.1h-2.564v-11.1zm15.718 2.64q1.56 0 2.475.945.93.945.93 2.625v4.89h-2.55v-4.545q0-.81-.435-1.245-.42-.45-1.17-.45t-1.185.45q-.42.435-.42 1.245v4.545h-2.55v-4.545q0-.81-.435-1.245-.42-.45-1.17-.45t-1.185.45q-.42.435-.42 1.245v4.545h-2.565v-8.37h2.565v1.05q.39-.525 1.02-.825.63-.315 1.425-.315.945 0 1.68.405.75.405 1.17 1.155.435-.69 1.185-1.125t1.635-.435m4.689 4.26q0-1.29.48-2.265.495-.975 1.335-1.5a3.47 3.47 0 0 1 1.875-.525q.885 0 1.545.36.675.36 1.035.945v-1.185h2.565v8.37h-2.565v-1.185q-.375.585-1.05.945-.66.36-1.545.36-1.02 0-1.86-.525-.84-.54-1.335-1.515-.48-.99-.48-2.28m6.27.015q0-.96-.54-1.515-.525-.555-1.29-.555t-1.305.555q-.525.54-.525 1.5t.525 1.53q.54.555 1.305.555t1.29-.555q.54-.555.54-1.515m9.521-4.275q1.47 0 2.34.96.885.945.885 2.61v4.89h-2.55v-4.545q0-.84-.435-1.305t-1.17-.465-1.17.465-.435 1.305v4.545h-2.565v-8.37h2.565v1.11q.39-.555 1.05-.87.66-.33 1.485-.33m4.497 4.26q0-1.29.48-2.265.495-.975 1.335-1.5a3.47 3.47 0 0 1 1.875-.525q.885 0 1.545.36.675.36 1.035.945v-1.185h2.565v8.37h-2.565v-1.185q-.375.585-1.05.945-.66.36-1.545.36-1.02 0-1.86-.525-.84-.54-1.335-1.515-.48-.99-.48-2.28m6.27.015q0-.96-.54-1.515-.525-.555-1.29-.555t-1.305.555q-.525.54-.525 1.5t.525 1.53q.54.555 1.305.555t1.29-.555q.54-.555.54-1.515m7.601-4.305q.885 0 1.545.36.675.36 1.035.945v-1.185h2.565v8.355q0 1.155-.465 2.085-.45.945-1.395 1.5-.93.555-2.325.555-1.86 0-3.015-.885-1.155-.87-1.32-2.37h2.535q.12.48.57.75.45.285 1.11.285.795 0 1.26-.465.48-.45.48-1.455v-1.185q-.375.585-1.035.96-.66.36-1.545.36-1.035 0-1.875-.525-.84-.54-1.335-1.515-.48-.99-.48-2.28t.48-2.265q.495-.975 1.335-1.5a3.47 3.47 0 0 1 1.875-.525m2.58 4.305q0-.96-.54-1.515-.525-.555-1.29-.555t-1.305.555q-.525.54-.525 1.5t.525 1.53q.54.555 1.305.555t1.29-.555q.54-.555.54-1.515m12.31-.135q0 .36-.045.75h-5.805q.06.78.495 1.2.45.405 1.095.405.96 0 1.335-.81h2.73a3.7 3.7 0 0 1-.765 1.485q-.54.66-1.365 1.035t-1.845.375q-1.23 0-2.19-.525t-1.5-1.5-.54-2.28.525-2.28q.54-.975 1.5-1.5t2.205-.525q1.215 0 2.16.51t1.47 1.455q.54.945.54 2.205m-2.625-.675q0-.66-.45-1.05t-1.125-.39q-.645 0-1.095.375-.435.375-.54 1.065zm14.659-3.465q1.56 0 2.475.945.93.945.93 2.625v4.89h-2.55v-4.545q0-.81-.435-1.245-.42-.45-1.17-.45t-1.185.45q-.42.435-.42 1.245v4.545h-2.55v-4.545q0-.81-.435-1.245-.42-.45-1.17-.45t-1.185.45q-.42.435-.42 1.245v4.545h-2.565v-8.37h2.565v1.05q.39-.525 1.02-.825.63-.315 1.425-.315.945 0 1.68.405.75.405 1.17 1.155.435-.69 1.185-1.125t1.635-.435m13.088 4.14q0 .36-.045.75h-5.805q.06.78.495 1.2.45.405 1.095.405.96 0 1.335-.81h2.73a3.7 3.7 0 0 1-.765 1.485q-.54.66-1.365 1.035t-1.845.375q-1.23 0-2.19-.525t-1.5-1.5-.54-2.28.525-2.28q.54-.975 1.5-1.5t2.205-.525q1.215 0 2.16.51t1.47 1.455q.54.945.54 2.205m-2.625-.675q0-.66-.45-1.05t-1.125-.39q-.645 0-1.095.375-.435.375-.54 1.065zm9.079-3.465q1.47 0 2.34.96.885.945.885 2.61v4.89h-2.55v-4.545q0-.84-.435-1.305t-1.17-.465-1.17.465-.435 1.305v4.545h-2.565v-8.37h2.565v1.11q.39-.555 1.05-.87.66-.33 1.485-.33m9.672 6.285v2.175h-1.305q-1.395 0-2.175-.675-.78-.69-.78-2.235v-3.33h-1.02v-2.13h1.02v-2.04h2.565v2.04h1.68v2.13h-1.68v3.36q0 .375.18.54t.6.165zM66.425 437.954q0-1.56.675-2.775a4.77 4.77 0 0 1 1.875-1.905q1.215-.69 2.745-.69 1.875 0 3.21.99t1.785 2.7h-2.82q-.315-.66-.9-1.005a2.47 2.47 0 0 0-1.305-.345q-1.185 0-1.92.825t-.735 2.205.735 2.205 1.92.825q.735 0 1.305-.345.585-.345.9-1.005h2.82q-.45 1.71-1.785 2.7-1.335.975-3.21.975-1.53 0-2.745-.675a4.9 4.9 0 0 1-1.875-1.905q-.675-1.215-.675-2.775m15.67 5.4q-1.23 0-2.22-.525a3.9 3.9 0 0 1-1.544-1.5q-.555-.975-.556-2.28 0-1.29.57-2.265.57-.99 1.56-1.515t2.22-.525 2.22.525 1.56 1.515q.57.975.57 2.265t-.584 2.28q-.57.975-1.576 1.5-.99.525-2.22.525m0-2.22q.736 0 1.246-.54.525-.54.525-1.545t-.51-1.545a1.6 1.6 0 0 0-1.23-.54q-.75 0-1.246.54-.495.525-.495 1.545 0 1.005.48 1.545.495.54 1.23.54m16.421-6.36q1.56 0 2.475.945.93.945.93 2.625v4.89h-2.55v-4.545q0-.81-.435-1.245-.42-.45-1.17-.45t-1.185.45q-.42.435-.42 1.245v4.545h-2.55v-4.545q0-.81-.435-1.245-.42-.45-1.17-.45t-1.185.45q-.42.435-.42 1.245v4.545h-2.565v-8.37h2.565v1.05q.39-.525 1.02-.825.63-.315 1.425-.315.945 0 1.68.405.75.405 1.17 1.155.435-.69 1.185-1.125t1.635-.435m7.764 1.275q.375-.585 1.035-.945t1.545-.36q1.035 0 1.875.525t1.32 1.5q.495.975.495 2.265t-.495 2.28q-.48.975-1.32 1.515-.84.525-1.875.525-.87 0-1.545-.36-.66-.36-1.035-.93v5.16h-2.565v-12.36h2.565zm3.66 2.985q0-.96-.54-1.5a1.72 1.72 0 0 0-1.305-.555q-.765 0-1.305.555-.525.555-.525 1.515t.525 1.515q.54.555 1.305.555t1.305-.555q.54-.57.54-1.53m3.446 0q0-1.29.48-2.265.495-.975 1.335-1.5a3.47 3.47 0 0 1 1.875-.525q.885 0 1.545.36.675.36 1.035.945v-1.185h2.565v8.37h-2.565v-1.185q-.375.585-1.05.945-.66.36-1.545.36-1.02 0-1.86-.525-.84-.54-1.335-1.515-.48-.99-.48-2.28m6.27.015q0-.96-.54-1.515-.525-.555-1.29-.555t-1.305.555q-.525.54-.525 1.5t.525 1.53q.54.555 1.305.555t1.29-.555q.54-.555.54-1.515m9.52-4.275q1.47 0 2.34.96.885.945.885 2.61v4.89h-2.55v-4.545q0-.84-.435-1.305t-1.17-.465-1.17.465-.435 1.305v4.545h-2.565v-8.37h2.565v1.11q.39-.555 1.05-.87.66-.33 1.485-.33m13.558.09-5.25 12.345h-2.76l1.92-4.26-3.405-8.085h2.865l1.935 5.235 1.92-5.235zM117.432 83.831c-.065.464-.118.93-.2 1.392a11.7 11.7 0 0 1-1.84 4.608 12.03 12.03 0 0 1-6.141 4.742c-.666.235-1.368.372-2.066.558l-.07-1.52a10.7 10.7 0 0 0 5.385-2.653 1.157 1.157 0 0 1-.232-1.5q.022-.06.037-.122c.108-.398.027-.565-.354-.726a1 1 0 0 1-.119-.049c-.165-.105-.431-.186-.472-.33a.87.87 0 0 1 .236-.92q.28-.228.587-.414c.45-.299.51-.558.2-1.003a1.2 1.2 0 0 0-1.08-.581 2.25 2.25 0 0 1-1.358-.41.99.99 0 0 1-.482-.958 1.18 1.18 0 0 0-.762-1.313q-.4-.179-.8-.35a1.074 1.074 0 0 1-.719-1.347 1.99 1.99 0 0 1 1.375-1.617 4.6 4.6 0 0 0 1.6-.902c.309-.233.549-.546.695-.904a2.13 2.13 0 0 0 .133-1.13 4.38 4.38 0 0 0-1.565-2.883 2.6 2.6 0 0 0-.813-.364 8.1 8.1 0 0 0-3.057-.49c-.41.031-.813.116-1.2.251a.508.508 0 0 0-.39.702.5.5 0 0 0 .201.23q.514.407 1.1.704c.35.199.723.357 1.082.54q.148.078.277.186c.383.317.394.655 0 .96-.426.332-.884.622-1.313.95a2.3 2.3 0 0 0-.495.515.53.53 0 0 0-.093.476.54.54 0 0 0 .329.359c.451.23.492.29.394.774-.081.467-.3.899-.629 1.241a.7.7 0 0 1-.575.306.71.71 0 0 1-.582-.292c-.409-.377-.82-.754-1.257-1.094a2.15 2.15 0 0 0-1.234-.397 1.64 1.64 0 0 0-1.412.962 1.14 1.14 0 0 0 .208 1.326.73.73 0 0 0 .775.21c.251-.054.5-.136.748-.189.437-.092.666.041.755.47.076.367.116.741.16 1.114.012.423.154.831.408 1.17.253.339.606.592 1.009.725.39.136.763.322 1.176.498-.788.238-1.524.459-2.259.684q-.265.06-.508.18c-.6.361-1.164.119-1.789-.064.2-.145.358-.27.525-.384a1.076 1.076 0 0 0 .299-1.632 1.1 1.1 0 0 0-.524-.34q-.885-.308-1.776-.605a4.1 4.1 0 0 1-1.549-.944 4.1 4.1 0 0 1-.988-1.515 5.9 5.9 0 0 1-.523-2.178 2 2 0 0 0-.026-.188 9.95 9.95 0 0 0-1.126 6.363l-1.448.291c-.037-.308-.1-.643-.113-.979a11.8 11.8 0 0 1 .917-5.567 11.9 11.9 0 0 1 3.398-4.518 11.6 11.6 0 0 1 6.387-2.743c3.064-.351 6.148.471 8.624 2.3a12.06 12.06 0 0 1 4.708 7.543c.092.497.141.994.21 1.492z"/><path fill="#000" d="M91 90.606a1.21 1.21 0 0 1 1.57-.287c.59.298 1.17.615 1.76.915a.35.35 0 0 0 .277.023c.78-.413 1.555-.84 2.33-1.264a.6.6 0 0 0 .092-.08l-2.43-1.57c-.433-.28-.868-.555-1.3-.838-.411-.272-.4-.644.014-.92a2.51 2.51 0 0 1 2.156-.353c1.988.534 3.982 1.047 5.976 1.56.139.03.283.021.418-.023.987-.318 1.966-.66 2.957-.967a6.1 6.1 0 0 1 2.409-.228c-.184.087-.321.152-.459.214-.344.156-.681.332-1.035.459a.473.473 0 0 0-.376.518c.005.084 0 .169 0 .298.329-.148.639-.285.947-.427q.866-.394 1.732-.795a1.08 1.08 0 0 1 1.387.746 1.36 1.36 0 0 1-.418 1.187 7 7 0 0 1-2.118 1.481 39.3 39.3 0 0 1-7.556 2.749c-1.971.527-3.968.959-5.956 1.42a2.44 2.44 0 0 1-1.323-.06c-.576-.19-.7-.608-.3-1.055.118-.133.263-.244.409-.378L91 90.863zM105.818 94.345c.06.4-.039.808-.276 1.137a1.57 1.57 0 0 1-.995.624.55.55 0 0 1-.449-.164 170 170 0 0 1-2.323-2.611c-.163-.186-.116-.356.121-.44q1.623-.577 3.252-1.138c.25-.086.37 0 .4.271.097.814.19 1.629.27 2.32M95.129 172.794h18.219a.63.63 0 0 1 .276.597c-.011 1.292-.006 2.585-.006 3.877v.381h.617c.479 0 .607.129.609.597q.001.7 0 1.417c.076.008.119.016.163.017.562.019.651.107.651.651v1.417c0 .696-.044.744-.734.782-.019 0-.037.021-.062.036v13.742h1.61v.818H92v-.81h1.61v-13.778c-.067-.005-.112-.01-.157-.011-.537-.012-.635-.11-.635-.631v-1.417c0-.728.017-.746.747-.795.018 0 .034-.026.069-.055 0-.479-.005-.973 0-1.468.005-.345.15-.485.5-.492.233-.005.466 0 .72 0v-.378c0-1.292.007-2.585 0-3.877a.63.63 0 0 1 .275-.62m-.663 23.497H114v-13.743H94.466zm1.223-18.656h17.1v-4.011h-17.1zm19.137 2.889H93.662v1.176h21.164zm-.824-.852v-1.181h-19.53v1.181z"/><path fill="#000" d="M99.344 186.212v1.856c0 .409-.141.543-.553.545h-2.58c-.39 0-.534-.142-.535-.528a617 617 0 0 1 0-3.848c0-.344.15-.489.5-.497q1.325-.006 2.648 0c.372 0 .514.138.518.508.006.658 0 1.311.002 1.964m-.844 1.568v-3.206h-1.99v3.206zM102.6 186.154V184.3c0-.414.134-.554.541-.554q1.306-.007 2.614 0c.366 0 .516.146.518.513q.007 1.925 0 3.848c0 .361-.153.503-.526.504q-1.308.009-2.614 0c-.384 0-.531-.148-.533-.531zm.836 1.616h2v-3.194h-2zM112.8 186.211v1.856c0 .406-.14.541-.554.543H109.7c-.434 0-.574-.136-.574-.558v-3.713c0-.468.131-.597.607-.597h2.513c.412 0 .552.14.557.544.005.641-.003 1.283-.003 1.925m-.843 1.578v-3.215h-1.987v3.215zM95.673 192.635v-1.856c0-.409.138-.545.55-.546h2.58c.394 0 .537.135.538.524q.006 1.924 0 3.847c0 .347-.15.497-.5.497q-1.34.007-2.681 0c-.342 0-.485-.151-.488-.503-.003-.653 0-1.311 0-1.963m.824 1.624h2.009v-3.189H96.5zM102.6 192.652v-1.889c0-.384.148-.525.536-.526h2.614c.372 0 .521.142.522.507q.008 1.924 0 3.848c0 .37-.149.509-.521.511q-1.308.006-2.613 0c-.408 0-.536-.14-.538-.558zm.841-1.591v3.2h2v-3.2zM112.8 192.674v1.889c0 .391-.141.533-.528.535q-1.306.007-2.614 0c-.384 0-.531-.149-.532-.535v-3.815c0-.369.15-.515.513-.516q1.323-.006 2.649 0c.366 0 .509.145.512.515.008.644 0 1.286 0 1.927m-2.842 1.597h2.005v-3.204h-2.005zM102.351 176.872a1.36 1.36 0 0 1-1.245-.831 1.34 1.34 0 0 1 .296-1.461 1.35 1.35 0 0 1 1.471-.287 1.342 1.342 0 0 1 .83 1.241v.01a1.28 1.28 0 0 1-.333.916 1.29 1.29 0 0 1-1.019.412m-.827-1.363a.83.83 0 0 0 .552.73.84.84 0 0 0 .896-.206.84.84 0 0 0 .174-.898.85.85 0 0 0-.755-.521.8.8 0 0 0-.594.201.8.8 0 0 0-.276.56 1 1 0 0 0 0 .135zM98.864 175.336h1.259v-1.102h.484v2.591h-.465v-1.109H98.89v1.109h-.48v-2.596h.454zM106.639 174.6v.72h.909l.023.378h-.918v.729h1.138v.406h-1.634v-2.594h1.632v.36zM103.737 174.221h2.057l.019.398h-.778v2.208h-.505v-2.203h-.793zM108.72 176.445h1.058v.386h-1.51v-2.597h.452zM114.151 177.991H93.706v1.849h20.445z"/><path fill="#000" d="M99.282 184.152h-3.098v3.696h3.098zM106.097 184.152h-3.098v3.696h3.098zM112.293 184.152h-3.098v3.696h3.098zM112.293 190.928h-3.098v3.696h3.098zM106.097 190.928h-3.098v3.696h3.098zM99.282 190.928h-3.098v3.696h3.098zM104.079 292.814a27 27 0 0 1-2.912-.919 8.46 8.46 0 0 1-3.754-3.335.78.78 0 0 0-.85-.44 7.1 7.1 0 0 1-4-.816c-1.973-1.073-2.093-3.094-.253-4.375a6.3 6.3 0 0 1 1.526-.759c.213-.074.519.127.784.199-.151.207-.26.482-.46.61-.42.268-.914.416-1.328.688-1.227.812-1.241 1.871-.028 2.685a5.53 5.53 0 0 0 3.758.834c-.213-.895-.5-1.736-.614-2.603-1.316-9.669 11.134-14.809 16.845-6.911a.85.85 0 0 1 .095.779c-.326.352-.582.019-.794-.251a8.15 8.15 0 0 0-3.314-2.763 8.2 8.2 0 0 0-4.269-.689 8.6 8.6 0 0 0-3.798 1.28 8.56 8.56 0 0 0-2.799 2.854 8.5 8.5 0 0 0-.514 7.736c.142.364.339.519.694.337.842-.429 1.668-.895 2.515-1.306q.389-.135.8-.175c-.063.298-.028.737-.205.855-.747.497-1.553.907-2.347 1.329a5.4 5.4 0 0 1-.736.27c4.116 6.866 14.822 4.346 15.605-3.751.01-.071 0-.162.035-.211.165-.212.344-.415.52-.62.119.253.377.533.33.752a15.5 15.5 0 0 1-.791 3.125c-1.377 3.29-4.1 4.88-7.452 5.586z"/><path fill="#000" d="M107.213 281.564c-2-1.015-3.838-1.929-5.651-2.883a3.4 3.4 0 0 1-.737-.75 3.58 3.58 0 0 1 1.974-1.142 3.6 3.6 0 0 1 2.267.281c2.109.815 4.28 1.477 6.442 2.146 1.181.303 2.284-.531 3.352-.913a1.8 1.8 0 0 1 1.396-.063 1.79 1.79 0 0 1 1.014.957 1.78 1.78 0 0 1 .009 1.39c-.092.22-.229.42-.4.587a1.8 1.8 0 0 1-.6.383 1544 1544 0 0 1-13.437 5.802 1.37 1.37 0 0 1-1.111-.122c-1.85-1.245-3.666-2.541-5.482-3.836-.715-.51-.647-.829.1-1.264a2.637 2.637 0 0 1 3.175-.013 4.974 4.974 0 0 0 6.218.109q.71-.386 1.471-.669"/><path stroke="#707070" d="M190 1.026H18c-9.665 0-17.5 7.79-17.5 17.4v479.247c0 9.61 7.835 17.4 17.5 17.4h172c9.665 0 17.5-7.79 17.5-17.4V18.426c0-9.61-7.835-17.4-17.5-17.4Z"/><g filter="url(#a)"><path stroke="#707070" d="M212.63 245.237c63.402 28.384-11.427 100.263 104.686 112.059"/></g><g filter="url(#b)"><g clip-path="url(#c)"><path stroke="#707070" d="M213.043 244.743s26.844-2.291 44.365-28.672 10.161-51.067 25.723-76.854 26.035-26.105 36.523-26.293"/><path fill="#FACC83" d="M320.115 118.511a5 5 0 1 0 0-10 5 5 0 0 0 0 10"/></g></g><circle cx="321.621" cy="357.296" r="4.304" fill="#23D7FE"/><path fill="#6F6F6F" d="M208 249.943c2.761 0 5-2.226 5-4.972 0-2.745-2.239-4.971-5-4.971s-5 2.226-5 4.971 2.239 4.972 5 4.972"/><defs><filter id="a" width="112.941" height="121.013" x="208.426" y="244.781" color-interpolation-filters="sRGB" filterUnits="userSpaceOnUse"><feFlood flood-opacity="0" result="BackgroundImageFix"/><feColorMatrix in="SourceAlpha" result="hardAlpha" values="0 0 0 0 0 0 0 0 0 0 0 0 0 0 0 0 0 0 127 0"/><feOffset dy="4"/><feGaussianBlur stdDeviation="2"/><feComposite in2="hardAlpha" operator="out"/><feColorMatrix values="0 0 0 0 0 0 0 0 0 0 0 0 0 0 0 0 0 0 0.25 0"/><feBlend in2="BackgroundImageFix" result="effect1_dropShadow_26_507"/><feBlend in="SourceGraphic" in2="effect1_dropShadow_26_507" result="shape"/></filter><filter id="b" width="120.701" height="145.312" x="213" y="108.511" color-interpolation-filters="sRGB" filterUnits="userSpaceOnUse"><feFlood flood-opacity="0" result="BackgroundImageFix"/><feColorMatrix in="SourceAlpha" result="hardAlpha" values="0 0 0 0 0 0 0 0 0 0 0 0 0 0 0 0 0 0 127 0"/><feOffset dx="5.008" dy="5.008"/><feGaussianBlur stdDeviation="1.789"/><feColorMatrix values="0 0 0 0 0 0 0 0 0 0 0 0 0 0 0 0 0 0 0.18 0"/><feBlend in2="BackgroundImageFix" result="effect1_dropShadow_26_507"/><feBlend in="SourceGraphic" in2="effect1_dropShadow_26_507" result="shape"/></filter><clipPath id="c"><path fill="#fff" d="M213 108.511h112.115v136.726H213z"/></clipPath></defs></svg>