<svg xmlns="http://www.w3.org/2000/svg" width="196" height="359" fill="none"><g filter="url(#a)"><path stroke="#707070" d="M74.001 5.468s49.762-6.838 64.445 57.845c14.683 64.684 47.938 78.833 51.559 77.862" shape-rendering="crispEdges"/></g><g filter="url(#b)"><path stroke="#707070" d="M6.712 349.358s100.408 8.81 110.822-86.62c10.414-95.429 71.07-121.617 71.07-121.617" shape-rendering="crispEdges"/></g><path fill="url(#c)" d="M190.505 146.19c2.761 0 5-2.225 5-4.971s-2.239-4.971-5-4.971-5 2.225-5 4.971 2.238 4.971 5 4.971"/><path stroke="#707070" d="M190.505 145.693c2.485 0 4.5-2.003 4.5-4.474s-2.015-4.474-4.5-4.474-4.5 2.003-4.5 4.474 2.015 4.474 4.5 4.474Z"/><path fill="url(#d)" d="M71.505 10.23c2.761 0 5-2.225 5-4.971s-2.239-4.971-5-4.971-5 2.225-5 4.971 2.239 4.971 5 4.971"/><path stroke="#707070" d="M71.505 9.733c2.485 0 4.5-2.003 4.5-4.474S73.99.785 71.505.785s-4.5 2.003-4.5 4.474 2.015 4.474 4.5 4.474Z"/><path fill="url(#e)" d="M5.494 354.543c2.762 0 5-2.226 5-4.972 0-2.745-2.238-4.971-5-4.971s-5 2.226-5 4.971 2.239 4.972 5 4.972"/><path stroke="#707070" d="M5.494 354.046c2.485 0 4.5-2.004 4.5-4.475s-2.015-4.474-4.5-4.474-4.5 2.003-4.5 4.474 2.015 4.475 4.5 4.475Z"/><defs><linearGradient id="c" x1="195.505" x2="181.709" y1="136.248" y2="146.265" gradientUnits="userSpaceOnUse"><stop/><stop offset="1" stop-color="#545454"/></linearGradient><linearGradient id="d" x1="76.505" x2="62.709" y1=".288" y2="10.306" gradientUnits="userSpaceOnUse"><stop/><stop offset="1" stop-color="#545454"/></linearGradient><linearGradient id="e" x1="10.494" x2="-3.301" y1="344.6" y2="354.618" gradientUnits="userSpaceOnUse"><stop/><stop offset="1" stop-color="#545454"/></linearGradient><filter id="a" width="124.2" height="144.961" x="69.934" y="4.76" color-interpolation-filters="sRGB" filterUnits="userSpaceOnUse"><feFlood flood-opacity="0" result="BackgroundImageFix"/><feColorMatrix in="SourceAlpha" result="hardAlpha" values="0 0 0 0 0 0 0 0 0 0 0 0 0 0 0 0 0 0 127 0"/><feOffset dy="4"/><feGaussianBlur stdDeviation="2"/><feComposite in2="hardAlpha" operator="out"/><feColorMatrix values="0 0 0 0 0 0 0 0 0 0 0 0 0 0 0 0 0 0 0.25 0"/><feBlend in2="BackgroundImageFix" result="effect1_dropShadow_26_505"/><feBlend in="SourceGraphic" in2="effect1_dropShadow_26_505" result="shape"/></filter><filter id="b" width="190.133" height="217.41" x="2.67" y="140.662" color-interpolation-filters="sRGB" filterUnits="userSpaceOnUse"><feFlood flood-opacity="0" result="BackgroundImageFix"/><feColorMatrix in="SourceAlpha" result="hardAlpha" values="0 0 0 0 0 0 0 0 0 0 0 0 0 0 0 0 0 0 127 0"/><feOffset dy="4"/><feGaussianBlur stdDeviation="2"/><feComposite in2="hardAlpha" operator="out"/><feColorMatrix values="0 0 0 0 0 0 0 0 0 0 0 0 0 0 0 0 0 0 0.25 0"/><feBlend in2="BackgroundImageFix" result="effect1_dropShadow_26_505"/><feBlend in="SourceGraphic" in2="effect1_dropShadow_26_505" result="shape"/></filter></defs></svg>