<svg xmlns="http://www.w3.org/2000/svg" width="359" height="505" fill="none"><path fill="#000" d="M185.418 459.247v-10.5h1.2l4.365 7.185h-.78l4.365-7.185h1.2v10.5h-1.725v-7.47l.39.105-3.24 5.325h-1.2l-3.24-5.325.39-.105v7.47zm15.747.15q-1.08 0-1.95-.48a3.76 3.76 0 0 1-1.365-1.35 3.76 3.76 0 0 1-.495-1.92q0-1.065.495-1.905.495-.855 1.335-1.35.855-.495 1.89-.495 1.005 0 1.77.465.78.465 1.215 1.275.45.81.45 1.845 0 .18-.03.375-.015.18-.06.405h-5.91v-1.35h5.055l-.615.54q-.03-.66-.255-1.11t-.645-.69q-.405-.24-1.005-.24-.63 0-1.095.27t-.72.765q-.255.48-.255 1.155t.27 1.185.765.795q.495.27 1.14.27.555 0 1.02-.195.48-.195.81-.57l1.05 1.065q-.525.615-1.275.93t-1.59.315m5.573-.15v-10.2h1.65v10.2zm-1.725-5.7v-1.5h5.1v1.5zm9.108 5.85q-.975 0-1.77-.495a3.64 3.64 0 0 1-1.245-1.335q-.45-.855-.45-1.905 0-1.065.45-1.905.465-.855 1.245-1.35a3.2 3.2 0 0 1 1.77-.51q.825 0 1.455.36.645.345 1.02.96t.375 1.395v2.07q0 .78-.375 1.395-.36.615-1.005.975-.645.345-1.47.345m.27-1.56q.915 0 1.47-.615.57-.615.57-1.575 0-.645-.255-1.14t-.72-.765q-.45-.285-1.065-.285-.6 0-1.065.285-.45.27-.72.765-.255.495-.255 1.14t.255 1.14q.27.495.72.78.465.27 1.065.27m1.935 1.41v-1.935l.285-1.755-.285-1.74v-1.77h1.65v7.2zm9.635.15q-1.245 0-2.115-.45t-1.56-1.32l1.17-1.17q.435.63 1.035.99.6.345 1.53.345.87 0 1.38-.36.525-.36.525-.99 0-.525-.27-.855t-.72-.54q-.435-.225-.975-.39-.525-.18-1.065-.39a5 5 0 0 1-.975-.555 2.5 2.5 0 0 1-.705-.855q-.27-.525-.27-1.335 0-.93.45-1.575.465-.66 1.245-1.005t1.74-.345q1.035 0 1.845.405.825.405 1.335 1.035l-1.17 1.17q-.45-.51-.945-.75a2.3 2.3 0 0 0-1.11-.255q-.78 0-1.23.315-.435.315-.435.885 0 .48.27.78.27.285.705.495.45.195.975.375.54.18 1.065.405.54.225.975.585.45.345.72.9t.27 1.395q0 1.41-1.005 2.235-.99.825-2.685.825m8.442 0q-1.08 0-1.95-.48a3.76 3.76 0 0 1-1.365-1.35 3.76 3.76 0 0 1-.495-1.92q0-1.065.495-1.905.495-.855 1.335-1.35.855-.495 1.89-.495 1.005 0 1.77.465.78.465 1.215 1.275.45.81.45 1.845 0 .18-.03.375-.015.18-.06.405h-5.91v-1.35h5.055l-.615.54q-.03-.66-.255-1.11t-.645-.69q-.405-.24-1.005-.24-.63 0-1.095.27t-.72.765q-.255.48-.255 1.155t.27 1.185.765.795q.495.27 1.14.27.555 0 1.02-.195.48-.195.81-.57l1.05 1.065q-.525.615-1.275.93t-1.59.315m7.682 0q-.975 0-1.77-.495a3.64 3.64 0 0 1-1.245-1.335q-.45-.855-.45-1.905 0-1.065.45-1.905.465-.855 1.245-1.35a3.2 3.2 0 0 1 1.77-.51q.825 0 1.455.36.645.345 1.02.96t.375 1.395v2.07q0 .78-.375 1.395-.36.615-1.005.975-.645.345-1.47.345m.27-1.56q.915 0 1.47-.615.57-.615.57-1.575 0-.645-.255-1.14t-.72-.765q-.45-.285-1.065-.285-.6 0-1.065.285-.45.27-.72.765-.255.495-.255 1.14t.255 1.14q.27.495.72.78.465.27 1.065.27m1.935 1.41v-1.935l.285-1.755-.285-1.74v-1.77h1.65v7.2zm3.481 0v-7.2h1.65v7.2zm1.65-4.005-.57-.285q0-1.365.6-2.205.615-.855 1.845-.855.54 0 .975.195t.81.63l-1.08 1.11q-.195-.21-.435-.3t-.555-.09q-.69 0-1.14.435t-.45 1.365m7.554 4.155q-1.065 0-1.935-.495-.855-.495-1.35-1.35a3.73 3.73 0 0 1-.495-1.905q0-1.065.495-1.905.495-.855 1.35-1.35a3.84 3.84 0 0 1 1.935-.495q.84 0 1.56.33.735.315 1.245.915l-1.08 1.095a1.9 1.9 0 0 0-.765-.555 2.3 2.3 0 0 0-.96-.195q-.615 0-1.095.285-.465.27-.735.75-.255.48-.255 1.125 0 .63.255 1.125.27.48.735.765.48.27 1.095.27.525 0 .96-.18.45-.195.765-.57l1.08 1.095q-.51.6-1.245.93-.72.315-1.56.315m8.93-.15v-4.155q0-.72-.465-1.185-.45-.465-1.17-.465-.48 0-.855.21t-.585.585-.21.855l-.645-.36q0-.825.36-1.455.36-.645.99-1.005.645-.375 1.44-.375.81 0 1.44.36t.99 1.005q.36.63.36 1.47v4.515zm-4.935 0v-10.8h1.65v10.8zm11.489 0v-10.5h1.725v10.5zm1.185 0v-1.575h5.88v1.575zm0-4.605v-1.515h5.37v1.515zm0-4.32v-1.575h5.805v1.575zm12.373 8.925v-4.155q0-.72-.465-1.185-.45-.465-1.17-.465-.48 0-.855.21t-.585.585-.21.855l-.645-.36q0-.825.36-1.455.36-.645.99-1.005.645-.375 1.44-.375.81 0 1.44.42.63.405.99 1.065.36.645.36 1.35v4.515zm-4.935 0v-7.2h1.65v7.2zm11.262 3.15q-1.14 0-1.995-.42a3.46 3.46 0 0 1-1.38-1.155l1.08-1.08q.435.54.99.81t1.335.27q.975 0 1.545-.51.57-.495.57-1.365v-1.77l.285-1.59-.285-1.605v-1.935h1.65v6.9q0 1.035-.48 1.8-.48.78-1.335 1.215t-1.98.435m-.075-3.3q-.96 0-1.74-.465a3.5 3.5 0 0 1-1.215-1.305 3.9 3.9 0 0 1-.435-1.845q0-1.02.435-1.83.45-.81 1.215-1.275.78-.48 1.74-.48.855 0 1.5.345t1.005.96q.36.6.36 1.41v1.77q0 .795-.375 1.41-.36.615-1.005.96t-1.485.345m.33-1.56q.6 0 1.05-.255t.69-.705q.255-.465.255-1.08t-.255-1.065q-.24-.465-.69-.72t-1.05-.255-1.065.255q-.45.255-.705.72-.255.45-.255 1.065 0 .6.255 1.065t.705.72q.465.255 1.065.255m5.388 1.71v-7.2h1.65v7.2zm.825-8.52a.96.96 0 0 1-.705-.285.99.99 0 0 1-.27-.705q0-.42.27-.705a.96.96 0 0 1 .705-.285q.435 0 .705.285t.27.705-.27.705a.93.93 0 0 1-.705.285m7.61 8.52v-4.155q0-.72-.465-1.185-.45-.465-1.17-.465-.48 0-.855.21t-.585.585-.21.855l-.645-.36q0-.825.36-1.455.36-.645.99-1.005.645-.375 1.44-.375.81 0 1.44.42.63.405.99 1.065.36.645.36 1.35v4.515zm-4.935 0v-7.2h1.65v7.2zm11.607.15q-1.08 0-1.95-.48a3.76 3.76 0 0 1-1.365-1.35 3.76 3.76 0 0 1-.495-1.92q0-1.065.495-1.905.495-.855 1.335-1.35.855-.495 1.89-.495 1.005 0 1.77.465.78.465 1.215 1.275.45.81.45 1.845 0 .18-.03.375-.015.18-.06.405h-5.91v-1.35h5.055l-.615.54q-.03-.66-.255-1.11t-.645-.69q-.405-.24-1.005-.24-.63 0-1.095.27t-.72.765q-.255.48-.255 1.155t.27 1.185.765.795q.495.27 1.14.27.555 0 1.02-.195.48-.195.81-.57l1.05 1.065q-.525.615-1.275.93t-1.59.315M212.658 477.144l-3.45-10.5h1.695l2.595 8.085h-.45l2.535-8.085h1.2l2.535 8.085h-.45l2.595-8.085h1.695l-3.45 10.5h-1.2l-2.55-8.07h.45l-2.55 8.07zm14.102.15q-1.08 0-1.95-.48a3.76 3.76 0 0 1-1.365-1.35 3.76 3.76 0 0 1-.495-1.92q0-1.065.495-1.905.495-.855 1.335-1.35.855-.495 1.89-.495 1.005 0 1.77.465.78.465 1.215 1.275.45.81.45 1.845 0 .18-.03.375-.015.18-.06.405h-5.91v-1.35h5.055l-.615.54q-.03-.66-.255-1.11t-.645-.69q-.405-.24-1.005-.24-.63 0-1.095.27t-.72.765q-.255.48-.255 1.155t.27 1.185.765.795q.495.27 1.14.27.555 0 1.02-.195.48-.195.81-.57l1.05 1.065q-.525.615-1.275.93t-1.59.315m8.523 0q-.825 0-1.47-.345a2.73 2.73 0 0 1-1.02-.975 2.7 2.7 0 0 1-.36-1.395v-2.07q0-.78.375-1.395t1.02-.96q.645-.36 1.455-.36.975 0 1.755.51.795.495 1.245 1.35.465.84.465 1.905 0 1.05-.465 1.905-.45.84-1.245 1.335-.78.495-1.755.495m-3.855-.15v-10.8h1.65v5.37l-.285 1.74.285 1.755v1.935zm3.585-1.41q.6 0 1.05-.27.465-.285.72-.78.27-.495.27-1.14t-.27-1.14q-.255-.495-.72-.765a1.9 1.9 0 0 0-1.05-.285q-.6 0-1.065.285-.465.27-.72.765t-.255 1.14.255 1.14.72.78q.465.27 1.065.27m7.471 1.56q-.6 0-1.155-.15a4.3 4.3 0 0 1-1.02-.45q-.465-.3-.81-.72l1.05-1.05q.375.435.855.66.495.21 1.11.21.555 0 .84-.165t.285-.48q0-.33-.27-.51t-.705-.3q-.42-.135-.9-.27-.465-.135-.9-.36-.42-.24-.69-.645t-.27-1.05q0-.69.315-1.185.33-.495.915-.765.6-.27 1.425-.27.87 0 1.53.315.675.3 1.125.915l-1.05 1.05q-.315-.39-.72-.585t-.93-.195q-.495 0-.765.15t-.27.435q0 .3.27.465t.69.285q.435.12.9.27.48.135.9.39.435.24.705.66.27.405.27 1.065 0 1.05-.735 1.665t-1.995.615m4.105-.15v-7.2h1.65v7.2zm.825-8.52a.96.96 0 0 1-.705-.285.99.99 0 0 1-.27-.705q0-.42.27-.705a.96.96 0 0 1 .705-.285q.435 0 .705.285t.27.705-.27.705a.93.93 0 0 1-.705.285m3.771 8.52v-10.2h1.65v10.2zm-1.725-5.7v-1.5h5.1v1.5zm9.439 5.85q-1.08 0-1.95-.48a3.76 3.76 0 0 1-1.365-1.35 3.76 3.76 0 0 1-.495-1.92q0-1.065.495-1.905.495-.855 1.335-1.35.855-.495 1.89-.495 1.005 0 1.77.465.78.465 1.215 1.275.45.81.45 1.845 0 .18-.03.375-.015.18-.06.405h-5.91v-1.35h5.055l-.615.54q-.03-.66-.255-1.11t-.645-.69q-.405-.24-1.005-.24-.63 0-1.095.27t-.72.765q-.255.48-.255 1.155t.27 1.185.765.795q.495.27 1.14.27.555 0 1.02-.195.48-.195.81-.57l1.05 1.065q-.525.615-1.275.93t-1.59.315m3.887.45 4.2-11.7h1.545l-4.2 11.7zm5.381-.6 4.32-10.5h1.2l4.29 10.5h-1.86l-3.36-8.505h.63l-3.39 8.505zm2.13-2.025v-1.5h5.565v1.5zm12.813 2.175q-.825 0-1.47-.345a2.73 2.73 0 0 1-1.02-.975 2.7 2.7 0 0 1-.36-1.395v-2.07q0-.78.375-1.395t1.02-.96q.645-.36 1.455-.36.975 0 1.755.51.795.495 1.245 1.35.465.84.465 1.905 0 1.05-.465 1.905-.45.84-1.245 1.335-.78.495-1.755.495m-3.855 2.85v-10.2h1.65v1.935l-.285 1.755.285 1.74v4.77zm3.585-4.41q.6 0 1.05-.27.465-.285.72-.78.27-.495.27-1.14t-.27-1.14q-.255-.495-.72-.765a1.9 1.9 0 0 0-1.05-.285q-.6 0-1.065.285-.465.27-.72.765t-.255 1.14.255 1.14.72.78q.465.27 1.065.27m8.971 1.56q-.825 0-1.47-.345a2.73 2.73 0 0 1-1.02-.975 2.7 2.7 0 0 1-.36-1.395v-2.07q0-.78.375-1.395t1.02-.96q.645-.36 1.455-.36.975 0 1.755.51.795.495 1.245 1.35.465.84.465 1.905 0 1.05-.465 1.905-.45.84-1.245 1.335-.78.495-1.755.495m-3.855 2.85v-10.2h1.65v1.935l-.285 1.755.285 1.74v4.77zm3.585-4.41q.6 0 1.05-.27.465-.285.72-.78.27-.495.27-1.14t-.27-1.14q-.255-.495-.72-.765a1.9 1.9 0 0 0-1.05-.285q-.6 0-1.065.285-.465.27-.72.765t-.255 1.14.255 1.14.72.78q.465.27 1.065.27M263.347 427.508c-1.826 6.672-9.2 9.369-14.631 7.793.792-.782 1.55-1.557 2.346-2.286.203-.11.435-.153.664-.123a9.5 9.5 0 0 0 6.364-2.2 8.4 8.4 0 0 0 2.145-2.748 1.58 1.58 0 0 0-.011-1.591q-.45-.768-.9-1.529l1.975-1.944a9.4 9.4 0 0 1 2.045 3.922z"/><path fill="#000" d="M251.848 431.494a12 12 0 0 1-1.483-.333.61.61 0 0 0-.744.185 825 825 0 0 1-5.384 5.36 1.367 1.367 0 0 1-1.444.389 1.39 1.39 0 0 1-1.005-1.108 1.45 1.45 0 0 1 .5-1.366c1.776-1.757 3.54-3.525 5.322-5.277a.6.6 0 0 0 .181-.739 4.25 4.25 0 0 1-.152-2.377 4.27 4.27 0 0 1 1.15-2.089 4.32 4.32 0 0 1 4.486-1.013.65.65 0 0 0 .785-.198c1.774-1.783 3.563-3.551 5.348-5.324a1.44 1.44 0 0 1 1.467-.404 1.43 1.43 0 0 1 1.006 1.134 1.41 1.41 0 0 1-.491 1.319c-1.775 1.759-3.54 3.527-5.322 5.278a.634.634 0 0 0-.189.783 4.32 4.32 0 0 1-.528 3.915 4.375 4.375 0 0 1-3.503 1.865m-.008-2.898a1.456 1.456 0 0 0 1.346-.906 1.443 1.443 0 0 0-.335-1.58 1.46 1.46 0 0 0-1.598-.291 1.46 1.46 0 0 0-.646.548 1.46 1.46 0 0 0-.229.813 1.503 1.503 0 0 0 1.462 1.419z"/><path fill="#000" d="m244.33 429.471-1.982 1.958a8.02 8.02 0 0 1-1.988-4.071 3.5 3.5 0 0 1 .317-1.67 11.24 11.24 0 0 1 3.118-4.311 11.3 11.3 0 0 1 4.759-2.406 12.8 12.8 0 0 1 5.974-.122c.126.026.246.073.45.134-.816.804-1.566 1.565-2.348 2.287a.96.96 0 0 1-.608.137 9.26 9.26 0 0 0-7.189 2.935c-.52.624-.982 1.294-1.381 2.001a1.49 1.49 0 0 0 0 1.635q.443.747.878 1.493M215.829 379.817l-3.45-10.5h1.695l2.595 8.085h-.45l2.535-8.085h1.2l2.535 8.085h-.45l2.595-8.085h1.695l-3.45 10.5h-1.2l-2.55-8.07h.45l-2.55 8.07zm16.747 0v-4.155q0-.72-.465-1.185-.45-.465-1.17-.465-.48 0-.855.21t-.585.585-.21.855l-.645-.36q0-.825.36-1.455.36-.645.99-1.005.645-.375 1.44-.375.81 0 1.44.36t.99 1.005q.36.63.36 1.47v4.515zm-4.935 0v-10.8h1.65v10.8zm8.276 0v-7.2h1.65v7.2zm.825-8.52a.96.96 0 0 1-.705-.285.99.99 0 0 1-.27-.705q0-.42.27-.705a.96.96 0 0 1 .705-.285q.435 0 .705.285t.27.705-.27.705a.93.93 0 0 1-.705.285m3.771 8.52v-10.2h1.65v10.2zm-1.725-5.7v-1.5h5.1v1.5zm9.439 5.85q-1.08 0-1.95-.48a3.76 3.76 0 0 1-1.365-1.35 3.76 3.76 0 0 1-.495-1.92q0-1.065.495-1.905.495-.855 1.335-1.35.855-.495 1.89-.495 1.005 0 1.77.465.78.465 1.215 1.275.45.81.45 1.845 0 .18-.03.375-.015.18-.06.405h-5.91v-1.35h5.055l-.615.54q-.03-.66-.255-1.11t-.645-.69q-.405-.24-1.005-.24-.63 0-1.095.27t-.72.765q-.255.48-.255 1.155t.27 1.185.765.795q.495.27 1.14.27.555 0 1.02-.195.48-.195.81-.57l1.05 1.065q-.525.615-1.275.93t-1.59.315m7.895-.15v-10.5h1.725v10.5zm1.185 0v-1.575h5.49v1.575zm9.603.15q-.975 0-1.77-.495a3.64 3.64 0 0 1-1.245-1.335q-.45-.855-.45-1.905 0-1.065.45-1.905.465-.855 1.245-1.35a3.2 3.2 0 0 1 1.77-.51q.825 0 1.455.36.645.345 1.02.96t.375 1.395v2.07q0 .78-.375 1.395-.36.615-1.005.975-.645.345-1.47.345m.27-1.56q.915 0 1.47-.615.57-.615.57-1.575 0-.645-.255-1.14t-.72-.765q-.45-.285-1.065-.285-.6 0-1.065.285-.45.27-.72.765-.255.495-.255 1.14t.255 1.14q.27.495.72.78.465.27 1.065.27m1.935 1.41v-1.935l.285-1.755-.285-1.74v-1.77h1.65v7.2zm7.337.15q-.825 0-1.47-.345a2.73 2.73 0 0 1-1.02-.975 2.7 2.7 0 0 1-.36-1.395v-2.07q0-.78.375-1.395t1.02-.96q.645-.36 1.455-.36.975 0 1.755.51.795.495 1.245 1.35.465.84.465 1.905 0 1.05-.465 1.905-.45.84-1.245 1.335-.78.495-1.755.495m-3.855-.15v-10.8h1.65v5.37l-.285 1.74.285 1.755v1.935zm3.585-1.41q.6 0 1.05-.27.465-.285.72-.78.27-.495.27-1.14t-.27-1.14q-.255-.495-.72-.765a1.9 1.9 0 0 0-1.05-.285q-.6 0-1.065.285-.465.27-.72.765t-.255 1.14.255 1.14.72.78q.465.27 1.065.27m8.461 1.56q-1.08 0-1.95-.48a3.76 3.76 0 0 1-1.365-1.35 3.76 3.76 0 0 1-.495-1.92q0-1.065.495-1.905.495-.855 1.335-1.35.855-.495 1.89-.495 1.005 0 1.77.465.78.465 1.215 1.275.45.81.45 1.845 0 .18-.03.375-.015.18-.06.405h-5.91v-1.35h5.055l-.615.54q-.03-.66-.255-1.11t-.645-.69q-.405-.24-1.005-.24-.63 0-1.095.27t-.72.765q-.255.48-.255 1.155t.27 1.185.765.795q.495.27 1.14.27.555 0 1.02-.195.48-.195.81-.57l1.05 1.065q-.525.615-1.275.93t-1.59.315m4.668-.15v-10.8h1.65v10.8zM264.06 342.543q-.37.521-.8.994c-3.852 3.852-7.722 7.686-11.561 11.551a1.366 1.366 0 0 1-1.9 0 769 769 0 0 0-8.387-8.362 1.32 1.32 0 0 1-.005-1.79q6-5.942 11.978-11.915.258-.223.548-.403h9.405a1.089 1.089 0 0 1 .719.662zm-20.776 3.222 7.495 7.469c.049-.047.116-.108.181-.172q5.577-5.55 11.149-11.104a.67.67 0 0 0 .174-.425c.01-2.287.007-4.574.007-6.861 0-.088-.008-.177-.014-.285h-.317q-3.43.001-6.859-.005a.7.7 0 0 0-.554.225q-5.51 5.5-11.031 10.988a2 2 0 0 1-.231.17"/><path fill="#000" d="M264.06 333.282a1.09 1.09 0 0 0-.719-.662h.719zM256.982 341.44a1.77 1.77 0 0 1-1.637-1.088 1.75 1.75 0 0 1 .39-1.919 1.774 1.774 0 0 1 2.724.283c.193.292.293.634.29.982a1.78 1.78 0 0 1-1.767 1.742M201.829 294.922l-3.45-10.5h1.695l2.595 8.085h-.45l2.535-8.085h1.2l2.535 8.085h-.45l2.595-8.085h1.695l-3.45 10.5h-1.2l-2.55-8.07h.45l-2.55 8.07zm14.102.15q-1.08 0-1.95-.48a3.76 3.76 0 0 1-1.365-1.35 3.76 3.76 0 0 1-.495-1.92q0-1.065.495-1.905.495-.855 1.335-1.35.855-.495 1.89-.495 1.005 0 1.77.465.78.465 1.215 1.275.45.81.45 1.845 0 .18-.03.375-.015.18-.06.405h-5.91v-1.35h5.055l-.615.54q-.03-.66-.255-1.11t-.645-.69q-.405-.24-1.005-.24-.63 0-1.095.27t-.72.765q-.255.48-.255 1.155t.27 1.185.765.795q.495.27 1.14.27.555 0 1.02-.195.48-.195.81-.57l1.05 1.065q-.525.615-1.275.93t-1.59.315m8.523 0q-.825 0-1.47-.345a2.73 2.73 0 0 1-1.02-.975 2.7 2.7 0 0 1-.36-1.395v-2.07q0-.78.375-1.395t1.02-.96q.645-.36 1.455-.36.975 0 1.755.51.795.495 1.245 1.35.465.84.465 1.905 0 1.05-.465 1.905-.45.84-1.245 1.335-.78.495-1.755.495m-3.855-.15v-10.8h1.65v5.37l-.285 1.74.285 1.755v1.935zm3.585-1.41q.6 0 1.05-.27.465-.285.72-.78.27-.495.27-1.14t-.27-1.14q-.255-.495-.72-.765a1.9 1.9 0 0 0-1.05-.285q-.6 0-1.065.285-.465.27-.72.765t-.255 1.14.255 1.14.72.78q.465.27 1.065.27m11.269 1.56q-1.245 0-2.115-.45t-1.56-1.32l1.17-1.17q.435.63 1.035.99.6.345 1.53.345.87 0 1.38-.36.525-.36.525-.99 0-.525-.27-.855t-.72-.54q-.435-.225-.975-.39-.525-.18-1.065-.39a5 5 0 0 1-.975-.555 2.5 2.5 0 0 1-.705-.855q-.27-.525-.27-1.335 0-.93.45-1.575.465-.66 1.245-1.005t1.74-.345q1.035 0 1.845.405.825.405 1.335 1.035l-1.17 1.17q-.45-.51-.945-.75a2.3 2.3 0 0 0-1.11-.255q-.78 0-1.23.315-.435.315-.435.885 0 .48.27.78.27.285.705.495.45.195.975.375.54.18 1.065.405.54.225.975.585.45.345.72.9t.27 1.395q0 1.41-1.005 2.235-.99.825-2.685.825m8.442 0q-1.08 0-1.95-.48a3.76 3.76 0 0 1-1.365-1.35 3.76 3.76 0 0 1-.495-1.92q0-1.065.495-1.905.495-.855 1.335-1.35.855-.495 1.89-.495 1.005 0 1.77.465.78.465 1.215 1.275.45.81.45 1.845 0 .18-.03.375-.015.18-.06.405h-5.91v-1.35h5.055l-.615.54q-.03-.66-.255-1.11t-.645-.69q-.405-.24-1.005-.24-.63 0-1.095.27t-.72.765q-.255.48-.255 1.155t.27 1.185.765.795q.495.27 1.14.27.555 0 1.02-.195.48-.195.81-.57l1.05 1.065q-.525.615-1.275.93t-1.59.315m4.667-.15v-7.2h1.65v7.2zm1.65-4.005-.57-.285q0-1.365.6-2.205.615-.855 1.845-.855.54 0 .975.195t.81.63l-1.08 1.11q-.195-.21-.435-.3t-.555-.09q-.69 0-1.14.435t-.45 1.365m6.786 4.005-3.285-7.2h1.83l2.505 5.865h-1.08l2.52-5.865h1.755l-3.285 7.2zm5.232 0v-7.2h1.65v7.2zm.825-8.52a.96.96 0 0 1-.705-.285.99.99 0 0 1-.27-.705q0-.42.27-.705a.96.96 0 0 1 .705-.285q.435 0 .705.285t.27.705-.27.705a.93.93 0 0 1-.705.285m5.99 8.67q-1.065 0-1.935-.495-.855-.495-1.35-1.35a3.73 3.73 0 0 1-.495-1.905q0-1.065.495-1.905.495-.855 1.35-1.35a3.84 3.84 0 0 1 1.935-.495q.84 0 1.56.33.735.315 1.245.915l-1.08 1.095a1.9 1.9 0 0 0-.765-.555 2.3 2.3 0 0 0-.96-.195q-.615 0-1.095.285-.465.27-.735.75-.255.48-.255 1.125 0 .63.255 1.125.27.48.735.765.48.27 1.095.27.525 0 .96-.18.45-.195.765-.57l1.08 1.095q-.51.6-1.245.93-.72.315-1.56.315m7.194 0q-1.08 0-1.95-.48a3.76 3.76 0 0 1-1.365-1.35 3.76 3.76 0 0 1-.495-1.92q0-1.065.495-1.905.495-.855 1.335-1.35.855-.495 1.89-.495 1.005 0 1.77.465.78.465 1.215 1.275.45.81.45 1.845 0 .18-.03.375-.015.18-.06.405h-5.91v-1.35h5.055l-.615.54q-.03-.66-.255-1.11t-.645-.69q-.405-.24-1.005-.24-.63 0-1.095.27t-.72.765q-.255.48-.255 1.155t.27 1.185.765.795q.495.27 1.14.27.555 0 1.02-.195.48-.195.81-.57l1.05 1.065q-.525.615-1.275.93t-1.59.315m6.69-.15 4.32-10.5h1.2l4.29 10.5h-1.86l-3.36-8.505h.63l-3.39 8.505zm2.13-2.025v-1.5h5.565v1.5zm10.25-1.935v-1.5h2.625q.54 0 .945-.21.42-.225.66-.615.24-.405.24-.945t-.24-.93q-.24-.405-.66-.615a1.9 1.9 0 0 0-.945-.225h-2.625v-1.5h2.715q.99 0 1.77.405.795.405 1.245 1.14.465.735.465 1.725t-.465 1.725q-.45.735-1.245 1.14-.78.405-1.77.405zm-1.185 3.96v-10.5h1.725v10.5zm8.936 0v-10.5h1.725v10.5zM248.054 251.9v-1.81q-.009-.195.015-.389a.62.62 0 0 1 .205-.431.64.64 0 0 1 .452-.157.626.626 0 0 1 .574.671c.01.576 0 1.15 0 1.725v.398c.5 0 .978.011 1.452-.014.059 0 .154-.188.156-.29.016-.597.005-1.194.011-1.79 0-.448.221-.701.589-.703s.606.27.608.726c0 .564.019 1.129-.007 1.69-.015.324.1.418.409.39.26-.024.523-.005.785-.005.437 0 .438 0 .438-.453v-1.66c0-.43.237-.696.6-.69s.585.259.586.703c0 .596.01 1.193 0 1.79-.005.243.084.325.325.313q.507-.025 1.014 0c.236.011.3-.085.294-.298a68 68 0 0 1 0-1.856.61.61 0 0 1 .431-.626.53.53 0 0 1 .655.231c.071.133.107.28.106.43q.018.895 0 1.79c0 .249.083.33.342.339.456-.004.91.045 1.354.148.431.131.809.394 1.08.753a2.1 2.1 0 0 1 .426 1.24q.022.814.005 1.627c-.006.285.109.383.387.378a65 65 0 0 1 1.866 0c.439.005.695.241.686.609a.6.6 0 0 1-.217.44.6.6 0 0 1-.222.119.6.6 0 0 1-.251.019c-.644 0-1.288.008-1.931 0-.225 0-.32.076-.315.298q.013.506 0 1.01c-.006.243.107.317.339.314.655-.009 1.309 0 1.964 0a.6.6 0 0 1 .617.442.539.539 0 0 1-.257.647.85.85 0 0 1-.4.091 62 62 0 0 1-1.931 0c-.243 0-.335.092-.329.325q.014.488 0 .977c-.006.233.08.327.326.322a64 64 0 0 1 1.964 0 .63.63 0 0 1 .611.409.506.506 0 0 1-.153.619.8.8 0 0 1-.444.154q-.948.025-1.9 0c-.29-.007-.425.085-.408.39.017.304.01.629 0 .943 0 .208.082.286.294.282a57 57 0 0 1 1.7 0q.195.001.388.04a.6.6 0 0 1 .41.209.6.6 0 0 1 .14.437.63.63 0 0 1-.22.405.64.64 0 0 1-.44.148 65 65 0 0 1-1.931 0c-.259-.007-.35.08-.346.332.008.553.009 1.106-.006 1.66a2.17 2.17 0 0 1-.656 1.494 2.2 2.2 0 0 1-1.516.623c-.818.005-1.637.009-2.455 0-.267 0-.365.08-.358.353.016.65.007 1.301 0 1.953 0 .433-.231.696-.6.696s-.592-.246-.6-.696a80 80 0 0 1 0-1.953c0-.265-.089-.374-.363-.359a9 9 0 0 1-.949 0c-.249-.012-.317.088-.313.325.013.65.005 1.302 0 1.953a.67.67 0 0 1-.425.702.565.565 0 0 1-.753-.381 3.5 3.5 0 0 1-.068-.772c-.01-.498-.017-.995 0-1.497.01-.267-.094-.342-.342-.33q-.442.027-.884 0c-.3-.021-.409.085-.4.387.016.639.007 1.279 0 1.92 0 .463-.2.696-.582.696s-.614-.273-.616-.722c0-.64-.01-1.281 0-1.92.006-.261-.066-.38-.347-.364a9 9 0 0 1-.949 0c-.261-.013-.342.099-.338.345.012.661.006 1.323 0 1.989 0 .417-.223.669-.583.674s-.606-.254-.608-.686c0-.64-.016-1.281 0-1.92.011-.322-.112-.398-.417-.404a5.6 5.6 0 0 1-1.385-.13 2.08 2.08 0 0 1-1.478-1.941 38 38 0 0 1-.018-1.69c0-.24-.067-.35-.339-.341-.6.019-1.2.007-1.8.006-.494 0-.778-.211-.79-.583-.013-.392.268-.645.766-.656a24 24 0 0 1 1.735.005c.334.016.454-.09.43-.417a8 8 0 0 1 0-.846c.011-.269-.109-.362-.373-.357-.633.012-1.266.006-1.9 0-.409 0-.647-.21-.657-.561a.61.61 0 0 1 .646-.627q.981-.015 1.964 0c.225 0 .32-.076.316-.299a31 31 0 0 1 0-1.009c0-.234-.1-.322-.338-.318-.643.012-1.287.006-1.931 0a.58.58 0 0 1-.455-.137.59.59 0 0 1-.158-.675.6.6 0 0 1 .605-.37 59 59 0 0 1 1.931 0c.261.006.352-.1.347-.343q-.011-.472 0-.944c.007-.243-.078-.347-.343-.339-.632.017-1.266.008-1.9 0a.61.61 0 0 1-.626-.335.6.6 0 0 1-.06-.242c-.008-.372.244-.605.684-.611.611-.007 1.223-.016 1.833 0 .32.01.42-.114.414-.419-.011-.552 0-1.106.017-1.659.024-.508.23-.991.582-1.36s.825-.601 1.334-.652c.934-.06 1.873-.048 2.809-.068.131.014.217.008.364.001m3.923 1.258h-6.678a1 1 0 0 0-.442.052.994.994 0 0 0-.658 1.054v13.241a1.04 1.04 0 0 0 .683 1.076c.144.053.298.073.451.06h13.317a1.06 1.06 0 0 0 .819-.302 1.04 1.04 0 0 0 .304-.815V254.25a1 1 0 0 0-.293-.816 1 1 0 0 0-.827-.277z"/><path fill="#000" d="M251.155 262.598a3.5 3.5 0 0 1-.608-.01.343.343 0 0 1-.23-.217c-.117-.668-.535-.845-1.147-.739h-.065c-.768 0-.768 0-1.047.713-.114.29-.242.325-.842.208.158-.407.311-.807.468-1.206.319-.817.651-1.629.954-2.452a.393.393 0 0 1 .473-.282c.23.016.457-.053.58.268.445 1.163.922 2.313 1.386 3.469.022.063.044.136.078.248m-1.356-1.519-.586-1.577-.111.011c-.167.452-.34.901-.493 1.357-.017.05.077.199.125.199.329.016.659.007 1.065.007zM251.721 260.58c0-.552.01-1.105-.005-1.656-.006-.245.084-.322.323-.316.544.014 1.088.005 1.633.011.286-.008.565.096.775.288.211.193.338.46.354.744a1.145 1.145 0 0 1-.861 1.311 5 5 0 0 1-1.1.067c-.312-.01-.4.111-.388.398.017.298-.007.607.006.91s-.185.259-.371.26-.376.032-.369-.263c.012-.585.003-1.169.003-1.754m.738-.775q-.014.21.007.42c.014.077.1.199.15.199a5 5 0 0 0 1.031-.061c.306-.065.411-.331.369-.664a.537.537 0 0 0-.526-.482c-.128-.02-.261 0-.391-.009-.644-.044-.644-.046-.64.597M256.309 260.643c0 .551-.013 1.104.006 1.656.01.298-.151.298-.37.298s-.379.006-.375-.298a149 149 0 0 0 0-3.411c0-.312.184-.283.386-.285s.365-.007.358.278c-.015.591-.005 1.177-.005 1.762M192.869 193.898v-1.5h3.015q.795 0 1.23-.495t.435-1.14q0-.435-.195-.81t-.57-.6-.9-.225h-3.015v-1.5h2.76q.675 0 1.08-.345t.405-1.02-.405-1.02-1.08-.345h-2.76v-1.5h2.805q1.065 0 1.77.39t1.05 1.005.345 1.32q0 .825-.465 1.455-.45.63-1.335 1.02l.135-.54q.99.405 1.545 1.14t.555 1.725q0 .81-.405 1.485-.39.675-1.17 1.095-.765.405-1.89.405zm-1.185 0v-10.5h1.725v10.5zm12.061.15q-.915 0-1.635-.405-.705-.405-1.11-1.11-.39-.72-.39-1.65v-4.185h1.65v4.11q0 .525.165.9.18.36.51.555.345.195.81.195.72 0 1.095-.42.39-.435.39-1.23v-4.11h1.65v4.185q0 .945-.405 1.665-.39.705-1.095 1.11-.705.39-1.635.39m7.149 0q-.6 0-1.155-.15a4.3 4.3 0 0 1-1.02-.45q-.465-.3-.81-.72l1.05-1.05q.375.435.855.66.495.21 1.11.21.555 0 .84-.165t.285-.48q0-.33-.27-.51t-.705-.3q-.42-.135-.9-.27-.465-.135-.9-.36-.42-.24-.69-.645t-.27-1.05q0-.69.315-1.185.33-.495.915-.765.6-.27 1.425-.27.87 0 1.53.315.675.3 1.125.915l-1.05 1.05q-.315-.39-.72-.585t-.93-.195q-.495 0-.765.15t-.27.435q0 .3.27.465t.69.285q.435.12.9.27.48.135.9.39.435.24.705.66.27.405.27 1.065 0 1.05-.735 1.665t-1.995.615m4.105-.15v-7.2h1.65v7.2zm.825-8.52a.96.96 0 0 1-.705-.285.99.99 0 0 1-.27-.705q0-.42.27-.705a.96.96 0 0 1 .705-.285q.435 0 .705.285t.27.705-.27.705a.93.93 0 0 1-.705.285m7.611 8.52v-4.155q0-.72-.465-1.185-.45-.465-1.17-.465-.48 0-.855.21t-.585.585-.21.855l-.645-.36q0-.825.36-1.455.36-.645.99-1.005.645-.375 1.44-.375.81 0 1.44.42.63.405.99 1.065.36.645.36 1.35v4.515zm-4.935 0v-7.2h1.65v7.2zm11.607.15q-1.08 0-1.95-.48a3.76 3.76 0 0 1-1.365-1.35 3.76 3.76 0 0 1-.495-1.92q0-1.065.495-1.905.495-.855 1.335-1.35.855-.495 1.89-.495 1.005 0 1.77.465.78.465 1.215 1.275.45.81.45 1.845 0 .18-.03.375-.015.18-.06.405h-5.91v-1.35h5.055l-.615.54q-.03-.66-.255-1.11t-.645-.69q-.405-.24-1.005-.24-.63 0-1.095.27t-.72.765q-.255.48-.255 1.155t.27 1.185.765.795q.495.27 1.14.27.555 0 1.02-.195.48-.195.81-.57l1.05 1.065q-.525.615-1.275.93t-1.59.315m7.022 0q-.6 0-1.155-.15a4.3 4.3 0 0 1-1.02-.45q-.465-.3-.81-.72l1.05-1.05q.375.435.855.66.495.21 1.11.21.555 0 .84-.165t.285-.48q0-.33-.27-.51t-.705-.3q-.42-.135-.9-.27-.465-.135-.9-.36-.42-.24-.69-.645t-.27-1.05q0-.69.315-1.185.33-.495.915-.765.6-.27 1.425-.27.87 0 1.53.315.675.3 1.125.915l-1.05 1.05q-.315-.39-.72-.585t-.93-.195q-.495 0-.765.15t-.27.435q0 .3.27.465t.69.285q.435.12.9.27.48.135.9.39.435.24.705.66.27.405.27 1.065 0 1.05-.735 1.665t-1.995.615m6.446 0q-.6 0-1.155-.15a4.3 4.3 0 0 1-1.02-.45q-.465-.3-.81-.72l1.05-1.05q.375.435.855.66.495.21 1.11.21.555 0 .84-.165t.285-.48q0-.33-.27-.51t-.705-.3q-.42-.135-.9-.27-.465-.135-.9-.36-.42-.24-.69-.645t-.27-1.05q0-.69.315-1.185.33-.495.915-.765.6-.27 1.425-.27.87 0 1.53.315.675.3 1.125.915l-1.05 1.05q-.315-.39-.72-.585t-.93-.195q-.495 0-.765.15t-.27.435q0 .3.27.465t.69.285q.435.12.9.27.48.135.9.39.435.24.705.66.27.405.27 1.065 0 1.05-.735 1.665t-1.995.615m8.503-4.11v-1.5h2.625q.54 0 .945-.21.42-.225.66-.615.24-.405.24-.945t-.24-.93q-.24-.405-.66-.615a1.9 1.9 0 0 0-.945-.225h-2.625v-1.5h2.715q.99 0 1.77.405.795.405 1.245 1.14.465.735.465 1.725t-.465 1.725q-.45.735-1.245 1.14-.78.405-1.77.405zm-1.185 3.96v-10.5h1.725v10.5zm11.476.15q-.975 0-1.77-.495a3.64 3.64 0 0 1-1.245-1.335q-.45-.855-.45-1.905 0-1.065.45-1.905.465-.855 1.245-1.35a3.2 3.2 0 0 1 1.77-.51q.825 0 1.455.36.645.345 1.02.96t.375 1.395v2.07q0 .78-.375 1.395-.36.615-1.005.975-.645.345-1.47.345m.27-1.56q.915 0 1.47-.615.57-.615.57-1.575 0-.645-.255-1.14t-.72-.765q-.45-.285-1.065-.285-.6 0-1.065.285-.45.27-.72.765-.255.495-.255 1.14t.255 1.14q.27.495.72.78.465.27 1.065.27m1.935 1.41v-1.935l.285-1.755-.285-1.74v-1.77h1.65v7.2zm3.482 0v-7.2h1.65v7.2zm1.65-4.005-.57-.285q0-1.365.6-2.205.615-.855 1.845-.855.54 0 .975.195t.81.63l-1.08 1.11q-.195-.21-.435-.3t-.555-.09q-.69 0-1.14.435t-.45 1.365m5.568 4.005v-10.2h1.65v10.2zm-1.725-5.7v-1.5h5.1v1.5zm11.234 5.7v-4.155q0-.72-.465-1.185-.45-.465-1.17-.465-.48 0-.855.21t-.585.585-.21.855l-.645-.36q0-.825.36-1.455.36-.645.99-1.005.645-.375 1.44-.375.81 0 1.44.42.63.405.99 1.065.36.645.36 1.35v4.515zm-4.935 0v-7.2h1.65v7.2zm11.606.15q-1.08 0-1.95-.48a3.76 3.76 0 0 1-1.365-1.35 3.76 3.76 0 0 1-.495-1.92q0-1.065.495-1.905.495-.855 1.335-1.35.855-.495 1.89-.495 1.005 0 1.77.465.78.465 1.215 1.275.45.81.45 1.845 0 .18-.03.375-.015.18-.06.405h-5.91v-1.35h5.055l-.615.54q-.03-.66-.255-1.11t-.645-.69q-.405-.24-1.005-.24-.63 0-1.095.27t-.72.765q-.255.48-.255 1.155t.27 1.185.765.795q.495.27 1.14.27.555 0 1.02-.195.48-.195.81-.57l1.05 1.065q-.525.615-1.275.93t-1.59.315m4.668-.15v-7.2h1.65v7.2zm1.65-4.005-.57-.285q0-1.365.6-2.205.615-.855 1.845-.855.54 0 .975.195t.81.63l-1.08 1.11q-.195-.21-.435-.3t-.555-.09q-.69 0-1.14.435t-.45 1.365m5.097-2.805-.375-3.99h1.8l-.375 3.99zm5.012 6.96q-.6 0-1.155-.15a4.3 4.3 0 0 1-1.02-.45q-.465-.3-.81-.72l1.05-1.05q.375.435.855.66.495.21 1.11.21.555 0 .84-.165t.285-.48q0-.33-.27-.51t-.705-.3q-.42-.135-.9-.27-.465-.135-.9-.36-.42-.24-.69-.645t-.27-1.05q0-.69.315-1.185.33-.495.915-.765.6-.27 1.425-.27.87 0 1.53.315.675.3 1.125.915l-1.05 1.05q-.315-.39-.72-.585t-.93-.195q-.495 0-.765.15t-.27.435q0 .3.27.465t.69.285q.435.12.9.27.48.135.9.39.435.24.705.66.27.405.27 1.065 0 1.05-.735 1.665t-1.995.615M212.658 211.795l-3.45-10.5h1.695l2.595 8.085h-.45l2.535-8.085h1.2l2.535 8.085h-.45l2.595-8.085h1.695l-3.45 10.5h-1.2l-2.55-8.07h.45l-2.55 8.07zm14.102.15q-1.08 0-1.95-.48a3.76 3.76 0 0 1-1.365-1.35 3.76 3.76 0 0 1-.495-1.92q0-1.065.495-1.905.495-.855 1.335-1.35.855-.495 1.89-.495 1.005 0 1.77.465.78.465 1.215 1.275.45.81.45 1.845 0 .18-.03.375-.015.18-.06.405h-5.91v-1.35h5.055l-.615.54q-.03-.66-.255-1.11t-.645-.69q-.405-.24-1.005-.24-.63 0-1.095.27t-.72.765q-.255.48-.255 1.155t.27 1.185.765.795q.495.27 1.14.27.555 0 1.02-.195.48-.195.81-.57l1.05 1.065q-.525.615-1.275.93t-1.59.315m8.522 0q-.825 0-1.47-.345a2.73 2.73 0 0 1-1.02-.975 2.7 2.7 0 0 1-.36-1.395v-2.07q0-.78.375-1.395t1.02-.96q.645-.36 1.455-.36.975 0 1.755.51.795.495 1.245 1.35.465.84.465 1.905 0 1.05-.465 1.905-.45.84-1.245 1.335-.78.495-1.755.495m-3.855-.15v-10.8h1.65v5.37l-.285 1.74.285 1.755v1.935zm3.585-1.41q.6 0 1.05-.27.465-.285.72-.78.27-.495.27-1.14t-.27-1.14q-.255-.495-.72-.765a1.9 1.9 0 0 0-1.05-.285q-.6 0-1.065.285-.465.27-.72.765t-.255 1.14.255 1.14.72.78q.465.27 1.065.27m7.471 1.56q-.6 0-1.155-.15a4.3 4.3 0 0 1-1.02-.45q-.465-.3-.81-.72l1.05-1.05q.375.435.855.66.495.21 1.11.21.555 0 .84-.165t.285-.48q0-.33-.27-.51t-.705-.3q-.42-.135-.9-.27-.465-.135-.9-.36-.42-.24-.69-.645t-.27-1.05q0-.69.315-1.185.33-.495.915-.765.6-.27 1.425-.27.87 0 1.53.315.675.3 1.125.915l-1.05 1.05q-.315-.39-.72-.585t-.93-.195q-.495 0-.765.15t-.27.435q0 .3.27.465t.69.285q.435.12.9.27.48.135.9.39.435.24.705.66.27.405.27 1.065 0 1.05-.735 1.665t-1.995.615m4.106-.15v-7.2h1.65v7.2zm.825-8.52a.96.96 0 0 1-.705-.285.99.99 0 0 1-.27-.705q0-.42.27-.705a.96.96 0 0 1 .705-.285q.435 0 .705.285t.27.705-.27.705a.93.93 0 0 1-.705.285m3.77 8.52v-10.2h1.65v10.2zm-1.725-5.7v-1.5h5.1v1.5zm9.439 5.85q-1.08 0-1.95-.48a3.76 3.76 0 0 1-1.365-1.35 3.76 3.76 0 0 1-.495-1.92q0-1.065.495-1.905.495-.855 1.335-1.35.855-.495 1.89-.495 1.005 0 1.77.465.78.465 1.215 1.275.45.81.45 1.845 0 .18-.03.375-.015.18-.06.405h-5.91v-1.35h5.055l-.615.54q-.03-.66-.255-1.11t-.645-.69q-.405-.24-1.005-.24-.63 0-1.095.27t-.72.765q-.255.48-.255 1.155t.27 1.185.765.795q.495.27 1.14.27.555 0 1.02-.195.48-.195.81-.57l1.05 1.065q-.525.615-1.275.93t-1.59.315m3.888.45 4.2-11.7h1.545l-4.2 11.7zm5.381-.6 4.32-10.5h1.2l4.29 10.5h-1.86l-3.36-8.505h.63l-3.39 8.505zm2.13-2.025v-1.5h5.565v1.5zm12.812 2.175q-.825 0-1.47-.345a2.73 2.73 0 0 1-1.02-.975 2.7 2.7 0 0 1-.36-1.395v-2.07q0-.78.375-1.395t1.02-.96q.645-.36 1.455-.36.975 0 1.755.51.795.495 1.245 1.35.465.84.465 1.905 0 1.05-.465 1.905-.45.84-1.245 1.335-.78.495-1.755.495m-3.855 2.85v-10.2h1.65v1.935l-.285 1.755.285 1.74v4.77zm3.585-4.41q.6 0 1.05-.27.465-.285.72-.78.27-.495.27-1.14t-.27-1.14q-.255-.495-.72-.765a1.9 1.9 0 0 0-1.05-.285q-.6 0-1.065.285-.465.27-.72.765t-.255 1.14.255 1.14.72.78q.465.27 1.065.27m8.972 1.56q-.825 0-1.47-.345a2.73 2.73 0 0 1-1.02-.975 2.7 2.7 0 0 1-.36-1.395v-2.07q0-.78.375-1.395t1.02-.96q.645-.36 1.455-.36.975 0 1.755.51.795.495 1.245 1.35.465.84.465 1.905 0 1.05-.465 1.905-.45.84-1.245 1.335-.78.495-1.755.495m-3.855 2.85v-10.2h1.65v1.935l-.285 1.755.285 1.74v4.77zm3.585-4.41q.6 0 1.05-.27.465-.285.72-.78.27-.495.27-1.14t-.27-1.14q-.255-.495-.72-.765a1.9 1.9 0 0 0-1.05-.285q-.6 0-1.065.285-.465.27-.72.765t-.255 1.14.255 1.14.72.78q.465.27 1.065.27M249.14 159.508v-3.791h5.625c.145 1.26.148 2.531.007 3.791zM254.635 154.68h-5.384c.234-.818.408-1.608.692-2.356.212-.546.5-1.059.856-1.526a1.39 1.39 0 0 1 2.359-.011 7.6 7.6 0 0 1 1.376 3.315c.041.182.065.366.101.578M249.311 160.544h5.337a8.1 8.1 0 0 1-1.559 3.971 1.375 1.375 0 0 1-1.796.395 1.4 1.4 0 0 1-.483-.454 7.2 7.2 0 0 1-1.327-3.04c-.066-.272-.109-.546-.172-.872M248.119 155.698v3.833h-.925c-.72 0-1.441-.012-2.161.006-.257.006-.341-.086-.392-.324a7.14 7.14 0 0 1 .021-3.245c.024-.1.135-.258.208-.259 1.083-.016 2.167-.011 3.249-.011M255.832 155.696h1.966c.4 0 .8-.015 1.205.01q.091.017.165.074a.4.4 0 0 1 .113.141 7 7 0 0 1 0 3.381c-.021.082-.117.209-.179.209-1.095.013-2.19.01-3.272.01zM254.154 150.458a7.6 7.6 0 0 1 2.836 1.595 7.55 7.55 0 0 1 1.904 2.629h-3.231a10.9 10.9 0 0 0-1.509-4.224M245.054 160.536h3.238c.2 1.497.711 2.936 1.5 4.227a7.6 7.6 0 0 1-2.837-1.596 7.56 7.56 0 0 1-1.901-2.631M245.059 154.683a7.5 7.5 0 0 1 1.9-2.628 7.6 7.6 0 0 1 2.833-1.595 10.8 10.8 0 0 0-1.5 4.223zM255.698 160.541h3.139a7 7 0 0 1-1.789 2.589 7.05 7.05 0 0 1-2.748 1.551c.274-.641.606-1.302.84-1.996s.375-1.424.558-2.144M251.989 148.678c.828 0 1.5-.668 1.5-1.492 0-.823-.672-1.491-1.5-1.491-.829 0-1.5.668-1.5 1.491s.671 1.492 1.5 1.492M251.989 169.558c.828 0 1.5-.668 1.5-1.492 0-.823-.672-1.491-1.5-1.491-.829 0-1.5.668-1.5 1.491s.671 1.492 1.5 1.492M241.489 159.118c.828 0 1.5-.668 1.5-1.492 0-.823-.672-1.491-1.5-1.491-.829 0-1.5.668-1.5 1.491s.671 1.492 1.5 1.492M262.489 159.118c.828 0 1.5-.668 1.5-1.492 0-.823-.672-1.491-1.5-1.491-.829 0-1.5.668-1.5 1.491s.671 1.492 1.5 1.492"/><path fill="#000" d="M241.489 159.118c.828 0 1.5-.668 1.5-1.492 0-.823-.672-1.491-1.5-1.491-.829 0-1.5.668-1.5 1.491s.671 1.492 1.5 1.492M262.489 159.118c.828 0 1.5-.668 1.5-1.492 0-.823-.672-1.491-1.5-1.491-.829 0-1.5.668-1.5 1.491s.671 1.492 1.5 1.492M224.034 72.922l-4.095-6.3h1.995l3.195 5.025h-.93l3.195-5.025h1.965l-4.125 6.3zm-.24 4.2v-5.28h1.725v5.28zm7.911.15q-1.05 0-1.905-.495a3.9 3.9 0 0 1-1.365-1.365 3.73 3.73 0 0 1-.495-1.905q0-1.05.495-1.89.51-.84 1.365-1.335.855-.51 1.905-.51 1.065 0 1.92.495t1.35 1.35q.51.84.51 1.89t-.51 1.905q-.495.855-1.35 1.365-.855.495-1.92.495m0-1.59q.615 0 1.08-.27.48-.285.735-.78.27-.495.27-1.125t-.27-1.11-.735-.75q-.465-.285-1.08-.285-.6 0-1.08.285-.465.27-.735.75-.255.48-.255 1.11t.255 1.125q.27.495.735.78.48.27 1.08.27m8.107 1.59q-.915 0-1.635-.405-.705-.405-1.11-1.11-.39-.72-.39-1.65v-4.185h1.65v4.11q0 .525.165.9.18.36.51.555.345.195.81.195.72 0 1.095-.42.39-.435.39-1.23v-4.11h1.65v4.185q0 .945-.405 1.665-.39.705-1.095 1.11-.705.39-1.635.39m4.794-.15v-7.2h1.65v7.2zm1.65-4.005-.57-.285q0-1.365.6-2.205.615-.855 1.845-.855.54 0 .975.195t.81.63l-1.08 1.11q-.195-.21-.435-.3t-.555-.09q-.69 0-1.14.435t-.45 1.365m12.78 4.155q-1.125 0-2.1-.42a5.4 5.4 0 0 1-1.71-1.155 5.6 5.6 0 0 1-1.155-1.725 5.5 5.5 0 0 1-.405-2.115q0-1.125.405-2.1.42-.975 1.14-1.71a5.2 5.2 0 0 1 1.695-1.155 5.25 5.25 0 0 1 2.1-.42q1.125 0 2.085.42.975.405 1.71 1.155.735.735 1.14 1.725.42.975.42 2.1t-.42 2.115a5.2 5.2 0 0 1-1.14 1.71q-.72.735-1.695 1.155-.96.42-2.07.42m-.03-1.65q1.065 0 1.86-.48.81-.48 1.26-1.32.465-.855.465-1.965 0-.825-.27-1.5a3.3 3.3 0 0 0-.735-1.185q-.48-.51-1.14-.78-.645-.27-1.44-.27-1.05 0-1.86.48-.795.465-1.26 1.305-.45.84-.45 1.95 0 .825.255 1.53.27.69.735 1.185.48.495 1.14.78.66.27 1.44.27m8.985 1.5-2.895-7.2h1.71l1.95 5.235-.51.015 1.905-5.25h.96l1.905 5.25-.51-.015 1.95-5.235h1.71l-2.895 7.2h-.96l-1.95-4.98h.54l-1.95 4.98zm14.143 0v-4.155q0-.72-.465-1.185-.45-.465-1.17-.465-.48 0-.855.21t-.585.585-.21.855l-.645-.36q0-.825.36-1.455.36-.645.99-1.005.645-.375 1.44-.375.81 0 1.44.42.63.405.99 1.065.36.645.36 1.35v4.515zm-4.935 0v-7.2h1.65v7.2zM212.658 95.019l-3.45-10.5h1.695l2.595 8.085h-.45l2.535-8.085h1.2l2.535 8.085h-.45l2.595-8.085h1.695l-3.45 10.5h-1.2l-2.55-8.07h.45l-2.55 8.07zm14.102.15q-1.08 0-1.95-.48a3.76 3.76 0 0 1-1.365-1.35 3.76 3.76 0 0 1-.495-1.92q0-1.065.495-1.905.495-.855 1.335-1.35.855-.495 1.89-.495 1.005 0 1.77.465.78.465 1.215 1.275.45.81.45 1.845 0 .18-.03.375-.015.18-.06.405h-5.91v-1.35h5.055l-.615.54q-.03-.66-.255-1.11t-.645-.69q-.405-.24-1.005-.24-.63 0-1.095.27t-.72.765q-.255.48-.255 1.155t.27 1.185.765.795q.495.27 1.14.27.555 0 1.02-.195.48-.195.81-.57l1.05 1.065q-.525.615-1.275.93t-1.59.315m8.523 0q-.825 0-1.47-.345a2.73 2.73 0 0 1-1.02-.975 2.7 2.7 0 0 1-.36-1.395v-2.07q0-.78.375-1.395t1.02-.96q.645-.36 1.455-.36.975 0 1.755.51.795.495 1.245 1.35.465.84.465 1.905 0 1.05-.465 1.905-.45.84-1.245 1.335-.78.495-1.755.495m-3.855-.15v-10.8h1.65v5.37l-.285 1.74.285 1.755v1.935zm3.585-1.41q.6 0 1.05-.27.465-.285.72-.78.27-.495.27-1.14t-.27-1.14q-.255-.495-.72-.765a1.9 1.9 0 0 0-1.05-.285q-.6 0-1.065.285-.465.27-.72.765t-.255 1.14.255 1.14.72.78q.465.27 1.065.27m7.471 1.56q-.6 0-1.155-.15a4.3 4.3 0 0 1-1.02-.45q-.465-.3-.81-.72l1.05-1.05q.375.435.855.66.495.21 1.11.21.555 0 .84-.165t.285-.48q0-.33-.27-.51t-.705-.3q-.42-.135-.9-.27-.465-.135-.9-.36-.42-.24-.69-.645t-.27-1.05q0-.69.315-1.185.33-.495.915-.765.6-.27 1.425-.27.87 0 1.53.315.675.3 1.125.915l-1.05 1.05q-.315-.39-.72-.585t-.93-.195q-.495 0-.765.15t-.27.435q0 .3.27.465t.69.285q.435.12.9.27.48.135.9.39.435.24.705.66.27.405.27 1.065 0 1.05-.735 1.665t-1.995.615m4.105-.15v-7.2h1.65v7.2zm.825-8.52a.96.96 0 0 1-.705-.285.99.99 0 0 1-.27-.705q0-.42.27-.705a.96.96 0 0 1 .705-.285q.435 0 .705.285t.27.705-.27.705a.93.93 0 0 1-.705.285m3.771 8.52v-10.2h1.65v10.2zm-1.725-5.7v-1.5h5.1v1.5zm9.439 5.85q-1.08 0-1.95-.48a3.76 3.76 0 0 1-1.365-1.35 3.76 3.76 0 0 1-.495-1.92q0-1.065.495-1.905.495-.855 1.335-1.35.855-.495 1.89-.495 1.005 0 1.77.465.78.465 1.215 1.275.45.81.45 1.845 0 .18-.03.375-.015.18-.06.405h-5.91v-1.35h5.055l-.615.54q-.03-.66-.255-1.11t-.645-.69q-.405-.24-1.005-.24-.63 0-1.095.27t-.72.765q-.255.48-.255 1.155t.27 1.185.765.795q.495.27 1.14.27.555 0 1.02-.195.48-.195.81-.57l1.05 1.065q-.525.615-1.275.93t-1.59.315m3.887.45 4.2-11.7h1.545l-4.2 11.7zm5.382-.6 4.32-10.5h1.2l4.29 10.5h-1.86l-3.36-8.505h.63l-3.39 8.505zm2.13-2.025v-1.5h5.565v1.5zm12.812 2.175q-.825 0-1.47-.345a2.73 2.73 0 0 1-1.02-.975 2.7 2.7 0 0 1-.36-1.395v-2.07q0-.78.375-1.395t1.02-.96q.645-.36 1.455-.36.975 0 1.755.51.795.495 1.245 1.35.465.84.465 1.905 0 1.05-.465 1.905-.45.84-1.245 1.335-.78.495-1.755.495m-3.855 2.85v-10.2h1.65v1.935l-.285 1.755.285 1.74v4.77zm3.585-4.41q.6 0 1.05-.27.465-.285.72-.78.27-.495.27-1.14t-.27-1.14q-.255-.495-.72-.765a1.9 1.9 0 0 0-1.05-.285q-.6 0-1.065.285-.465.27-.72.765t-.255 1.14.255 1.14.72.78q.465.27 1.065.27m8.971 1.56q-.825 0-1.47-.345a2.73 2.73 0 0 1-1.02-.975 2.7 2.7 0 0 1-.36-1.395v-2.07q0-.78.375-1.395t1.02-.96q.645-.36 1.455-.36.975 0 1.755.51.795.495 1.245 1.35.465.84.465 1.905 0 1.05-.465 1.905-.45.84-1.245 1.335-.78.495-1.755.495m-3.855 2.85v-10.2h1.65v1.935l-.285 1.755.285 1.74v4.77zm3.585-4.41q.6 0 1.05-.27.465-.285.72-.78.27-.495.27-1.14t-.27-1.14q-.255-.495-.72-.765a1.9 1.9 0 0 0-1.05-.285q-.6 0-1.065.285-.465.27-.72.765t-.255 1.14.255 1.14.72.78q.465.27 1.065.27M251.945 52.782a12.05 12.05 0 0 1-6.657-2.035 11.95 11.95 0 0 1-4.4-5.368 11.875 11.875 0 0 1 2.642-12.99 12.03 12.03 0 0 1 6.152-3.247 12.06 12.06 0 0 1 6.929.697 12 12 0 0 1 5.373 4.406 11.9 11.9 0 0 1 2.006 6.63 11.85 11.85 0 0 1-.92 4.572 11.9 11.9 0 0 1-2.614 3.87 12 12 0 0 1-3.908 2.577c-1.46.594-3.025.896-4.603.888m.067-22.622a10.8 10.8 0 0 0-5.977 1.791 10.7 10.7 0 0 0-3.97 4.791 10.64 10.64 0 0 0-.623 6.177 10.67 10.67 0 0 0 2.933 5.48 10.8 10.8 0 0 0 5.501 2.936 10.8 10.8 0 0 0 6.214-.597 10.74 10.74 0 0 0 4.834-3.929 10.65 10.65 0 0 0 1.823-5.937 10.7 10.7 0 0 0-3.145-7.558 10.82 10.82 0 0 0-7.59-3.154"/><path fill="#000" d="M249.159 42.745v-3.784h5.618c.146 1.258.149 2.529.007 3.787zM254.648 37.923h-5.378c.234-.817.408-1.606.692-2.354.212-.544.5-1.057.855-1.522a1.387 1.387 0 0 1 2.357-.013 7.6 7.6 0 0 1 1.374 3.312c.04.181.064.365.1.577M249.328 43.778h5.331a8.1 8.1 0 0 1-1.557 3.965 1.37 1.37 0 0 1-1.153.572 1.38 1.38 0 0 1-1.123-.63 7.2 7.2 0 0 1-1.325-3.036c-.065-.271-.108-.548-.173-.87M248.139 38.94v3.826h-.923c-.72 0-1.44-.01-2.159.007-.256.006-.34-.086-.393-.323a7.16 7.16 0 0 1 .022-3.242c.024-.1.135-.257.208-.258 1.082-.017 2.165-.01 3.245-.01M255.844 38.937h1.963c.4 0 .8-.014 1.2.011a.38.38 0 0 1 .277.215 7 7 0 0 1 0 3.38c-.02.084-.116.21-.178.211-1.093.013-2.187.01-3.268.01zM254.168 33.705a7.6 7.6 0 0 1 2.833 1.593 7.5 7.5 0 0 1 1.9 2.626h-3.226a10.9 10.9 0 0 0-1.507-4.219M245.078 43.77h3.234a10.9 10.9 0 0 0 1.5 4.223 7.6 7.6 0 0 1-2.834-1.593 7.5 7.5 0 0 1-1.9-2.63M245.083 37.925a7.5 7.5 0 0 1 1.898-2.626 7.6 7.6 0 0 1 2.829-1.592 10.8 10.8 0 0 0-1.495 4.218zM255.71 43.774h3.134a7 7 0 0 1-1.786 2.587 7 7 0 0 1-2.745 1.549c.273-.64.6-1.3.839-1.989s.376-1.426.558-2.147"/><path stroke="#707070" d="M340.999.668H172.488c-9.665 0-17.5 7.79-17.5 17.4v468.529c0 9.61 7.835 17.4 17.5 17.4h168.511c9.665 0 17.5-7.79 17.5-17.4V18.067c0-9.609-7.835-17.4-17.5-17.4ZM5.258 254.236c2.485 0 4.5-2.003 4.5-4.474s-2.015-4.474-4.5-4.474-4.5 2.003-4.5 4.474 2.015 4.474 4.5 4.474ZM10.258 249.87H154.5"/><path fill="#000" d="M154.5 254.733c2.761 0 5-2.225 5-4.971s-2.239-4.971-5-4.971-5 2.225-5 4.971 2.239 4.971 5 4.971"/><path stroke="#707070" d="M154.5 254.236c2.485 0 4.5-2.003 4.5-4.474s-2.015-4.474-4.5-4.474-4.5 2.003-4.5 4.474 2.015 4.474 4.5 4.474Z"/></svg>