<svg xmlns="http://www.w3.org/2000/svg" width="22" height="21" fill="none"><path fill="#000" d="M11.135 20.884c-1.37.01-2.726-.26-3.986-.795a10.3 10.3 0 0 1-3.245-2.173A10.3 10.3 0 0 1 1.72 14.69a9.85 9.85 0 0 1-.8-3.963 9.85 9.85 0 0 1 .8-3.965 10.3 10.3 0 0 1 2.185-3.226A10.3 10.3 0 0 1 7.15 1.363a10 10 0 0 1 3.986-.795c1.37-.01 2.727.26 3.986.795a10.3 10.3 0 0 1 3.245 2.173c.929.927 1.67 2.022 2.185 3.226a9.85 9.85 0 0 1 .8 3.965 9.85 9.85 0 0 1-.8 3.963 10.3 10.3 0 0 1-2.185 3.226 10.3 10.3 0 0 1-3.245 2.173c-1.26.535-2.616.806-3.986.795m1.022-2.109a8.02 8.02 0 0 0 5.1-2.654 7.78 7.78 0 0 0 2.057-5.4 7.78 7.78 0 0 0-2.057-5.398 8.01 8.01 0 0 0-5.1-2.655z"/></svg>